<?xml version="1.0" encoding="utf-8"?>
<!-- Generator: Adobe Illustrator 23.0.3, SVG Export Plug-In . SVG Version: 6.00 Build 0)  -->
<svg version="1.1" id="Layer_1" xmlns="http://www.w3.org/2000/svg" xmlns:xlink="http://www.w3.org/1999/xlink" x="0px" y="0px"
	 viewBox="0 0 359.82 33.59" style="enable-background:new 0 0 359.82 33.59;" xml:space="preserve">
<style type="text/css">
	.st0{fill:#FFFFFF;}
</style>
<g>
	<g>
		<path class="st0" d="M55.08,14.27c0,0,0.02,0.16,0.07,0.47c0.05,0.31,0.07,0.53,0.07,0.65v0.18v0.22h0.04
			c0.02,0,0.04,0.06,0.04,0.18l-0.04,0.22h0.04h0.04v0.18v0.22c0.1,1.06,0.14,1.88,0.14,2.46c0,2.24-0.33,4.58-0.98,7.01l-0.04,0.22
			c-0.07,0.22-0.37,0.86-0.9,1.92c-0.19,0.29-0.4,0.53-0.61,0.72c-0.6,0.53-1.12,0.87-1.55,1.01c-0.46,0.1-0.71,0.14-0.76,0.14
			c-0.17,0.02-0.4,0.04-0.69,0.04c-0.67,0-1.26-0.14-1.75-0.43c-0.49-0.29-0.96-0.77-1.39-1.44c-0.46-0.67-0.93-1.72-1.41-3.14
			l-0.11-0.33c-0.14-0.26-0.23-0.57-0.25-0.9L45,23.55c-0.02-0.12-0.08-0.38-0.18-0.79l-0.11-0.43c-0.02-0.07-0.02-0.16,0-0.25
			v-0.18c-0.07-0.48-0.16-1.23-0.25-2.24h-0.04v-0.72c0.07-3.47,0.29-6.21,0.65-8.24c0.1-0.51,0.28-1.19,0.54-2.06l0.18-0.69
			l0.04-0.29c0.14-0.41,0.25-0.67,0.33-0.79c0.43-0.67,0.82-1.17,1.17-1.48c0.35-0.31,0.87-0.65,1.57-1.01
			c0.87-0.43,1.76-0.65,2.67-0.65c0.34,0,0.59,0.01,0.76,0.04c0.6,0.07,0.99,0.14,1.16,0.22l0.18,0.11l0.22,0.07v0.04
			c0.07,0.02,0.14,0.07,0.22,0.13c0.07,0.06,0.13,0.1,0.18,0.13c0.07,0.07,0.11,0.13,0.11,0.18c0.19,0.19,0.3,0.31,0.33,0.36
			c0.05,0.1,0.07,0.18,0.07,0.25l0.07,0.14l0.04,0.07v0.04c0,0.12-0.08,0.24-0.25,0.36c-0.07,0.05-0.12,0.06-0.14,0.04
			c-0.07-0.07-0.16-0.12-0.25-0.14c-0.12-0.05-0.24-0.13-0.36-0.25l-0.04,0.04c-0.02,0-0.07-0.04-0.14-0.11s-0.12-0.11-0.14-0.11
			c-0.51-0.29-0.94-0.47-1.3-0.54C51.92,4.72,51.67,4.7,51.5,4.7c-0.84,0-1.58,0.27-2.2,0.79C49.01,5.76,48.81,6,48.69,6.21
			c-0.12,0.17-0.25,0.52-0.4,1.05l-0.18,0.72l-0.22,0.87c-0.24,0.82-0.43,1.77-0.58,2.85c-0.34,2.55-0.47,4.71-0.4,6.47v0.29
			l0.04,0.36l0.11,0.65c0.43,3.03,0.96,5.31,1.59,6.83c0.31,0.77,0.6,1.41,0.87,1.92l0.25,0.22c0.07,0.07,0.14,0.15,0.2,0.23
			c0.06,0.08,0.1,0.15,0.13,0.2c0.12,0.12,0.2,0.18,0.25,0.18h0.04c0.19-0.05,0.37-0.16,0.54-0.32l0.14-0.18l0.04,0.07
			c0-0.07,0.12-0.34,0.36-0.79c0.38-0.79,0.72-1.76,1.01-2.89l0.22-0.83l0.07-0.33c0-0.24,0.05-0.52,0.14-0.83l0.07-0.36
			c0.05-0.58,0.06-1.05,0.04-1.41v-0.29c0-0.31-0.02-0.57-0.07-0.76l-0.07-0.29c-0.05-0.84-0.02-1.93,0.07-3.25
			c0.07-1.08,0.12-1.67,0.14-1.77c0.05-0.05,0.07-0.13,0.07-0.25h-0.04h-0.11h-0.14l-0.07-0.04h-0.07h-0.14l-0.18,0.04h-0.14
			c-0.05,0.02-0.11,0.04-0.18,0.04H51.9h-0.18h-0.04l-0.04,0.04h-0.04l-0.04-0.04l-0.07,0.04h-0.04l-0.04-0.04h-0.18v0.04
			l-0.04-0.04l-0.51,0.04H50.6h-0.04v0.04c-0.02,0-0.04-0.01-0.04-0.04h-0.04c-0.1,0-0.18-0.01-0.25-0.04h-0.07h-0.04h-0.07
			c-0.05,0-0.07-0.01-0.07-0.04h-0.04h-0.04v-0.04l-0.04-0.07h-0.04c-0.05-0.14-0.06-0.23-0.04-0.25v-0.07v-0.07v-0.04v-0.04
			c0.05-0.19,0.08-0.29,0.11-0.31c0.02-0.01,0.11-0.03,0.25-0.05h0.18h0.14h0.11l0.07-0.04h0.25c0.12,0,0.19-0.01,0.22-0.04h0.04
			h0.04h0.04c0.02-0.02,0.1-0.04,0.22-0.04h0.29h0.18l0.36,0.04l0.07-0.04l0.04-0.04c0.05-0.05,0.11-0.05,0.18,0h0.04
			c0,0.02,0.01,0.04,0.04,0.04l0.04-0.04h0.07h0.11l0.07,0.04v0.04c0.05-0.05,0.1-0.06,0.14-0.04c0.17,0,0.29-0.01,0.36-0.04h0.04
			h0.04h0.07h0.04h0.04h0.11l0.04-0.14l0.11,0.07l0.04-0.04c0.02-0.02,0.11-0.01,0.25,0.04l0.14,0.04l0.07,0.04v0.14l0.04,0.04
			l0.04,0.04c0.12,0.07,0.26,0.19,0.43,0.36C55.03,14.2,55.08,14.27,55.08,14.27z"/>
		<path class="st0" d="M70.21,29.73l-0.11-0.07v-0.04v-0.07h-0.04v0.04c-0.02,0-0.04-0.01-0.04-0.04v-0.07L70,29.51v-0.07
			l-0.04-0.04c-0.17-0.41-0.45-1.44-0.83-3.11l-0.07-0.07c-0.02-0.02-0.04-0.11-0.04-0.25l-0.07-0.25
			c-0.05-0.14-0.07-0.29-0.07-0.43c-0.07-0.22-0.11-0.4-0.11-0.54l-0.14-0.72c0-0.05-0.05-0.25-0.14-0.61l-0.07-0.69
			c-0.02-0.14-0.12-0.49-0.29-1.05c0.02,0.07-0.02-0.11-0.14-0.54c-0.1,0.02-0.3,0.04-0.61,0.04h-0.04c-0.02,0.02-0.06,0.02-0.11,0
			h-0.11h-0.07c-0.02,0.02-0.06,0.04-0.11,0.04l-0.07-0.04h-0.11c-0.1,0-0.18-0.01-0.25-0.04h-0.22c-0.07,0-0.12-0.01-0.14-0.04
			h-0.14h-0.33l-0.25,0.04h-0.29l-0.36,0.04H64.4h-0.36h-0.07l-0.04,0.04l-0.07-0.04h-0.07c-0.07,0-0.13,0.01-0.18,0.04h-0.04h-0.04
			l-0.04-0.04h-0.33v0.04l-0.11-0.04h-0.4v0.11c-0.02,0.05-0.04,0.12-0.04,0.22v0.07l-0.07,0.11l-0.04,0.07l-0.18,0.83h0.04v0.04
			l-0.11,0.22c-0.14,0.5-0.35,1.37-0.61,2.6l-0.07,0.4l-0.11,0.36v0.11c0,0.1-0.02,0.17-0.07,0.22l-0.43,1.37l-0.07,0.33
			c-0.02,0.17-0.06,0.28-0.11,0.33c-0.07,0.17-0.12,0.28-0.14,0.33l-0.22,0.58v0.07c0,0.02-0.01,0.04-0.04,0.04h-0.04l-0.04,0.04
			v0.07c0,0.05-0.04,0.07-0.11,0.07l-0.07,0.07c-0.05,0.05-0.08,0.07-0.11,0.07v0.04l-0.04,0.04c-0.34,0-0.51-0.04-0.51-0.11
			l-0.11-0.11l-0.14-0.14c0-0.02-0.01-0.04-0.04-0.04c-0.02,0-0.04-0.01-0.04-0.04v-0.07l-0.04-0.07c-0.12-0.12-0.23-0.3-0.33-0.54
			c-0.05-0.1-0.07-0.17-0.07-0.22c0.05-0.6,0.2-1.36,0.47-2.28c0.05-0.14,0.1-0.28,0.14-0.42c0.05-0.13,0.08-0.26,0.11-0.38
			l0.07-0.43l0.07-0.43c0.1-0.26,0.19-0.61,0.29-1.05s0.17-0.81,0.22-1.12l0.04-0.14c0.02-0.02,0.04-0.06,0.04-0.11
			c0-0.07,0.01-0.12,0.04-0.14V22l0.18-0.83c-0.17,0-0.25-0.02-0.25-0.07l-0.04,0.04h-0.04c0-0.02-0.01-0.04-0.04-0.04h-0.04
			l-0.04-0.04l-0.07-0.07l-0.04-0.04c-0.1-0.17-0.11-0.26-0.04-0.29c0-0.02,0.01-0.06,0.02-0.11c0.01-0.05,0.03-0.07,0.05-0.07
			s0.04-0.01,0.04-0.04c-0.02,0-0.04-0.01-0.04-0.04h0.04l0.04-0.04l0.07-0.14c0.1-0.14,0.16-0.22,0.18-0.22
			c0.07-0.02,0.2-0.04,0.4-0.04c0.14-0.63,0.26-1.13,0.36-1.5s0.27-0.97,0.51-1.79v-0.18v-0.22v-0.11c0-0.17,0.06-0.46,0.18-0.87
			c0.05-0.14,0.08-0.23,0.11-0.25l0.07-0.22v-0.11l0.11-0.47c0-0.1,0.02-0.2,0.05-0.33c0.04-0.12,0.05-0.2,0.05-0.25l0.11-0.29
			c0.02,0.02,0.06,0.04,0.11,0.04v-0.14c0-0.17,0.04-0.43,0.11-0.79c0.24-0.84,0.4-1.52,0.47-2.02l0.11-0.4V9.93
			c0-0.12,0.02-0.27,0.07-0.43l0.07-0.25c0.1-0.31,0.17-0.66,0.22-1.05l0.04-0.22V7.77c0.02-0.07,0.02-0.16,0-0.25
			c-0.02-0.12-0.02-0.19,0-0.22c0.05-0.48,0.2-1.08,0.47-1.81c0.14-0.51,0.24-0.82,0.29-0.94c0.12-0.17,0.18-0.26,0.18-0.29
			c0.02-0.07,0.12-0.08,0.29-0.04l-0.04-0.07l0.04-0.04l0.04-0.07l0.07-0.25V3.76l0.04-0.04c0.05-0.02,0.12-0.05,0.22-0.09
			c0.1-0.04,0.17-0.05,0.22-0.05c0.14,0,0.24,0.06,0.29,0.18l0.04-0.04c0.02,0,0.06,0.02,0.11,0.07l0.04,0.07l0.25,0.18
			c0.19,0.17,0.34,0.32,0.43,0.47c0.34,1.32,0.54,2.26,0.61,2.82c0.07,0.48,0.14,0.86,0.22,1.12l0.14,0.61l0.14,0.54
			c0.07,0.39,0.17,0.87,0.29,1.46c0.12,0.59,0.23,1.09,0.33,1.5l0.07,0.14c0,0.1,0.02,0.22,0.07,0.36l0.07,0.14l0.61,2.56
			c0.17,0.96,0.31,1.61,0.43,1.95c0.02,0.1,0.06,0.31,0.11,0.65c0.05,0.34,0.13,0.87,0.25,1.59l0.11,0.14l0.11,0.25v0.11
			c0.1,0.17,0.18,0.48,0.25,0.94c0.02,0.07,0.04,0.16,0.04,0.25c-0.05,0.07-0.05,0.17,0,0.29l0.07,0.07l0.11,0.47l0.11,0.61
			l0.04,0.32h-0.07c0.1,0.1,0.18,0.37,0.25,0.83c0.12,0.75,0.24,1.33,0.36,1.73c0,0.05,0.01,0.1,0.02,0.16
			c0.01,0.06,0.03,0.1,0.05,0.13c0,0.05,0.01,0.08,0.04,0.11c0.05,0.1,0.07,0.21,0.07,0.33c0,0.1,0.01,0.16,0.04,0.18
			c0.05,0.29,0.1,0.52,0.14,0.69c0,0.02,0.01,0.07,0.04,0.13c0.02,0.06,0.05,0.1,0.07,0.13c0,0.02,0.02,0.06,0.07,0.11
			c0.05,0.05,0.07,0.08,0.07,0.11c0.12,0.19,0.16,0.49,0.11,0.9c0,0.24-0.01,0.37-0.04,0.4c-0.02,0.02-0.04,0.06-0.04,0.11
			c0,0.05-0.08,0.08-0.25,0.11l-0.04,0.07l-0.07,0.07l-0.36,0.07c-0.27,0.05-0.46,0.06-0.58,0.04L70.21,29.73z M67.43,19.15
			l-0.25-0.83c0-0.1-0.13-0.77-0.4-2.02l-0.07-0.22c-0.02-0.02-0.04-0.05-0.04-0.09c0-0.04-0.01-0.05-0.04-0.05
			c-0.02-0.07-0.04-0.17-0.04-0.29c0-0.07-0.01-0.12-0.04-0.14l-0.11-0.47l-0.04-0.29V14.7l-0.22-1.05v0.04h-0.04l-0.04-0.33
			c-0.1-0.6-0.33-1.65-0.69-3.14l-0.11-0.61l-0.4,1.84v0.11c0,0.07-0.04,0.25-0.11,0.54c0,0.02,0.01,0.05,0.02,0.09
			c0.01,0.04,0.01,0.08-0.02,0.13c-0.02,0.07-0.04,0.16-0.04,0.25c-0.02,0.12-0.06,0.23-0.11,0.33c-0.05,0.1-0.08,0.17-0.11,0.22
			c-0.12,0.65-0.22,1.06-0.29,1.23l-0.18,0.58c-0.02,0.07-0.08,0.37-0.18,0.9c-0.02,0.39-0.06,0.61-0.11,0.69
			c-0.02,0.02-0.07,0.24-0.14,0.65c-0.12,0.6-0.24,1.17-0.36,1.7l-0.07,0.33h0.04l0.07-0.04h0.04l1.23-0.04l0.65,0.07l0.14-0.07
			c0.05-0.02,0.14-0.04,0.29-0.04h0.07c0.02,0.02,0.06,0.04,0.11,0.04h0.04h0.11h0.22l0.07,0.04v0.04c0.05-0.05,0.13-0.06,0.25-0.04
			l0.32,0.04l0.33-0.04h0.07h0.07h0.04H67.43z"/>
		<path class="st0" d="M85.02,29.22c0,0-0.02,0.02-0.07,0.07c-0.05,0.05-0.08,0.07-0.11,0.07h-0.04h-0.04v0.04H84.7
			c-0.14,0.05-0.55,0.07-1.23,0.07h-0.04h-0.07h-0.11l-0.07,0.04h-0.04h-0.11l-0.07-0.04c-0.1,0-0.17-0.01-0.22-0.04h-0.18
			c-0.05,0-0.08-0.01-0.11-0.04h-0.11h-0.14h-0.22l-0.14,0.04c-0.1,0-0.18,0.01-0.25,0.04c-0.07,0.02-0.17,0.04-0.29,0.04h-0.29
			h-0.33h-0.04h-0.07c-0.02,0.02-0.05,0.02-0.07,0h-0.07h-0.14v0.04l-0.07-0.04h-0.29v0.04l-0.11-0.04l-0.94,0.04H78.7h-0.11
			l-0.04,0.04h-0.04l-0.04-0.04h-0.4c-0.02,0.07-0.05,0.11-0.07,0.11l-0.47-0.07c-0.34-0.07-0.57-0.16-0.69-0.25
			c-0.1-0.02-0.17-0.14-0.22-0.36l-0.14-0.29l0.04-0.11c0-0.05-0.01-0.07-0.04-0.07h-0.04v-0.07v-0.11h-0.04v-0.11v-0.07
			c-0.1-0.6-0.17-2.07-0.22-4.41l-0.07-0.07c0-0.12,0.01-0.22,0.04-0.29v-0.25c-0.05-0.14-0.07-0.3-0.07-0.47
			c0-0.1,0.01-0.18,0.04-0.25c0.02-0.07,0.04-0.16,0.04-0.25c0-0.43,0.02-0.84,0.07-1.23l0.04-0.29V20.3
			c0.02-0.07,0.04-0.19,0.04-0.36c0-0.24-0.01-0.42-0.04-0.54l-0.04-0.65c-0.05-0.24-0.07-0.77-0.07-1.59l-0.04-0.4l0.04-0.54v-0.83
			v-0.18c-0.02-0.05-0.04-0.11-0.04-0.18l0.04-0.22v-0.14v-0.22v-0.18l-0.04-0.11c0-0.05,0.01-0.08,0.04-0.11v-0.07
			c0.02-0.17,0.04-0.47,0.04-0.9h-0.04h-0.04l0.07-0.25c0.02-0.36,0-1.32-0.07-2.89V9.43v-0.4L76.1,8.92V8.78l0.04-0.11l0.07-1.77
			V6.43c0-0.24,0.01-0.4,0.04-0.47c0-0.17,0.01-0.32,0.04-0.47c0-0.24,0.01-0.41,0.04-0.51c0-0.14,0.01-0.23,0.04-0.25V4.62V4.52
			h0.04V4.44V4.34l0.04-0.04l0.04-0.07l0.07-0.14c0-0.05,0.02-0.1,0.07-0.14c0.02,0,0.04-0.01,0.04-0.04V3.87
			c0.05-0.05,0.14-0.08,0.29-0.11c0.14-0.02,0.27-0.02,0.36,0c0,0.05,0.05,0.08,0.14,0.11c0.07,0.02,0.13,0.08,0.18,0.18
			c0,0.05,0.02,0.05,0.07,0h0.04l0.11,0.22c0.26,0.27,0.45,0.46,0.54,0.58l0.14,0.29c0.1,0.51,0.14,1.48,0.14,2.93
			c-0.02,0.31-0.04,0.65-0.04,1.01c0,0.19,0.01,0.36,0.04,0.51v0.51c0.02,0.14,0.04,0.55,0.04,1.23c0,0.67,0.01,1.08,0.04,1.23v0.14
			v0.14c0,0.07,0.01,0.12,0.04,0.14v0.11c0.02,0.22,0.04,0.59,0.04,1.12v1.41c0,0.58,0.01,0.93,0.04,1.05l-0.14,1.73
			c0,0.07,0.01,0.12,0.04,0.14l0.11,0.33c0.05,0.27,0.06,0.53,0.04,0.79c0,0.12-0.01,0.19-0.04,0.22c-0.05,0.05-0.07,0.12-0.07,0.22
			l0.04,0.07v0.43v0.54l-0.07,0.25h-0.07c0.07,0.07,0.11,0.21,0.11,0.4l-0.04,0.9c-0.05,0.55-0.06,0.97-0.04,1.26v0.14v0.22
			c0,0.05,0.01,0.08,0.04,0.11v0.14v0.22L78.7,25v0.25c0,0.29,0.01,0.51,0.04,0.65l0.04,0.14c0,0.12,0.04,0.25,0.11,0.4l0.04,0.18
			c0.05,0.24,0.01,0.75-0.11,1.52v0.04h0.07c0.14,0,0.28-0.01,0.4-0.04h0.4h0.07h0.04h0.07V28.1c0.07-0.02,0.2-0.04,0.4-0.04
			c0.19,0,0.35-0.01,0.47-0.04h0.36l0.61,0.04l0.07-0.04l0.07-0.04c0.05-0.02,0.13-0.04,0.25-0.04c0.02,0.02,0.06,0.04,0.11,0.04
			c0,0.02,0.01,0.04,0.04,0.04l0.04-0.04h0.18h0.14l0.11,0.04v0.04c0.05-0.05,0.13-0.06,0.25-0.04l0.29,0.04l0.29-0.04l0.07,0.04
			h0.04h0.04l0.07-0.04l0.07,0.04h0.04c0.12,0,0.22-0.01,0.29-0.04h0.04h0.07l0.07-0.04l0.04-0.04h0.11l0.33,0.07
			c0.14,0.02,0.22,0.06,0.22,0.11l0.07,0.04c0.05,0.02,0.05,0.1,0,0.22l0.04,0.04l0.07,0.07c-0.02,0.02-0.04,0.08-0.04,0.18
			c0,0.05-0.01,0.13-0.04,0.23c-0.02,0.11-0.06,0.2-0.11,0.27C85.02,29.21,85.02,29.22,85.02,29.22z"/>
		<path class="st0" d="M98.1,29.22c0,0-0.02,0.02-0.07,0.07c-0.05,0.05-0.08,0.07-0.11,0.07h-0.04h-0.04v0.04h-0.07
			c-0.14,0.05-0.55,0.07-1.23,0.07h-0.04h-0.07h-0.11l-0.07,0.04h-0.04h-0.11l-0.07-0.04c-0.1,0-0.17-0.01-0.22-0.04h-0.18
			c-0.05,0-0.08-0.01-0.11-0.04h-0.11h-0.14h-0.22l-0.14,0.04c-0.1,0-0.18,0.01-0.25,0.04c-0.07,0.02-0.17,0.04-0.29,0.04h-0.29
			h-0.33h-0.04h-0.07c-0.02,0.02-0.05,0.02-0.07,0h-0.07h-0.14v0.04l-0.07-0.04h-0.29v0.04l-0.11-0.04l-0.94,0.04h-0.18h-0.11
			l-0.04,0.04H91.6l-0.04-0.04h-0.4c-0.02,0.07-0.05,0.11-0.07,0.11l-0.47-0.07c-0.34-0.07-0.57-0.16-0.69-0.25
			c-0.1-0.02-0.17-0.14-0.22-0.36l-0.14-0.29l0.04-0.11c0-0.05-0.01-0.07-0.04-0.07h-0.04v-0.07v-0.11H89.5v-0.11v-0.07
			c-0.1-0.6-0.17-2.07-0.22-4.41l-0.07-0.07c0-0.12,0.01-0.22,0.04-0.29v-0.25c-0.05-0.14-0.07-0.3-0.07-0.47
			c0-0.1,0.01-0.18,0.04-0.25c0.02-0.07,0.04-0.16,0.04-0.25c0-0.43,0.02-0.84,0.07-1.23l0.04-0.29V20.3
			c0.02-0.07,0.04-0.19,0.04-0.36c0-0.24-0.01-0.42-0.04-0.54l-0.04-0.65c-0.05-0.24-0.07-0.77-0.07-1.59l-0.04-0.4l0.04-0.54v-0.83
			v-0.18c-0.02-0.05-0.04-0.11-0.04-0.18l0.04-0.22v-0.14v-0.22v-0.18l-0.04-0.11c0-0.05,0.01-0.08,0.04-0.11v-0.07
			c0.02-0.17,0.04-0.47,0.04-0.9h-0.04h-0.04l0.07-0.25c0.02-0.36,0-1.32-0.07-2.89V9.43v-0.4l-0.04-0.11V8.78l0.04-0.11l0.07-1.77
			V6.43c0-0.24,0.01-0.4,0.04-0.47c0-0.17,0.01-0.32,0.04-0.47c0-0.24,0.01-0.41,0.04-0.51c0-0.14,0.01-0.23,0.04-0.25V4.62V4.52
			h0.04V4.44V4.34L89.5,4.3l0.04-0.07l0.07-0.14c0-0.05,0.02-0.1,0.07-0.14c0.02,0,0.04-0.01,0.04-0.04V3.87
			c0.05-0.05,0.14-0.08,0.29-0.11c0.14-0.02,0.27-0.02,0.36,0c0,0.05,0.05,0.08,0.14,0.11c0.07,0.02,0.13,0.08,0.18,0.18
			c0,0.05,0.02,0.05,0.07,0h0.04l0.11,0.22c0.26,0.27,0.45,0.46,0.54,0.58l0.14,0.29c0.1,0.51,0.14,1.48,0.14,2.93
			c-0.02,0.31-0.04,0.65-0.04,1.01c0,0.19,0.01,0.36,0.04,0.51v0.51c0.02,0.14,0.04,0.55,0.04,1.23c0,0.67,0.01,1.08,0.04,1.23v0.14
			v0.14c0,0.07,0.01,0.12,0.04,0.14v0.11c0.02,0.22,0.04,0.59,0.04,1.12v1.41c0,0.58,0.01,0.93,0.04,1.05l-0.14,1.73
			c0,0.07,0.01,0.12,0.04,0.14l0.11,0.33c0.05,0.27,0.06,0.53,0.04,0.79c0,0.12-0.01,0.19-0.04,0.22c-0.05,0.05-0.07,0.12-0.07,0.22
			l0.04,0.07v0.43v0.54l-0.07,0.25h-0.07c0.07,0.07,0.11,0.21,0.11,0.4l-0.04,0.9c-0.05,0.55-0.06,0.97-0.04,1.26v0.14v0.22
			c0,0.05,0.01,0.08,0.04,0.11v0.14v0.22L91.78,25v0.25c0,0.29,0.01,0.51,0.04,0.65l0.04,0.14c0,0.12,0.04,0.25,0.11,0.4l0.04,0.18
			c0.05,0.24,0.01,0.75-0.11,1.52v0.04h0.07c0.14,0,0.28-0.01,0.4-0.04h0.4h0.07h0.04h0.07V28.1c0.07-0.02,0.2-0.04,0.4-0.04
			c0.19,0,0.35-0.01,0.47-0.04h0.36l0.61,0.04l0.07-0.04l0.07-0.04c0.05-0.02,0.13-0.04,0.25-0.04c0.02,0.02,0.06,0.04,0.11,0.04
			c0,0.02,0.01,0.04,0.04,0.04l0.04-0.04h0.18h0.14l0.11,0.04v0.04c0.05-0.05,0.13-0.06,0.25-0.04l0.29,0.04l0.29-0.04l0.07,0.04
			h0.04h0.04l0.07-0.04l0.07,0.04h0.04c0.12,0,0.22-0.01,0.29-0.04h0.04h0.07l0.07-0.04l0.04-0.04h0.11l0.32,0.07
			c0.14,0.02,0.22,0.06,0.22,0.11l0.07,0.04c0.05,0.02,0.05,0.1,0,0.22l0.04,0.04l0.07,0.07c-0.03,0.02-0.04,0.08-0.04,0.18
			c0,0.05-0.01,0.13-0.04,0.23c-0.03,0.11-0.06,0.2-0.11,0.27C98.1,29.21,98.1,29.22,98.1,29.22z"/>
		<path class="st0" d="M109.84,17.01c0,0-0.02,0.02-0.07,0.07l-0.07,0.07h-0.04v0.04h-0.04c0,0.02-0.01,0.04-0.04,0.04l-0.04-0.04
			c-0.17,0.1-0.53,0.16-1.08,0.18v0.04h-0.07h-0.07h-0.07h-0.04h-0.07h-0.07c-0.07,0-0.12-0.01-0.14-0.04h-0.14h-0.11l-0.04-0.04
			l-0.22,0.04l-0.14,0.04h-0.18c-0.07,0.02-0.16,0.04-0.25,0.04h-0.22h-0.18h-0.04l-0.04,0.04l-0.07-0.04h-0.04h-0.11h-0.04h-0.04
			h-0.22l-0.07-0.04h-0.69H105h-0.11l-0.04,0.04l-0.07-0.04c-0.07,0-0.13-0.01-0.18-0.04v0.14c0.05,0.07,0.01,0.65-0.11,1.73
			l0.07,0.36l0.04,0.07c0.05,0.26,0.06,0.53,0.04,0.79c0,0.1-0.01,0.16-0.04,0.18c-0.05,0.05-0.07,0.12-0.07,0.22l0.07,0.11v0.4
			c-0.02,0.12-0.04,0.29-0.04,0.51l-0.04,0.25h-0.11c0.07,0.07,0.11,0.21,0.11,0.4l-0.04,0.83c-0.05,0.53-0.06,0.92-0.04,1.16v0.18
			v0.14c0,0.05,0.01,0.08,0.04,0.11v0.14v0.18l-0.04,0.22v0.22c0,0.26,0.01,0.46,0.04,0.58c0,0.07,0.01,0.12,0.04,0.14v0.18
			l0.07,0.18l0.07,0.14c0.02,0.24-0.01,0.69-0.11,1.34c-0.02,0-0.04,0.01-0.04,0.04h0.14h0.11h0.4h0.4h0.07h0.04h0.04h0.04
			c0.05-0.02,0.24-0.04,0.58-0.04l0.54,0.04l0.51,0.07l0.07-0.04l0.07-0.04c0.02-0.02,0.11-0.04,0.25-0.04l0.07,0.04
			c0,0.02,0.01,0.04,0.04,0.04l0.04-0.04h0.14h0.14l0.07,0.04v0.07c0.05-0.07,0.12-0.1,0.22-0.07c0.24,0.05,0.42,0.06,0.54,0.04
			h0.04h0.07l0.04-0.04h0.04h0.07l0.07,0.04c0.05,0.02,0.13,0.01,0.25-0.04h0.07l0.07-0.04l0.04-0.04h0.04h0.07
			c0.12,0,0.25,0.02,0.4,0.05s0.24,0.07,0.29,0.09l0.07,0.04c0.02,0.02,0.04,0.1,0.04,0.22l0.07,0.04l0.04,0.07
			c-0.02,0.02-0.04,0.1-0.04,0.22c0,0.12-0.02,0.28-0.07,0.47c0,0.02-0.02,0.06-0.07,0.11l-0.14,0.11h-0.04h-0.04h-0.04v0.04h-0.07
			c-0.14,0.05-0.59,0.1-1.34,0.14l-0.04,0.04l-0.04-0.04h-0.11h-0.07l-0.07,0.04l-0.07-0.04h-0.07c-0.07,0-0.13-0.01-0.18-0.04
			h-0.18l-0.07-0.04h-0.11h-0.29l-0.18,0.04h-0.22c-0.07,0.02-0.17,0.04-0.29,0.04h-0.29h-0.25h-0.04h-0.07h-0.07h-0.04
			c-0.05-0.05-0.1-0.05-0.14,0h-0.04l-0.04-0.04h-0.29v0.04l-0.07-0.04c-0.07-0.02-0.4-0.04-0.98-0.04h-0.14h-0.18l-0.04,0.04
			l-0.04-0.04h-0.04l-0.65-0.11l-0.14-0.04h-0.18l-0.36-0.07c-0.07,0-0.11-0.01-0.11-0.04h-0.04h-0.04v-0.04h-0.04h-0.04
			c-0.02,0-0.04-0.01-0.04-0.04v-0.04c-0.07-0.05-0.11-0.08-0.11-0.11h-0.04c-0.02-0.02-0.04-0.11-0.04-0.25
			c0-0.02-0.02-0.08-0.07-0.18c-0.02-0.07-0.06-0.13-0.11-0.18v-0.07v-0.07h-0.04V28.5v-0.07h-0.04c-0.05,0-0.05-0.02,0-0.07v-0.11
			c-0.1-0.55-0.17-1.85-0.22-3.9l-0.07-0.07c0-0.1,0.01-0.18,0.04-0.25v-0.25v-0.22c-0.02-0.05-0.04-0.12-0.04-0.22
			c0-0.1,0.01-0.18,0.04-0.25v-0.22l0.07-1.16c0-0.12,0.01-0.23,0.04-0.33c0.02-0.07,0.04-0.17,0.04-0.29c0-0.31-0.01-0.6-0.04-0.87
			L102,19.54v-0.65c-0.02-0.26-0.04-0.57-0.04-0.9c0-0.36,0.01-0.67,0.04-0.94v-0.79v-0.22c-0.02-0.02-0.04-0.07-0.04-0.14
			c0-0.1,0.01-0.17,0.04-0.22v-0.14v-0.25V15.1c-0.02-0.02-0.04-0.06-0.04-0.11c0-0.05,0.01-0.08,0.04-0.11v-0.07
			c0.02-0.22,0.04-0.52,0.04-0.9H102l0.04-0.25c0.02-0.19,0.04-0.76,0.04-1.7v-1.23v-0.51V9.79l-0.04-0.11
			c0-0.07,0.01-0.13,0.04-0.18V9.39l0.14-1.77c0-0.38,0.02-0.7,0.07-0.94c0-0.17,0.01-0.31,0.04-0.43l0.07-0.51
			c0-0.17,0.01-0.26,0.04-0.29c-0.05-0.05-0.07-0.08-0.07-0.11h-0.04c-0.05-0.22-0.05-0.35,0-0.4l0.04-0.07l0.07-0.11V4.73h0.04
			l0.04-0.07c0.1-0.1,0.16-0.19,0.18-0.29l0.07-0.07h0.54c0.14,0,0.26,0.01,0.36,0.04c0.1,0.02,0.2,0.04,0.32,0.04
			c0.07,0,0.13-0.01,0.18-0.04h0.14l0.47,0.04h0.36h0.07h0.04h0.04l0.04-0.04h0.69h0.61l0.61,0.07c0.05,0,0.08-0.01,0.11-0.04
			l0.07-0.04c0.05-0.02,0.14-0.04,0.29-0.04c0.05,0,0.08,0.01,0.11,0.04c0,0.02,0.02,0.04,0.07,0.04l0.04-0.04h0.14h0.22l0.07,0.04
			v0.04c0.05-0.05,0.14-0.06,0.29-0.04l0.33,0.04l0.36-0.04h0.07h0.07h0.04h0.04h0.11h0.07c0.1,0.02,0.21,0.02,0.33,0h0.07
			l0.07-0.04l0.07-0.04l0.04-0.04h0.07c0.14,0,0.29,0.02,0.45,0.05c0.16,0.04,0.27,0.07,0.34,0.09l0.07,0.04
			c0.02,0,0.04,0.06,0.04,0.18l0.07,0.04l0.07,0.07c-0.02,0.02-0.04,0.12-0.04,0.29l-0.07,0.4c-0.12,0.12-0.21,0.18-0.25,0.18h-0.04
			v0.04h-0.04h-0.04v0.04h-0.04h-0.04c-0.17,0.05-0.71,0.1-1.63,0.14l-0.04,0.04l-0.07-0.04c-0.05,0-0.08,0.01-0.11,0.04h-0.07
			h-0.11h-0.11c-0.05,0-0.07-0.01-0.07-0.04h-0.25h-0.22c-0.02-0.02-0.06-0.04-0.11-0.04h-0.14h-0.33l-0.25,0.04h-0.25
			c-0.1,0.02-0.22,0.04-0.36,0.04h-0.32h-0.33h-0.04h-0.07h-0.07h-0.07c-0.05-0.05-0.1-0.05-0.14,0h-0.04
			c-0.02,0-0.04-0.01-0.04-0.04h-0.04h-0.33v0.04l-0.07-0.04c-0.12-0.02-0.35-0.04-0.69-0.04c0.02,0.02,0.04,0.07,0.04,0.14
			c0.05,0.34,0.07,0.95,0.07,1.84c0,0.43-0.01,0.81-0.04,1.12c-0.02,0.31-0.04,0.65-0.04,1.01l-0.04,0.25l0.04,0.29v0.51v1.34
			l-0.04,0.79c0,0.1,0.01,0.17,0.02,0.22c0.01,0.05,0.02,0.08,0.02,0.11v0.14v0.14c0,0.07,0.01,0.12,0.04,0.14v0.14
			c0.02,0.29,0.04,0.96,0.04,2.02h0.14c0.05,0.02,0.11,0.04,0.18,0.04h0.14h0.11h0.29c0.17,0.02,0.25,0.02,0.25,0h0.07h0.04h0.04
			c0.07-0.02,0.22-0.04,0.43-0.04h0.4l0.4,0.07l0.07-0.04l0.04-0.04c0.02-0.02,0.08-0.04,0.18-0.04l0.07,0.04
			c0,0.02,0.01,0.04,0.04,0.04l0.04-0.04h0.11h0.11l0.07,0.04v0.04c0.05-0.05,0.11-0.06,0.18-0.04c0.14,0.02,0.29,0.02,0.43,0h0.07
			h0.04l0.04-0.04h0.04h0.04l0.04,0.04c0.1,0,0.18-0.01,0.25-0.04l0.14-0.07v-0.04h0.07c0.12,0,0.23,0.01,0.33,0.04l0.22,0.07
			l0.07,0.07v0.18l0.07,0.04v0.04h0.04l-0.07,0.65C109.84,17,109.84,17.01,109.84,17.01z"/>
		<path class="st0" d="M124.14,29.55L124,29.51v-0.04v-0.04h-0.04c-0.02,0-0.02-0.01,0-0.04h-0.04h-0.04v-0.04v-0.04
			c-0.14-0.19-0.24-0.75-0.29-1.66l-0.07-0.04l0.04-0.14v-0.11c-0.05-0.05-0.07-0.12-0.07-0.22c0-0.05,0.01-0.08,0.04-0.11
			c0.02-0.02,0.04-0.07,0.04-0.14c0-0.14,0.01-0.25,0.04-0.33v-0.25c0-0.07,0.01-0.13,0.04-0.18v-0.14l-0.11-0.83l-0.07-0.43
			l-0.11-0.43c-0.02-0.17-0.05-0.34-0.07-0.52c-0.02-0.18-0.05-0.32-0.07-0.42l-0.04-0.07c-0.02-0.02-0.04-0.06-0.04-0.11v-0.11
			v-0.07c0-0.05-0.02-0.12-0.07-0.22c0-0.02-0.01-0.04-0.04-0.04l0.04-0.07v-0.04l-0.11-0.43h-0.04v-0.14
			c-0.07-0.36-0.27-0.79-0.58-1.3l-0.07-0.14c-0.02-0.12-0.07-0.2-0.14-0.25h-0.04l-0.04-0.07v-0.07c-0.12-0.12-0.29-0.37-0.51-0.76
			l-0.18-0.22c-0.1-0.07-0.14-0.12-0.14-0.14l-0.29-0.25l-0.25-0.25h-0.04l-0.04-0.04v-0.04h-0.04l-0.07-0.07v-0.04l-0.04-0.04
			l-0.11-0.14l-0.04-0.04c-0.02-0.02-0.02-0.08,0-0.18c-0.87,0.27-1.43,0.4-1.7,0.4c-0.1,0.02-0.22,0.04-0.36,0.04
			c-0.07-0.05-0.11-0.08-0.11-0.11h-0.04c0,0.31-0.04,0.72-0.11,1.23l0.11,0.43l0.04,0.11c0.05,0.34,0.06,0.65,0.04,0.94
			c0,0.12-0.01,0.19-0.04,0.22c-0.05,0.1-0.07,0.19-0.07,0.29l0.04,0.07v0.47v0.61l-0.07,0.29h-0.11c0.1,0.14,0.13,0.43,0.11,0.87
			c-0.07,0.65-0.1,1.23-0.07,1.73v0.14v0.18l0.04,0.07v0.14c0,0.12-0.02,0.25-0.07,0.4c0,0.31,0.01,0.55,0.04,0.72
			c0,0.05,0.01,0.08,0.04,0.11c0,0.07,0.04,0.17,0.11,0.29l0.04,0.14v0.18c0,0.24-0.05,0.49-0.14,0.76
			c-0.07,0.26-0.12,0.41-0.14,0.43l-0.11,0.11c-0.02,0.02-0.13,0.04-0.33,0.04l-0.11,0.07c-0.05,0.05-0.08,0.07-0.11,0.07
			l-1.16-0.18c-0.05,0-0.11-0.05-0.18-0.14l-0.14-0.14v-0.07V28.9h-0.04v-0.04v-0.07l-0.04,0.04c-0.02-0.02-0.02-0.05,0-0.07v-0.04
			c-0.12-0.43-0.18-1.54-0.18-3.32l-0.04-0.11c-0.05-0.05-0.05-0.13,0-0.25v-0.25v-0.22l-0.04-0.22l0.07-0.54
			c0-0.53,0.02-0.96,0.07-1.3l0.04-0.36v-0.33c0.02-0.1,0.04-0.25,0.04-0.47c0-0.26-0.01-0.47-0.04-0.61l-0.04-0.76l-0.04-0.87
			c-0.02-0.31-0.04-0.66-0.04-1.05c0-0.43,0.01-0.81,0.04-1.12v-1.01c0-0.1-0.01-0.17-0.04-0.22c-0.02-0.05-0.04-0.12-0.04-0.22
			c0-0.1,0.01-0.18,0.04-0.25l0.04-0.18v-0.29c-0.02-0.07-0.04-0.16-0.04-0.25v-0.11c0-0.05,0.01-0.08,0.04-0.11v-0.07v-1.08h-0.04
			l0.04-0.29c0.02-0.48,0-1.55-0.07-3.21c0-0.19,0.01-0.37,0.04-0.54c0-0.24-0.01-0.37-0.04-0.4L115.4,8.6
			c0-0.07,0.01-0.12,0.04-0.14V8.35c0-0.22,0.02-0.76,0.07-1.63V6.36v-0.4c0.02-0.05,0.04-0.16,0.04-0.32c0-0.19,0.01-0.33,0.04-0.4
			c0-0.1,0.01-0.16,0.04-0.18V5.02V4.91l0.04,0.04V4.88V4.81l0.04-0.04l0.07-0.04c0-0.1,0.04-0.16,0.11-0.18
			c0.02,0,0.04-0.01,0.04-0.04V4.48c0.1-0.02,0.21-0.05,0.34-0.07c0.13-0.02,0.24-0.02,0.31,0l0.14,0.04h0.04l0.22-0.11
			c0.77-0.24,1.48-0.36,2.13-0.36c0.26,0,0.73,0.05,1.41,0.14l0.87,0.22c0.6,0.24,1.24,0.61,1.91,1.12c0.02,0,0.06,0.02,0.11,0.07
			l0.07,0.07l0.11,0.11l0.11,0.07c0.34,0.36,0.67,0.84,0.99,1.43c0.33,0.59,0.56,1.11,0.71,1.57c0.1,0.31,0.14,0.92,0.14,1.81
			l0.07,0.36l0.04,0.07l0.04,0.33c0,0.1-0.02,0.27-0.07,0.51l-0.07,0.22l-0.11,0.22l0.04,0.11c-0.1,0.41-0.19,0.73-0.29,0.98
			l-0.14,0.22h-0.07v0.07c0,0.14-0.1,0.37-0.29,0.69c-0.39,0.55-0.76,1.05-1.12,1.48l-0.14,0.14c-0.07,0.02-0.11,0.06-0.11,0.11
			c0,0.02-0.02,0.06-0.07,0.11c-0.05,0.05-0.1,0.08-0.14,0.11c-0.12,0.12-0.41,0.33-0.87,0.61c-0.19,0.14-0.29,0.23-0.29,0.25
			c-0.1,0.02-0.21,0.1-0.33,0.22c-0.07,0.02-0.13,0.06-0.18,0.11c-0.05,0.05-0.07,0.08-0.07,0.11c0.1-0.02,0.18-0.02,0.25,0
			c0.41,0.14,0.77,0.31,1.08,0.51c0.31,0.19,0.71,0.53,1.19,1.01c0.29,0.29,0.45,0.46,0.47,0.51l0.87,1.44v0.07l0.07,0.07
			c0,0.05,0.04,0.11,0.11,0.18c0.22,0.48,0.42,1.24,0.61,2.28c0.02,0.02,0.04,0.14,0.04,0.36c0,0.29-0.01,0.54-0.04,0.76l0.07,0.14
			l0.11,0.11c0.05,0.14,0.07,0.3,0.07,0.47c0,0.05-0.01,0.08-0.04,0.11l-0.07,0.14l0.04,0.07l0.04,0.22v0.32l-0.07,0.14h-0.07
			c0.1,0.02,0.12,0.16,0.07,0.4c-0.05,0.39-0.06,0.66-0.04,0.83l0.04,0.07l-0.04,0.07c0,0.02,0.01,0.04,0.04,0.04l0.04,0.07
			l-0.04,0.07c-0.02,0.02-0.04,0.06-0.04,0.11c0,0.1,0.02,0.19,0.07,0.29v0.07c0,0.02,0.01,0.04,0.04,0.04l0.07,0.07l0.07,0.04
			c0.05,0.1,0.02,0.19-0.07,0.29l-0.25,0.07l-0.32,0.11c-0.05,0-0.08,0.01-0.11,0.04l-0.04,0.04h-0.04
			c-0.65,0.24-1.02,0.37-1.12,0.4L124.14,29.55z M117.78,5.28c0.12,0.53,0.18,1.34,0.18,2.42c-0.02,0.34-0.04,0.69-0.04,1.05
			c0,0.36,0.02,0.71,0.07,1.05v1.37c0,0.75,0.01,1.2,0.04,1.37v0.14v0.18c0,0.07,0.01,0.12,0.04,0.14v0.14l0.07,4.3v0.25
			c0.17-0.1,0.28-0.14,0.33-0.14l0.22-0.07l0.07-0.04h0.11c0.02,0,0.02-0.01,0-0.04c0.02,0,0.06,0,0.11-0.02
			c0.05-0.01,0.07-0.03,0.07-0.05c0.05,0,0.08-0.01,0.11-0.04c0.02-0.02,0.06-0.04,0.11-0.04c1.32-0.79,2.3-1.67,2.93-2.64
			l0.04-0.07l0.07-0.22l0.11-0.18c0-0.1,0.04-0.22,0.11-0.36c0-0.05,0.02-0.1,0.05-0.16c0.04-0.06,0.07-0.11,0.09-0.16
			c0.05-0.1,0.14-0.4,0.29-0.9l0.11-0.43c0.05-0.63-0.04-1.41-0.25-2.35c-0.12-0.65-0.22-1.06-0.29-1.23c0-0.05-0.01-0.08-0.04-0.11
			c-0.07-0.07-0.11-0.16-0.11-0.25V8.13c-0.02-0.02-0.04-0.05-0.04-0.09s-0.01-0.07-0.04-0.09l-0.07-0.11l-0.04-0.04
			c-0.02-0.02-0.02-0.05,0-0.07l-0.04-0.07l-0.25-0.51h-0.04l-0.07-0.14c-0.31-0.53-0.74-0.99-1.26-1.37
			c-0.24-0.17-0.41-0.27-0.5-0.29h-0.07l-0.07-0.07l-0.07-0.04c-0.53-0.17-0.94-0.25-1.23-0.25c-0.19,0-0.43,0.04-0.72,0.11
			c-0.07,0-0.12,0.01-0.14,0.04L117.78,5.28z"/>
		<path class="st0" d="M131.08,29.44c0,0-0.03-0.08-0.09-0.23c-0.06-0.16-0.1-0.27-0.13-0.34v-0.07v-0.11h-0.04v-0.07v-0.07h-0.04
			c-0.05,0-0.05-0.02,0-0.07v-0.11c-0.14-0.77-0.23-2.23-0.25-4.37l-0.04-0.11c-0.05-0.05-0.05-0.13,0-0.25v-0.25v-0.22
			c-0.02-0.07-0.04-0.16-0.04-0.25l0.04-0.29V22.4c0.02-0.12,0.04-0.35,0.04-0.69c0-0.26,0.01-0.45,0.04-0.54
			c0-0.12,0.01-0.23,0.04-0.33v-0.33c0-0.34-0.01-0.65-0.04-0.94l-0.04-0.65l-0.04-0.72c-0.02-0.26-0.04-0.57-0.04-0.9v-0.9v-0.9
			v-0.14c-0.02-0.05-0.04-0.11-0.04-0.18l0.04-0.22v-0.14v-0.25c0-0.1-0.01-0.17-0.04-0.22v-0.07c0-0.07,0.01-0.11,0.04-0.11v-0.07
			v-0.9h-0.04l0.04-0.25c0.02-0.36,0-1.34-0.07-2.93c0-0.19,0.01-0.37,0.04-0.54c0-0.22-0.01-0.34-0.04-0.36L130.35,9
			c0-0.07,0.01-0.12,0.04-0.14V8.74c0-0.17,0.02-0.76,0.07-1.77V6.54c0-0.26,0.01-0.43,0.04-0.51c0-0.14,0.01-0.28,0.04-0.4
			c0-0.24,0.01-0.41,0.04-0.51c0-0.17,0.01-0.26,0.04-0.29l-0.04-0.11c0-0.05,0.01-0.07,0.04-0.07h0.04V4.55V4.48l0.04-0.04
			l0.04-0.04c0.02-0.02,0.04-0.05,0.04-0.09s0.01-0.07,0.04-0.09c0-0.02,0.02-0.06,0.07-0.11l0.04-0.07V4.01
			c0.22-0.07,0.41-0.11,0.58-0.11c0.02,0,0.05,0.01,0.07,0.04c0.02,0.02,0.07,0.05,0.14,0.07c0.07,0.02,0.13,0.08,0.18,0.18
			c0,0.02,0.01,0.02,0.04,0h0.07l0.07,0.22c0.17,0.07,0.36,0.25,0.58,0.54l0.14,0.29c0.1,1.44,0.14,2.4,0.14,2.85
			c-0.02,0.34-0.04,0.69-0.04,1.05c0,0.43,0.02,0.77,0.07,1.01c0,0.43,0.01,0.86,0.04,1.26v1.23v0.11v0.18
			c0,0.05,0.01,0.08,0.04,0.11c0.02,0.02,0.04,0.06,0.04,0.11c0,0.48,0.01,0.87,0.04,1.16l0.04,2.46l-0.11,1.81
			c0,0.1,0.02,0.22,0.07,0.36l0.07,0.07c0.02,0.14,0.04,0.42,0.04,0.83c0,0.12-0.01,0.19-0.04,0.22c-0.05,0.05-0.07,0.12-0.07,0.22
			l0.04,0.07v0.47v0.54l-0.07,0.25c-0.02-0.02-0.05-0.02-0.07,0c0.07,0.07,0.11,0.21,0.11,0.4c0,0.39-0.01,0.67-0.04,0.87
			c0,0.14-0.01,0.32-0.02,0.54c-0.01,0.22-0.01,0.47,0.02,0.76v0.18c-0.02,0.1-0.02,0.16,0,0.18c0,0.07,0.01,0.12,0.04,0.14v0.14
			l-0.04,0.22c-0.02,0.05-0.04,0.11-0.04,0.18c0,0.41,0.01,0.72,0.04,0.94c0.02,0.02,0.04,0.06,0.04,0.11c0,0.12,0.04,0.25,0.11,0.4
			c0.05,0.1,0.07,0.16,0.07,0.18c0.02,0.27-0.01,0.77-0.11,1.52c-0.05,0.17-0.08,0.33-0.11,0.47c-0.02,0.14-0.05,0.24-0.07,0.29
			c0,0.02-0.01,0.08-0.02,0.16c-0.01,0.08-0.05,0.14-0.11,0.16c-0.06,0.02-0.15,0.04-0.27,0.04c-0.02,0-0.07,0.06-0.14,0.18
			l-0.07,0.18l-0.47-0.11c-0.29-0.02-0.53-0.1-0.72-0.22C131.11,29.46,131.08,29.44,131.08,29.44z"/>
		<path class="st0" d="M149.1,29.73l-0.11-0.07v-0.04v-0.07h-0.04v0.04c-0.02,0-0.04-0.01-0.04-0.04v-0.07l-0.04,0.04v-0.07
			l-0.04-0.04c-0.17-0.41-0.45-1.44-0.83-3.11l-0.07-0.07c-0.02-0.02-0.04-0.11-0.04-0.25l-0.07-0.25
			c-0.05-0.14-0.07-0.29-0.07-0.43c-0.07-0.22-0.11-0.4-0.11-0.54l-0.14-0.72c0-0.05-0.05-0.25-0.14-0.61l-0.07-0.69
			c-0.02-0.14-0.12-0.49-0.29-1.05c0.02,0.07-0.02-0.11-0.14-0.54c-0.1,0.02-0.3,0.04-0.61,0.04h-0.04c-0.02,0.02-0.06,0.02-0.11,0
			h-0.11h-0.07c-0.02,0.02-0.06,0.04-0.11,0.04l-0.07-0.04h-0.11c-0.1,0-0.18-0.01-0.25-0.04h-0.22c-0.07,0-0.12-0.01-0.14-0.04
			h-0.14h-0.33l-0.25,0.04h-0.29l-0.36,0.04h-0.36h-0.36h-0.07l-0.04,0.04l-0.07-0.04h-0.07c-0.07,0-0.13,0.01-0.18,0.04h-0.04
			h-0.04l-0.04-0.04h-0.33v0.04l-0.11-0.04h-0.4v0.11c-0.02,0.05-0.04,0.12-0.04,0.22v0.07l-0.07,0.11l-0.04,0.07l-0.18,0.83h0.04
			v0.04l-0.11,0.22c-0.14,0.5-0.35,1.37-0.61,2.6l-0.07,0.4l-0.11,0.36v0.11c0,0.1-0.02,0.17-0.07,0.22l-0.43,1.37l-0.07,0.33
			c-0.02,0.17-0.06,0.28-0.11,0.33c-0.07,0.17-0.12,0.28-0.14,0.33l-0.22,0.58v0.07c0,0.02-0.01,0.04-0.04,0.04h-0.04l-0.04,0.04
			v0.07c0,0.05-0.04,0.07-0.11,0.07l-0.07,0.07c-0.05,0.05-0.08,0.07-0.11,0.07v0.04l-0.04,0.04c-0.34,0-0.51-0.04-0.51-0.11
			l-0.11-0.11l-0.14-0.14c0-0.02-0.01-0.04-0.04-0.04s-0.04-0.01-0.04-0.04v-0.07l-0.04-0.07c-0.12-0.12-0.23-0.3-0.33-0.54
			c-0.05-0.1-0.07-0.17-0.07-0.22c0.05-0.6,0.2-1.36,0.47-2.28c0.05-0.14,0.1-0.28,0.14-0.42c0.05-0.13,0.08-0.26,0.11-0.38
			l0.07-0.43l0.07-0.43c0.1-0.26,0.19-0.61,0.29-1.05c0.1-0.43,0.17-0.81,0.22-1.12l0.04-0.14c0.02-0.02,0.04-0.06,0.04-0.11
			c0-0.07,0.01-0.12,0.04-0.14V22l0.18-0.83c-0.17,0-0.25-0.02-0.25-0.07l-0.04,0.04h-0.04c0-0.02-0.01-0.04-0.04-0.04h-0.04
			l-0.04-0.04l-0.07-0.07l-0.04-0.04c-0.1-0.17-0.11-0.26-0.04-0.29c0-0.02,0.01-0.06,0.02-0.11c0.01-0.05,0.03-0.07,0.05-0.07
			c0.02,0,0.04-0.01,0.04-0.04c-0.02,0-0.04-0.01-0.04-0.04h0.04l0.04-0.04l0.07-0.14c0.1-0.14,0.16-0.22,0.18-0.22
			c0.07-0.02,0.2-0.04,0.4-0.04c0.14-0.63,0.26-1.13,0.36-1.5c0.1-0.37,0.26-0.97,0.51-1.79v-0.18v-0.22v-0.11
			c0-0.17,0.06-0.46,0.18-0.87c0.05-0.14,0.08-0.23,0.11-0.25l0.07-0.22v-0.11l0.11-0.47c0-0.1,0.02-0.2,0.05-0.33
			c0.04-0.12,0.05-0.2,0.05-0.25l0.11-0.29c0.02,0.02,0.06,0.04,0.11,0.04v-0.14c0-0.17,0.04-0.43,0.11-0.79
			c0.24-0.84,0.4-1.52,0.47-2.02l0.11-0.4V9.93c0-0.12,0.02-0.27,0.07-0.43l0.07-0.25c0.1-0.31,0.17-0.66,0.22-1.05l0.04-0.22V7.77
			c0.02-0.07,0.02-0.16,0-0.25c-0.02-0.12-0.02-0.19,0-0.22c0.05-0.48,0.2-1.08,0.47-1.81c0.14-0.51,0.24-0.82,0.29-0.94
			c0.12-0.17,0.18-0.26,0.18-0.29c0.02-0.07,0.12-0.08,0.29-0.04l-0.04-0.07l0.04-0.04l0.04-0.07l0.07-0.25V3.76l0.04-0.04
			c0.05-0.02,0.12-0.05,0.22-0.09c0.1-0.04,0.17-0.05,0.22-0.05c0.14,0,0.24,0.06,0.29,0.18l0.04-0.04c0.02,0,0.06,0.02,0.11,0.07
			l0.04,0.07l0.25,0.18c0.19,0.17,0.34,0.32,0.43,0.47c0.34,1.32,0.54,2.26,0.61,2.82c0.07,0.48,0.14,0.86,0.22,1.12l0.14,0.61
			l0.14,0.54c0.07,0.39,0.17,0.87,0.29,1.46c0.12,0.59,0.23,1.09,0.33,1.5l0.07,0.14c0,0.1,0.02,0.22,0.07,0.36l0.07,0.14l0.61,2.56
			c0.17,0.96,0.31,1.61,0.43,1.95c0.02,0.1,0.06,0.31,0.11,0.65c0.05,0.34,0.13,0.87,0.25,1.59l0.11,0.14l0.11,0.25v0.11
			c0.1,0.17,0.18,0.48,0.25,0.94c0.02,0.07,0.04,0.16,0.04,0.25c-0.05,0.07-0.05,0.17,0,0.29l0.07,0.07l0.11,0.47l0.11,0.61
			l0.04,0.32h-0.07c0.1,0.1,0.18,0.37,0.25,0.83c0.12,0.75,0.24,1.33,0.36,1.73c0,0.05,0.01,0.1,0.02,0.16
			c0.01,0.06,0.03,0.1,0.05,0.13c0,0.05,0.01,0.08,0.04,0.11c0.05,0.1,0.07,0.21,0.07,0.33c0,0.1,0.01,0.16,0.04,0.18
			c0.05,0.29,0.1,0.52,0.14,0.69c0,0.02,0.01,0.07,0.04,0.13c0.02,0.06,0.05,0.1,0.07,0.13c0,0.02,0.02,0.06,0.07,0.11
			c0.05,0.05,0.07,0.08,0.07,0.11c0.12,0.19,0.16,0.49,0.11,0.9c0,0.24-0.01,0.37-0.04,0.4c-0.02,0.02-0.04,0.06-0.04,0.11
			c0,0.05-0.08,0.08-0.25,0.11l-0.04,0.07l-0.07,0.07l-0.36,0.07c-0.26,0.05-0.46,0.06-0.58,0.04L149.1,29.73z M146.32,19.15
			l-0.25-0.83c0-0.1-0.13-0.77-0.4-2.02l-0.07-0.22c-0.02-0.02-0.04-0.05-0.04-0.09c0-0.04-0.01-0.05-0.04-0.05
			c-0.02-0.07-0.04-0.17-0.04-0.29c0-0.07-0.01-0.12-0.04-0.14l-0.11-0.47l-0.04-0.29V14.7l-0.22-1.05v0.04h-0.04l-0.04-0.33
			c-0.1-0.6-0.33-1.65-0.69-3.14l-0.11-0.61l-0.4,1.84v0.11c0,0.07-0.04,0.25-0.11,0.54c0,0.02,0.01,0.05,0.02,0.09
			c0.01,0.04,0.01,0.08-0.02,0.13c-0.02,0.07-0.04,0.16-0.04,0.25c-0.02,0.12-0.06,0.23-0.11,0.33c-0.05,0.1-0.08,0.17-0.11,0.22
			c-0.12,0.65-0.22,1.06-0.29,1.23L143,14.92c-0.02,0.07-0.08,0.37-0.18,0.9c-0.02,0.39-0.06,0.61-0.11,0.69
			c-0.02,0.02-0.07,0.24-0.14,0.65c-0.12,0.6-0.24,1.17-0.36,1.7l-0.07,0.33h0.04l0.07-0.04h0.04l1.23-0.04l0.65,0.07l0.14-0.07
			c0.05-0.02,0.14-0.04,0.29-0.04h0.07c0.02,0.02,0.06,0.04,0.11,0.04h0.04h0.11h0.22l0.07,0.04v0.04c0.05-0.05,0.13-0.06,0.25-0.04
			l0.33,0.04l0.33-0.04h0.07h0.07h0.04H146.32z"/>
		<path class="st0" d="M155.06,26.55c0,0,0.01,0,0.04,0h0.04v-0.04h0.04h0.04h0.07v-0.04l0.04,0.04v-0.04h0.04h0.04
			c0.26-0.02,0.5,0.08,0.7,0.31c0.2,0.23,0.34,0.48,0.42,0.74l0.04,0.07v0.04v0.07v0.11c0.02,0.02,0.04,0.07,0.04,0.14l0.04,0.04
			v0.07v0.11l0.04,0.04v0.07v0.11l-0.04,0.07l-0.07,0.4l-0.07,0.07l-0.07,0.07c-0.1,0.24-0.17,0.39-0.22,0.45
			c-0.05,0.06-0.13,0.13-0.25,0.2l-0.36,0.07h-0.04h-0.04h-0.07l-0.07,0.04h-0.04h-0.04h-0.14v0.04h-0.25
			c-0.07,0.14-0.13,0.22-0.18,0.24c-0.05,0.01-0.08,0.02-0.11,0.02l-0.07,0.04h-0.04h-0.04v0.04v-0.04v0.04
			c-0.02,0-0.04-0.01-0.04-0.04c-0.12,0-0.29-0.12-0.51-0.36l-0.04-0.04h-0.04c-0.12-0.02-0.24-0.1-0.36-0.22l-0.04,0.04l-0.11-0.14
			c-0.24-0.65-0.35-1.17-0.33-1.55l0.14-0.47l-0.04-0.07l0.14-0.11l0.25-0.14l0.04-0.04l0.07-0.14l0.04-0.07
			c0.05-0.05,0.08-0.07,0.11-0.07h0.04v-0.04h0.04h0.07h0.11h0.04l0.36,0.07v-0.04h0.04v0.04v-0.04h0.04h0.04
			c0.02-0.02,0.04-0.03,0.05-0.02c0.01,0.01,0.02,0.03,0.02,0.05h0.04l0.04,0.04c0.14-0.05,0.23-0.06,0.25-0.04h0.04v-0.07
			C155.02,26.59,155.06,26.55,155.06,26.55z"/>
		<path class="st0" d="M173.05,3.94c0.07,0.12,0.12,0.18,0.14,0.18v0.07l-0.04,0.04c0,0.02,0.01,0.04,0.04,0.04h0.04l-0.04,0.04
			c0,0.05,0.01,0.07,0.04,0.07h0.04v0.07v0.04c0.05,0.34,0.1,1.59,0.14,3.76l0.04,0.11V8.6v0.29l0.04,0.22v0.25v0.29l-0.04,0.29
			l-0.07,1.41v0.32c-0.02,0.12-0.04,0.25-0.04,0.4c0,0.24,0.01,0.43,0.04,0.58l0.04,1.34c0.02,0.19,0.05,0.48,0.07,0.87
			c0.02,0.39,0.04,0.75,0.04,1.08v1.08c0,0.55,0.01,0.92,0.04,1.08c0,0.07,0.01,0.13,0.04,0.18v0.22v0.25l-0.04,0.18v0.29
			c0,0.12,0.01,0.19,0.04,0.22v0.14v0.11c-0.02,0.02-0.04,0.06-0.04,0.11v1.05h0.07l-0.07,0.29c-0.02,0.36,0,1.41,0.07,3.14v0.51
			v0.36l0.07,0.11c0,0.12-0.02,0.21-0.07,0.25c0,0.24-0.02,0.75-0.07,1.52c0,0.27-0.02,0.49-0.07,0.69l-0.04,0.61l-0.11,0.22v0.04
			v0.07h-0.04v0.07v0.04l-0.04,0.04h-0.07l-0.04,0.07c-0.05,0.05-0.08,0.07-0.11,0.07l-0.04,0.07c-0.1,0.02-0.21,0.04-0.33,0.05
			c-0.12,0.01-0.22,0.01-0.29-0.02l-0.14-0.07l-0.22-0.11H172h-0.04c-0.02,0-0.04-0.01-0.04-0.04l-0.07-0.07
			c-0.19-0.07-0.37-0.19-0.54-0.36c-0.07-0.05-0.11-0.1-0.11-0.14c-0.05-0.29-0.07-0.63-0.07-1.01c-0.07-0.12-0.46-0.93-1.16-2.42
			l-0.07-0.07c-0.02-0.05-0.06-0.11-0.11-0.2c-0.05-0.08-0.08-0.17-0.11-0.27c-0.1-0.1-0.17-0.22-0.22-0.36
			c-0.02-0.02-0.04-0.06-0.04-0.11c0-0.05-0.01-0.1-0.04-0.14c-0.05-0.14-0.08-0.23-0.11-0.25c-0.19-0.5-0.37-0.91-0.54-1.23
			c-0.02-0.02-0.06-0.12-0.11-0.29c0-0.05-0.05-0.16-0.14-0.33l-0.47-0.94l-0.36-0.69c-0.07-0.17-0.19-0.42-0.36-0.74
			c-0.17-0.33-0.34-0.63-0.51-0.92c-0.14-0.26-0.45-0.92-0.9-1.95c-0.1-0.14-0.17-0.28-0.22-0.4l-0.11-0.25l-0.07-0.14l-0.11-0.29
			l-0.14-0.18l-0.04-0.11l-0.07-0.22l-0.47-1.01l-0.04,0.04l-0.11-0.33l-1.52-3.11c-0.02-0.05-0.05-0.1-0.07-0.16
			c-0.02-0.06-0.05-0.13-0.07-0.2c-0.05,0.19-0.05,0.31,0,0.36l0.04,0.43c0,0.12-0.01,0.22-0.04,0.29l-0.04,0.29
			c0,0.48-0.02,0.92-0.07,1.3v0.33c-0.02,0.1-0.04,0.2-0.04,0.32c0,0.36,0.01,0.67,0.04,0.94l0.04,0.72l0.04,0.72
			c0.02,0.29,0.04,0.61,0.04,0.98v0.94v0.9c0,0.07,0.01,0.13,0.04,0.18v0.18v0.22l-0.04,0.14c-0.02,0.1-0.02,0.18,0,0.25v0.22
			l0.04,0.07c0,0.05-0.01,0.08-0.04,0.11l-0.04,0.07v0.94h0.04l-0.04,0.25l-0.04,1.01l0.04,1.84c0.02,0.07,0.04,0.23,0.04,0.47
			l-0.04,0.43l0.04,0.07c0.05,0.05,0.05,0.1,0,0.14c-0.02,0.02-0.04,0.06-0.04,0.11c0,0.43-0.04,0.97-0.11,1.63
			c0,0.36-0.02,0.64-0.07,0.83l-0.07,0.83l-0.07,0.22v0.07v0.11h-0.04c-0.05,0-0.05,0.02,0,0.07c0,0.07-0.02,0.11-0.07,0.11
			l-0.04,0.04c-0.02,0.02-0.04,0.07-0.04,0.14l-0.11,0.11c-0.02,0-0.04,0.01-0.04,0.04v0.04c-0.1,0.02-0.2,0.05-0.32,0.07
			c-0.12,0.02-0.23,0.02-0.33,0c0-0.05-0.04-0.08-0.11-0.11c-0.07-0.02-0.14-0.07-0.22-0.14c0-0.02-0.01-0.04-0.04-0.04
			c-0.02,0.02-0.04,0.02-0.04,0c-0.02,0-0.04-0.02-0.04-0.07l-0.07-0.07l-0.25-0.22c-0.27-0.19-0.4-0.37-0.4-0.54
			c-0.05-0.38-0.07-0.95-0.07-1.7c0-0.43,0.01-0.73,0.04-0.9c0.02-0.29,0.04-0.6,0.04-0.94v-0.51c-0.02-0.14-0.04-0.3-0.04-0.47
			l-0.04-0.47l0.04-0.83c0-0.7-0.01-1.07-0.04-1.12v-0.14v-0.11v-0.18c-0.02-0.02-0.04-0.06-0.04-0.11
			c-0.05-1.16-0.07-2.38-0.07-3.68l0.11-1.84c0.02-0.02,0.02-0.07,0-0.14l-0.07-0.22l-0.04-0.11c-0.05-0.31-0.06-0.59-0.04-0.83
			c0-0.12,0.01-0.19,0.04-0.22c0.02-0.02,0.04-0.11,0.04-0.25l-0.04-0.07V13v-0.58l0.07-0.25h0.07c-0.07-0.12-0.11-0.26-0.11-0.43
			l0.04-0.98c0.05-0.53,0.06-0.95,0.04-1.26c-0.02-0.05-0.02-0.12,0-0.22V9.14c0-0.07-0.01-0.12-0.04-0.14
			c-0.02-0.02-0.04-0.07-0.04-0.14l0.04-0.22l0.04-0.22V8.13c0-0.26-0.01-0.47-0.04-0.61V7.33c-0.05-0.24-0.08-0.37-0.11-0.4
			l-0.07-0.14c-0.02-0.29,0.01-0.79,0.11-1.52c0.07-0.48,0.12-0.73,0.14-0.76l0.11-0.25c0-0.05,0.11-0.07,0.33-0.07l0.07-0.18
			l0.11-0.18l0.4,0.07c0.29,0.02,0.55,0.11,0.79,0.25c0.07,0.05,0.14,0.14,0.2,0.29c0.06,0.14,0.1,0.25,0.13,0.33
			c0.02,0,0.04,0.02,0.04,0.07c-0.02,0.02-0.04,0.06-0.04,0.11h0.04h0.04v0.11v0.07h0.04c0.53,1.06,0.94,1.9,1.23,2.53l0.43,1.05
			c0.02,0.05,0.11,0.23,0.25,0.54l0.25,0.51c0.05,0.07,0.25,0.49,0.61,1.26c0.34,0.7,0.57,1.14,0.69,1.34l0.07,0.14
			c0.02,0.02,0.04,0.05,0.04,0.09s0.01,0.07,0.04,0.09l0.11,0.14l0.04,0.14l1.12,2.24l0.83,1.66l0.83,1.95l0.25,0.36l0.07,0.07
			l0.43,0.79c0.02,0.17,0.07,0.34,0.14,0.5l0.07,0.07c0.02,0.02,0.04,0.07,0.05,0.13c0.01,0.06,0.05,0.15,0.13,0.27l0.25,0.58
			l0.11,0.25l-0.07,0.04c0.12,0.12,0.26,0.36,0.43,0.72l0.11,0.29c-0.05-0.96-0.07-1.43-0.07-1.41v-0.18v-0.14v-0.18
			c-0.02-0.02-0.04-0.06-0.04-0.11c-0.05-1.01-0.07-2.03-0.07-3.07c-0.05-0.87-0.07-1.28-0.07-1.23l0.11-2.17l-0.11-0.43l-0.04-0.11
			c-0.05-0.34-0.07-0.66-0.07-0.98c0.02-0.05,0.04-0.1,0.04-0.14s0.01-0.08,0.04-0.11c0.02-0.02,0.04-0.11,0.04-0.25l-0.04-0.11
			v-0.51v-0.65l0.04-0.29c0.05,0.02,0.08,0.02,0.11,0c-0.1-0.14-0.13-0.45-0.11-0.9c0.05-0.53,0.07-0.9,0.07-1.12l-0.04-0.76
			l0.04-0.22c0-0.07-0.01-0.12-0.04-0.14V7.55c-0.02-0.02-0.04-0.07-0.04-0.14l0.04-0.22l0.04-0.22V6.76c0-0.26-0.01-0.46-0.04-0.58
			V6c0-0.12-0.02-0.23-0.07-0.32l-0.07-0.14V5.35c0-0.31,0.06-0.64,0.18-0.98c0.07-0.31,0.13-0.49,0.18-0.54l0.11-0.18
			c0-0.05,0.11-0.05,0.33,0l0.07-0.07c0.07-0.07,0.12-0.11,0.14-0.11c0.1,0,0.27,0.02,0.52,0.07c0.25,0.05,0.45,0.11,0.6,0.18
			L173.05,3.94z"/>
		<path class="st0" d="M189.16,29.73l-0.11-0.07v-0.04v-0.07h-0.04v0.04c-0.02,0-0.04-0.01-0.04-0.04v-0.07l-0.04,0.04v-0.07
			l-0.04-0.04c-0.17-0.41-0.45-1.44-0.83-3.11L188,26.22c-0.02-0.02-0.04-0.11-0.04-0.25l-0.07-0.25c-0.05-0.14-0.07-0.29-0.07-0.43
			c-0.07-0.22-0.11-0.4-0.11-0.54l-0.14-0.72c0-0.05-0.05-0.25-0.14-0.61l-0.07-0.69c-0.02-0.14-0.12-0.49-0.29-1.05
			c0.02,0.07-0.02-0.11-0.14-0.54c-0.1,0.02-0.3,0.04-0.61,0.04h-0.04c-0.02,0.02-0.06,0.02-0.11,0h-0.11h-0.07
			c-0.02,0.02-0.06,0.04-0.11,0.04l-0.07-0.04h-0.11c-0.1,0-0.18-0.01-0.25-0.04h-0.22c-0.07,0-0.12-0.01-0.14-0.04h-0.14h-0.33
			l-0.25,0.04h-0.29l-0.36,0.04h-0.36h-0.36h-0.07l-0.04,0.04l-0.07-0.04h-0.07c-0.07,0-0.13,0.01-0.18,0.04h-0.04h-0.04l-0.04-0.04
			h-0.33v0.04L182,21.17h-0.4v0.11c-0.02,0.05-0.04,0.12-0.04,0.22v0.07l-0.07,0.11l-0.04,0.07l-0.18,0.83h0.04v0.04l-0.11,0.22
			c-0.14,0.5-0.35,1.37-0.61,2.6l-0.07,0.4l-0.11,0.36v0.11c0,0.1-0.02,0.17-0.07,0.22l-0.43,1.37l-0.07,0.33
			c-0.02,0.17-0.06,0.28-0.11,0.33c-0.07,0.17-0.12,0.28-0.14,0.33l-0.22,0.58v0.07c0,0.02-0.01,0.04-0.04,0.04h-0.04l-0.04,0.04
			v0.07c0,0.05-0.04,0.07-0.11,0.07l-0.07,0.07c-0.05,0.05-0.08,0.07-0.11,0.07v0.04l-0.04,0.04c-0.34,0-0.51-0.04-0.51-0.11
			l-0.11-0.11l-0.14-0.14c0-0.02-0.01-0.04-0.04-0.04s-0.04-0.01-0.04-0.04v-0.07l-0.04-0.07c-0.12-0.12-0.23-0.3-0.33-0.54
			c-0.05-0.1-0.07-0.17-0.07-0.22c0.05-0.6,0.2-1.36,0.47-2.28c0.05-0.14,0.1-0.28,0.14-0.42c0.05-0.13,0.08-0.26,0.11-0.38
			l0.07-0.43l0.07-0.43c0.1-0.26,0.19-0.61,0.29-1.05c0.1-0.43,0.17-0.81,0.22-1.12l0.04-0.14c0.02-0.02,0.04-0.06,0.04-0.11
			c0-0.07,0.01-0.12,0.04-0.14V22l0.18-0.83c-0.17,0-0.25-0.02-0.25-0.07l-0.04,0.04h-0.04c0-0.02-0.01-0.04-0.04-0.04h-0.04
			l-0.04-0.04l-0.07-0.07l-0.04-0.04c-0.1-0.17-0.11-0.26-0.04-0.29c0-0.02,0.01-0.06,0.02-0.11c0.01-0.05,0.03-0.07,0.05-0.07
			c0.02,0,0.04-0.01,0.04-0.04c-0.02,0-0.04-0.01-0.04-0.04h0.04l0.04-0.04l0.07-0.14c0.1-0.14,0.16-0.22,0.18-0.22
			c0.07-0.02,0.2-0.04,0.4-0.04c0.14-0.63,0.26-1.13,0.36-1.5c0.1-0.37,0.26-0.97,0.51-1.79v-0.18v-0.22v-0.11
			c0-0.17,0.06-0.46,0.18-0.87c0.05-0.14,0.08-0.23,0.11-0.25l0.07-0.22v-0.11l0.11-0.47c0-0.1,0.02-0.2,0.05-0.33
			c0.04-0.12,0.05-0.2,0.05-0.25l0.11-0.29c0.02,0.02,0.06,0.04,0.11,0.04v-0.14c0-0.17,0.04-0.43,0.11-0.79
			c0.24-0.84,0.4-1.52,0.47-2.02l0.11-0.4V9.93c0-0.12,0.02-0.27,0.07-0.43l0.07-0.25c0.1-0.31,0.17-0.66,0.22-1.05l0.04-0.22V7.77
			c0.02-0.07,0.02-0.16,0-0.25c-0.02-0.12-0.02-0.19,0-0.22c0.05-0.48,0.2-1.08,0.47-1.81c0.14-0.51,0.24-0.82,0.29-0.94
			c0.12-0.17,0.18-0.26,0.18-0.29c0.02-0.07,0.12-0.08,0.29-0.04l-0.04-0.07l0.04-0.04l0.04-0.07l0.07-0.25V3.76l0.04-0.04
			c0.05-0.02,0.12-0.05,0.22-0.09c0.1-0.04,0.17-0.05,0.22-0.05c0.14,0,0.24,0.06,0.29,0.18l0.04-0.04c0.02,0,0.06,0.02,0.11,0.07
			l0.04,0.07l0.25,0.18c0.19,0.17,0.34,0.32,0.43,0.47c0.34,1.32,0.54,2.26,0.61,2.82c0.07,0.48,0.14,0.86,0.22,1.12l0.14,0.61
			l0.14,0.54c0.07,0.39,0.17,0.87,0.29,1.46c0.12,0.59,0.23,1.09,0.33,1.5l0.07,0.14c0,0.1,0.02,0.22,0.07,0.36l0.07,0.14l0.61,2.56
			c0.17,0.96,0.31,1.61,0.43,1.95c0.02,0.1,0.06,0.31,0.11,0.65c0.05,0.34,0.13,0.87,0.25,1.59l0.11,0.14l0.11,0.25v0.11
			c0.1,0.17,0.18,0.48,0.25,0.94c0.02,0.07,0.04,0.16,0.04,0.25c-0.05,0.07-0.05,0.17,0,0.29l0.07,0.07l0.11,0.47l0.11,0.61
			l0.04,0.32h-0.07c0.1,0.1,0.18,0.37,0.25,0.83c0.12,0.75,0.24,1.33,0.36,1.73c0,0.05,0.01,0.1,0.02,0.16
			c0.01,0.06,0.03,0.1,0.05,0.13c0,0.05,0.01,0.08,0.04,0.11c0.05,0.1,0.07,0.21,0.07,0.33c0,0.1,0.01,0.16,0.04,0.18
			c0.05,0.29,0.1,0.52,0.14,0.69c0,0.02,0.01,0.07,0.04,0.13c0.02,0.06,0.05,0.1,0.07,0.13c0,0.02,0.02,0.06,0.07,0.11
			c0.05,0.05,0.07,0.08,0.07,0.11c0.12,0.19,0.16,0.49,0.11,0.9c0,0.24-0.01,0.37-0.04,0.4c-0.02,0.02-0.04,0.06-0.04,0.11
			c0,0.05-0.08,0.08-0.25,0.11l-0.04,0.07l-0.07,0.07l-0.36,0.07c-0.26,0.05-0.46,0.06-0.58,0.04L189.16,29.73z M186.38,19.15
			l-0.25-0.83c0-0.1-0.13-0.77-0.4-2.02l-0.07-0.22c-0.02-0.02-0.04-0.05-0.04-0.09c0-0.04-0.01-0.05-0.04-0.05
			c-0.02-0.07-0.04-0.17-0.04-0.29c0-0.07-0.01-0.12-0.04-0.14l-0.11-0.47l-0.04-0.29V14.7l-0.22-1.05v0.04h-0.04l-0.04-0.33
			c-0.1-0.6-0.33-1.65-0.69-3.14l-0.11-0.61l-0.4,1.84v0.11c0,0.07-0.04,0.25-0.11,0.54c0,0.02,0.01,0.05,0.02,0.09
			c0.01,0.04,0.01,0.08-0.02,0.13c-0.02,0.07-0.04,0.16-0.04,0.25c-0.02,0.12-0.06,0.23-0.11,0.33c-0.05,0.1-0.08,0.17-0.11,0.22
			c-0.12,0.65-0.22,1.06-0.29,1.23l-0.18,0.58c-0.02,0.07-0.08,0.37-0.18,0.9c-0.02,0.39-0.06,0.61-0.11,0.69
			c-0.02,0.02-0.07,0.24-0.14,0.65c-0.12,0.6-0.24,1.17-0.36,1.7l-0.07,0.33h0.04l0.07-0.04h0.04l1.23-0.04l0.65,0.07l0.14-0.07
			c0.05-0.02,0.14-0.04,0.29-0.04h0.07c0.02,0.02,0.06,0.04,0.11,0.04h0.04h0.11h0.22l0.07,0.04v0.04c0.05-0.05,0.13-0.06,0.25-0.04
			l0.33,0.04l0.33-0.04h0.07h0.07h0.04H186.38z"/>
		<path class="st0" d="M205.23,29.4c0,0-0.03-0.02-0.09-0.07c-0.06-0.05-0.11-0.08-0.16-0.11v-0.04h-0.04c-0.02,0-0.02-0.01,0-0.04
			v-0.04h-0.04h-0.04v-0.04v-0.04c-0.1-0.17-0.21-0.77-0.33-1.81l-0.04-0.04v-0.11c0-0.07-0.01-0.12-0.04-0.14v-0.11
			c-0.02-0.02-0.04-0.06-0.04-0.11v-0.11v-0.14v-0.36v-0.25v-0.18v-0.14c0-0.1-0.08-0.36-0.25-0.79l-0.11-0.43
			c-0.07-0.19-0.16-0.47-0.25-0.83l-0.18-0.5c0-0.05-0.01-0.08-0.04-0.11c-0.05-0.1-0.07-0.16-0.07-0.18v-0.07l-0.07-0.14
			c-0.02-0.02-0.04-0.06-0.04-0.11l-0.04-0.04c-0.02,0-0.02-0.01,0-0.04v-0.07l-0.22-0.47l-0.04,0.04V21.6
			c-0.14-0.34-0.43-0.82-0.87-1.44l-0.11-0.14l-0.22-0.29l-0.04-0.04l-0.07-0.07v-0.07c-0.07-0.07-0.18-0.23-0.33-0.47l-0.36-0.4
			c-0.02-0.02-0.05-0.05-0.07-0.09c-0.02-0.04-0.06-0.09-0.11-0.16l-0.22-0.22l-0.25-0.25l-0.22-0.18c-0.02,0-0.04,0.01-0.04,0.04
			h0.04l-0.14,0.11c-0.14,0.1-0.37,0.28-0.69,0.54l-0.54,0.43c-0.1,0.02-0.22,0.11-0.36,0.25l-0.04,0.04c0,0.02-0.02,0.04-0.07,0.04
			h-0.04c-0.22,0.12-0.42,0.22-0.61,0.29v0.29c0,0.14-0.01,0.23-0.04,0.25c-0.05,0.05-0.07,0.12-0.07,0.22l0.07,0.11v0.43
			c0,0.27-0.01,0.45-0.04,0.54l-0.04,0.29c-0.02-0.05-0.06-0.05-0.11,0c0.12,0.12,0.16,0.39,0.11,0.79
			c-0.05,0.48-0.07,0.84-0.07,1.08l0.04,0.76v0.14v0.22c0,0.05,0.01,0.08,0.04,0.11v0.14v0.25l-0.04,0.22v0.25
			c0,0.29,0.01,0.5,0.04,0.65c0,0.07,0.01,0.13,0.04,0.18v0.18c0,0.05,0.02,0.12,0.07,0.22l0.07,0.18c0.05,0.27,0.01,0.78-0.11,1.55
			l-0.18,0.79c-0.05,0.14-0.07,0.24-0.07,0.29c-0.05,0.05-0.17,0.07-0.36,0.07l-0.07,0.18l-0.11,0.18c-0.1-0.02-0.28-0.07-0.56-0.13
			c-0.28-0.06-0.49-0.13-0.63-0.2c-0.07-0.05-0.13-0.17-0.18-0.36c-0.07-0.19-0.12-0.29-0.14-0.29v-0.11v-0.07
			c-0.02,0-0.04-0.01-0.04-0.04v-0.07v-0.11h-0.04c-0.05,0-0.05-0.02,0-0.07v-0.11c-0.14-0.77-0.23-2.26-0.25-4.48l-0.04-0.07V23.7
			v-0.25v-0.25c-0.02-0.07-0.04-0.16-0.04-0.25c0-0.19,0.02-0.36,0.07-0.51c0-0.29,0.01-0.52,0.04-0.69v-0.58
			c0-0.12,0.01-0.23,0.04-0.33c0.02-0.1,0.04-0.2,0.04-0.33c0-0.36-0.01-0.67-0.04-0.94l-0.04-0.69l-0.04-0.72
			c-0.02-0.26-0.04-0.58-0.04-0.94v-0.94v-0.87v-0.18c-0.02-0.05-0.04-0.11-0.04-0.18c0-0.19,0.02-0.31,0.07-0.36l-0.04-0.43
			c-0.02-0.02-0.04-0.06-0.04-0.11s0.01-0.08,0.04-0.11l0.04-0.07v-0.9h-0.04l0.04-0.29c0.02-0.14,0.04-0.48,0.04-1.01
			c0-0.75-0.01-1.37-0.04-1.88V9.39V8.96l-0.04-0.07c0-0.07,0.01-0.13,0.04-0.18V8.6l0.11-1.73c0.02-0.02,0.04-0.17,0.04-0.43
			c0-0.24,0.01-0.4,0.04-0.47l0.07-0.43c0-0.24,0.01-0.41,0.04-0.51c0-0.14,0.01-0.23,0.04-0.25c0.02,0,0.04-0.02,0.04-0.07
			c-0.02-0.02-0.04-0.06-0.04-0.11h0.04h0.04V4.52V4.41l0.04-0.04l0.04-0.04c0.02-0.02,0.04-0.05,0.04-0.09
			c0-0.04,0.01-0.07,0.04-0.09c0-0.02,0.02-0.06,0.07-0.11c0.02,0,0.04-0.01,0.04-0.04l0.04-0.04c0.1-0.02,0.2-0.05,0.33-0.07
			c0.12-0.02,0.22-0.02,0.29,0c0,0.05,0.05,0.08,0.14,0.11c0.07,0.02,0.13,0.08,0.18,0.18h0.04h0.07l0.04,0.11l0.04,0.07l0.25,0.25
			c0.24,0.22,0.38,0.42,0.43,0.61c0.07,0.84,0.08,1.78,0.04,2.82c-0.02,0.31-0.04,0.65-0.04,1.01c0,0.19,0.01,0.36,0.04,0.51v0.51
			v1.34l-0.04,0.79c0,0.1,0.01,0.17,0.02,0.22c0.01,0.05,0.02,0.08,0.02,0.11v0.14v0.14c0,0.07,0.01,0.12,0.04,0.14v0.11
			c0.05,1.16,0.07,2.37,0.07,3.65c0,0.34-0.04,0.82-0.11,1.44l0.14-0.11l0.33-0.33l0.83-0.83c0-0.02,0.01-0.05,0.04-0.07
			c0.02-0.02,0.05-0.04,0.07-0.04l0.07-0.14c0.65-0.84,1.07-1.42,1.26-1.73l0.4-0.58c0.1-0.12,0.16-0.21,0.2-0.27
			s0.07-0.1,0.09-0.13c0.05-0.05,0.07-0.13,0.07-0.25v-0.11l0.25-0.54l0.14-0.14l0.11-0.14v-0.07c0.05-0.22,0.16-0.46,0.33-0.72
			l0.14-0.18l0.07,0.04v-0.07c0-0.12,0.06-0.32,0.18-0.61c0.19-0.36,0.4-0.87,0.61-1.52l0.07-0.18l0.04-0.14
			c0-0.05,0.02-0.14,0.07-0.29l0.07-0.22l0.07-0.18c0.14-0.39,0.23-0.69,0.25-0.9l0.04-0.22V7.3c0.02-0.05,0.04-0.13,0.04-0.25
			l-0.04-0.18c0.05-0.26,0.2-0.82,0.47-1.66c0.17-0.55,0.28-0.85,0.33-0.9c0.05-0.07,0.1-0.18,0.14-0.32
			c0.05-0.05,0.16-0.06,0.33-0.04c0.02,0,0.07-0.07,0.14-0.22c0.07-0.12,0.12-0.18,0.14-0.18c0.17,0.07,0.29,0.12,0.36,0.14
			c0.34,0.17,0.55,0.31,0.65,0.43c0.05,0.1,0.1,0.28,0.14,0.54v0.36v0.07l-0.04,0.14h0.04l-0.04,0.14l-0.04,0.07
			c0,0.02,0.01,0.02,0.04,0c0.02,0,0.04,0.01,0.04,0.04l-0.04,0.11c-0.02,0.02-0.04,0.06-0.04,0.11c-0.1,1.13-0.52,2.75-1.26,4.84
			v0.11c-0.02,0.05-0.06,0.12-0.11,0.22c-0.05,0.1-0.08,0.19-0.11,0.29l-0.07,0.18c-0.02,0.17-0.1,0.32-0.22,0.47l-0.11,0.22
			l-0.58,1.01c-0.07,0.07-0.12,0.14-0.14,0.22l-0.18,0.25l-0.65,1.19c-0.22,0.36-0.41,0.66-0.58,0.9c-0.17,0.24-0.33,0.45-0.49,0.63
			s-0.28,0.32-0.38,0.42c0.36,0.17,0.68,0.36,0.96,0.58c0.28,0.22,0.69,0.6,1.25,1.16l0.54,0.54c0.19,0.24,0.39,0.51,0.6,0.79
			c0.2,0.29,0.34,0.49,0.42,0.61l0.07,0.07l0.04,0.07l0.07,0.07l0.07,0.07c0.41,0.72,0.75,1.46,1.01,2.2l0.22,1.16
			c0,0.02,0.02,0.06,0.07,0.11l0.11,0.11c0.05,0.07,0.1,0.24,0.14,0.51c0.05,0.02,0.05,0.06,0,0.11c-0.05,0.05-0.06,0.1-0.04,0.14
			l0.04,0.07c0.02,0.02,0.04,0.06,0.04,0.11c0,0.05,0.01,0.1,0.04,0.14c0,0.14,0.01,0.25,0.04,0.33L207,25.76h-0.11
			c0.12,0.1,0.17,0.24,0.14,0.43v0.25c0,0.17,0.02,0.4,0.07,0.69v0.11v0.07l0.04,0.07c0.02,0.07,0.02,0.13,0,0.18
			c-0.02,0.02-0.04,0.06-0.04,0.11c0,0.12,0.02,0.25,0.07,0.4c0,0.07,0.02,0.13,0.07,0.18l0.07,0.07l0.04,0.07l0.04,0.14
			c0,0.12-0.04,0.28-0.11,0.47l-0.14,0.25l-0.11,0.11l-0.33,0.04c-0.05,0-0.08,0.01-0.11,0.04l-0.04,0.04l-0.07,0.04l-1.19-0.07
			C205.25,29.42,205.23,29.4,205.23,29.4z"/>
		<path class="st0" d="M221.56,29.4c0,0-0.03-0.02-0.09-0.07c-0.06-0.05-0.11-0.08-0.16-0.11v-0.04h-0.04c-0.02,0-0.02-0.01,0-0.04
			v-0.04h-0.04h-0.04v-0.04v-0.04c-0.1-0.17-0.21-0.77-0.33-1.81l-0.04-0.04v-0.11c0-0.07-0.01-0.12-0.04-0.14v-0.11
			c-0.02-0.02-0.04-0.06-0.04-0.11v-0.11v-0.14v-0.36v-0.25v-0.18v-0.14c0-0.1-0.08-0.36-0.25-0.79l-0.11-0.43
			c-0.07-0.19-0.16-0.47-0.25-0.83l-0.18-0.5c0-0.05-0.01-0.08-0.04-0.11c-0.05-0.1-0.07-0.16-0.07-0.18v-0.07l-0.07-0.14
			c-0.02-0.02-0.04-0.06-0.04-0.11l-0.04-0.04c-0.02,0-0.02-0.01,0-0.04v-0.07l-0.22-0.47l-0.04,0.04V21.6
			c-0.14-0.34-0.43-0.82-0.87-1.44l-0.11-0.14l-0.22-0.29l-0.04-0.04l-0.07-0.07v-0.07c-0.07-0.07-0.18-0.23-0.33-0.47l-0.36-0.4
			c-0.02-0.02-0.05-0.05-0.07-0.09c-0.02-0.04-0.06-0.09-0.11-0.16l-0.22-0.22l-0.25-0.25l-0.22-0.18c-0.02,0-0.04,0.01-0.04,0.04
			h0.04l-0.14,0.11c-0.14,0.1-0.37,0.28-0.69,0.54l-0.54,0.43c-0.1,0.02-0.22,0.11-0.36,0.25l-0.04,0.04c0,0.02-0.02,0.04-0.07,0.04
			h-0.04c-0.22,0.12-0.42,0.22-0.61,0.29v0.29c0,0.14-0.01,0.23-0.04,0.25c-0.05,0.05-0.07,0.12-0.07,0.22l0.07,0.11v0.43
			c0,0.27-0.01,0.45-0.04,0.54l-0.04,0.29c-0.02-0.05-0.06-0.05-0.11,0c0.12,0.12,0.16,0.39,0.11,0.79
			c-0.05,0.48-0.07,0.84-0.07,1.08l0.04,0.76v0.14v0.22c0,0.05,0.01,0.08,0.04,0.11v0.14v0.25l-0.04,0.22v0.25
			c0,0.29,0.01,0.5,0.04,0.65c0,0.07,0.01,0.13,0.04,0.18v0.18c0,0.05,0.02,0.12,0.07,0.22l0.07,0.18c0.05,0.27,0.01,0.78-0.11,1.55
			l-0.18,0.79c-0.05,0.14-0.07,0.24-0.07,0.29c-0.05,0.05-0.17,0.07-0.36,0.07l-0.07,0.18l-0.11,0.18c-0.1-0.02-0.28-0.07-0.56-0.13
			c-0.28-0.06-0.49-0.13-0.63-0.2c-0.07-0.05-0.13-0.17-0.18-0.36c-0.07-0.19-0.12-0.29-0.14-0.29v-0.11v-0.07
			c-0.02,0-0.04-0.01-0.04-0.04v-0.07v-0.11h-0.04c-0.05,0-0.05-0.02,0-0.07v-0.11c-0.14-0.77-0.23-2.26-0.25-4.48l-0.04-0.07V23.7
			v-0.25v-0.25c-0.02-0.07-0.04-0.16-0.04-0.25c0-0.19,0.02-0.36,0.07-0.51c0-0.29,0.01-0.52,0.04-0.69v-0.58
			c0-0.12,0.01-0.23,0.04-0.33c0.02-0.1,0.04-0.2,0.04-0.33c0-0.36-0.01-0.67-0.04-0.94l-0.04-0.69l-0.04-0.72
			c-0.02-0.26-0.04-0.58-0.04-0.94v-0.94v-0.87v-0.18c-0.02-0.05-0.04-0.11-0.04-0.18c0-0.19,0.02-0.31,0.07-0.36l-0.04-0.43
			c-0.02-0.02-0.04-0.06-0.04-0.11s0.01-0.08,0.04-0.11l0.04-0.07v-0.9h-0.04l0.04-0.29c0.02-0.14,0.04-0.48,0.04-1.01
			c0-0.75-0.01-1.37-0.04-1.88V9.39V8.96l-0.04-0.07c0-0.07,0.01-0.13,0.04-0.18V8.6l0.11-1.73c0.02-0.02,0.04-0.17,0.04-0.43
			c0-0.24,0.01-0.4,0.04-0.47l0.07-0.43c0-0.24,0.01-0.41,0.04-0.51c0-0.14,0.01-0.23,0.04-0.25c0.02,0,0.04-0.02,0.04-0.07
			c-0.02-0.02-0.04-0.06-0.04-0.11h0.04h0.04V4.52V4.41l0.04-0.04l0.04-0.04c0.02-0.02,0.04-0.05,0.04-0.09
			c0-0.04,0.01-0.07,0.04-0.09c0-0.02,0.02-0.06,0.07-0.11c0.02,0,0.04-0.01,0.04-0.04l0.04-0.04c0.1-0.02,0.2-0.05,0.33-0.07
			c0.12-0.02,0.22-0.02,0.29,0c0,0.05,0.05,0.08,0.14,0.11c0.07,0.02,0.13,0.08,0.18,0.18h0.04h0.07l0.04,0.11l0.04,0.07l0.25,0.25
			c0.24,0.22,0.38,0.42,0.43,0.61c0.07,0.84,0.08,1.78,0.04,2.82c-0.02,0.31-0.04,0.65-0.04,1.01c0,0.19,0.01,0.36,0.04,0.51v0.51
			v1.34l-0.04,0.79c0,0.1,0.01,0.17,0.02,0.22c0.01,0.05,0.02,0.08,0.02,0.11v0.14v0.14c0,0.07,0.01,0.12,0.04,0.14v0.11
			c0.05,1.16,0.07,2.37,0.07,3.65c0,0.34-0.04,0.82-0.11,1.44l0.14-0.11l0.33-0.33l0.83-0.83c0-0.02,0.01-0.05,0.04-0.07
			c0.02-0.02,0.05-0.04,0.07-0.04l0.07-0.14c0.65-0.84,1.07-1.42,1.26-1.73l0.4-0.58c0.1-0.12,0.16-0.21,0.2-0.27
			s0.07-0.1,0.09-0.13c0.05-0.05,0.07-0.13,0.07-0.25v-0.11l0.25-0.54l0.14-0.14l0.11-0.14v-0.07c0.05-0.22,0.16-0.46,0.33-0.72
			l0.14-0.18l0.07,0.04v-0.07c0-0.12,0.06-0.32,0.18-0.61c0.19-0.36,0.4-0.87,0.61-1.52l0.07-0.18l0.04-0.14
			c0-0.05,0.02-0.14,0.07-0.29l0.07-0.22l0.07-0.18c0.14-0.39,0.23-0.69,0.25-0.9l0.04-0.22V7.3c0.02-0.05,0.04-0.13,0.04-0.25
			l-0.04-0.18c0.05-0.26,0.2-0.82,0.47-1.66c0.17-0.55,0.28-0.85,0.33-0.9c0.05-0.07,0.1-0.18,0.14-0.32
			c0.05-0.05,0.16-0.06,0.33-0.04c0.02,0,0.07-0.07,0.14-0.22c0.07-0.12,0.12-0.18,0.14-0.18c0.17,0.07,0.29,0.12,0.36,0.14
			c0.34,0.17,0.55,0.31,0.65,0.43c0.05,0.1,0.1,0.28,0.14,0.54v0.36v0.07l-0.04,0.14h0.04l-0.04,0.14l-0.04,0.07
			c0,0.02,0.01,0.02,0.04,0c0.02,0,0.04,0.01,0.04,0.04L222.6,5.6c-0.02,0.02-0.04,0.06-0.04,0.11c-0.1,1.13-0.52,2.75-1.26,4.84
			v0.11c-0.02,0.05-0.06,0.12-0.11,0.22c-0.05,0.1-0.08,0.19-0.11,0.29l-0.07,0.18c-0.02,0.17-0.1,0.32-0.22,0.47l-0.11,0.22
			l-0.58,1.01c-0.07,0.07-0.12,0.14-0.14,0.22l-0.18,0.25l-0.65,1.19c-0.22,0.36-0.41,0.66-0.58,0.9c-0.17,0.24-0.33,0.45-0.49,0.63
			s-0.28,0.32-0.38,0.42c0.36,0.17,0.68,0.36,0.96,0.58c0.28,0.22,0.69,0.6,1.25,1.16l0.54,0.54c0.19,0.24,0.39,0.51,0.6,0.79
			c0.2,0.29,0.34,0.49,0.42,0.61l0.07,0.07l0.04,0.07l0.07,0.07l0.07,0.07c0.41,0.72,0.75,1.46,1.01,2.2l0.22,1.16
			c0,0.02,0.02,0.06,0.07,0.11l0.11,0.11c0.05,0.07,0.1,0.24,0.14,0.51c0.05,0.02,0.05,0.06,0,0.11c-0.05,0.05-0.06,0.1-0.04,0.14
			l0.04,0.07c0.02,0.02,0.04,0.06,0.04,0.11c0,0.05,0.01,0.1,0.04,0.14c0,0.14,0.01,0.25,0.04,0.33l-0.04,0.14h-0.11
			c0.12,0.1,0.17,0.24,0.14,0.43v0.25c0,0.17,0.02,0.4,0.07,0.69v0.11v0.07l0.04,0.07c0.02,0.07,0.02,0.13,0,0.18
			c-0.02,0.02-0.04,0.06-0.04,0.11c0,0.12,0.02,0.25,0.07,0.4c0,0.07,0.02,0.13,0.07,0.18l0.07,0.07l0.04,0.07l0.04,0.14
			c0,0.12-0.04,0.28-0.11,0.47l-0.14,0.25l-0.11,0.11l-0.33,0.04c-0.05,0-0.08,0.01-0.11,0.04l-0.04,0.04l-0.07,0.04l-1.19-0.07
			C221.58,29.42,221.56,29.4,221.56,29.4z"/>
		<path class="st0" d="M228.42,29.44c0,0-0.03-0.08-0.09-0.23c-0.06-0.16-0.1-0.27-0.13-0.34v-0.07v-0.11h-0.04v-0.07v-0.07h-0.04
			c-0.05,0-0.05-0.02,0-0.07v-0.11c-0.14-0.77-0.23-2.23-0.25-4.37l-0.04-0.11c-0.05-0.05-0.05-0.13,0-0.25v-0.25v-0.22
			c-0.02-0.07-0.04-0.16-0.04-0.25l0.04-0.29V22.4c0.02-0.12,0.04-0.35,0.04-0.69c0-0.26,0.01-0.45,0.04-0.54
			c0-0.12,0.01-0.23,0.04-0.33v-0.33c0-0.34-0.01-0.65-0.04-0.94l-0.04-0.65l-0.04-0.72c-0.02-0.26-0.04-0.57-0.04-0.9v-0.9v-0.9
			v-0.14c-0.02-0.05-0.04-0.11-0.04-0.18l0.04-0.22v-0.14v-0.25c0-0.1-0.01-0.17-0.04-0.22v-0.07c0-0.07,0.01-0.11,0.04-0.11v-0.07
			v-0.9h-0.04l0.04-0.25c0.02-0.36,0-1.34-0.07-2.93c0-0.19,0.01-0.37,0.04-0.54c0-0.22-0.01-0.34-0.04-0.36L227.7,9
			c0-0.07,0.01-0.12,0.04-0.14V8.74c0-0.17,0.02-0.76,0.07-1.77V6.54c0-0.26,0.01-0.43,0.04-0.51c0-0.14,0.01-0.28,0.04-0.4
			c0-0.24,0.01-0.41,0.04-0.51c0-0.17,0.01-0.26,0.04-0.29l-0.04-0.11c0-0.05,0.01-0.07,0.04-0.07h0.04V4.55V4.48l0.04-0.04
			l0.04-0.04c0.02-0.02,0.04-0.05,0.04-0.09s0.01-0.07,0.04-0.09c0-0.02,0.02-0.06,0.07-0.11l0.04-0.07V4.01
			c0.22-0.07,0.41-0.11,0.58-0.11c0.02,0,0.05,0.01,0.07,0.04c0.02,0.02,0.07,0.05,0.14,0.07c0.07,0.02,0.13,0.08,0.18,0.18
			c0,0.02,0.01,0.02,0.04,0h0.07l0.07,0.22c0.17,0.07,0.36,0.25,0.58,0.54l0.14,0.29c0.1,1.44,0.14,2.4,0.14,2.85
			c-0.02,0.34-0.04,0.69-0.04,1.05c0,0.43,0.02,0.77,0.07,1.01c0,0.43,0.01,0.86,0.04,1.26v1.23v0.11v0.18
			c0,0.05,0.01,0.08,0.04,0.11c0.02,0.02,0.04,0.06,0.04,0.11c0,0.48,0.01,0.87,0.04,1.16l0.04,2.46l-0.11,1.81
			c0,0.1,0.02,0.22,0.07,0.36l0.07,0.07c0.02,0.14,0.04,0.42,0.04,0.83c0,0.12-0.01,0.19-0.04,0.22c-0.05,0.05-0.07,0.12-0.07,0.22
			l0.04,0.07v0.47v0.54l-0.07,0.25c-0.02-0.02-0.05-0.02-0.07,0c0.07,0.07,0.11,0.21,0.11,0.4c0,0.39-0.01,0.67-0.04,0.87
			c0,0.14-0.01,0.32-0.02,0.54c-0.01,0.22-0.01,0.47,0.02,0.76v0.18c-0.02,0.1-0.02,0.16,0,0.18c0,0.07,0.01,0.12,0.04,0.14v0.14
			l-0.04,0.22c-0.02,0.05-0.04,0.11-0.04,0.18c0,0.41,0.01,0.72,0.04,0.94c0.02,0.02,0.04,0.06,0.04,0.11c0,0.12,0.04,0.25,0.11,0.4
			c0.05,0.1,0.07,0.16,0.07,0.18c0.02,0.27-0.01,0.77-0.11,1.52c-0.05,0.17-0.08,0.33-0.11,0.47c-0.02,0.14-0.05,0.24-0.07,0.29
			c0,0.02-0.01,0.08-0.02,0.16c-0.01,0.08-0.05,0.14-0.11,0.16c-0.06,0.02-0.15,0.04-0.27,0.04c-0.02,0-0.07,0.06-0.14,0.18
			l-0.07,0.18l-0.47-0.11c-0.29-0.02-0.53-0.1-0.72-0.22C228.46,29.46,228.42,29.44,228.42,29.44z"/>
		<path class="st0" d="M236.73,23.95c0,0,0.05,0.12,0.14,0.36c0.1,0.24,0.16,0.41,0.18,0.51c0.02,0.02,0.04,0.08,0.04,0.18
			l0.04,0.14h0.04h0.04l0.04,0.11c0,0.1,0.01,0.14,0.04,0.14h0.04l0.04,0.14l0.04,0.11c0.7,1.3,1.3,2.18,1.81,2.64
			c0.41,0.29,0.82,0.43,1.23,0.43c0.5,0,1.06-0.21,1.66-0.61l0.11-0.11c0.22-0.31,0.36-0.52,0.42-0.63
			c0.06-0.11,0.14-0.32,0.24-0.63c0.17-0.36,0.25-0.58,0.25-0.65c0.1-0.67,0.16-1.26,0.18-1.77c0.02-0.14,0.04-0.34,0.04-0.58
			c0-0.19-0.01-0.31-0.04-0.36c-0.22-1.73-0.9-3.32-2.06-4.77c-0.19-0.24-0.69-0.71-1.48-1.41l-0.22-0.25
			c-0.24-0.19-0.43-0.39-0.58-0.58c-0.07-0.12-0.13-0.18-0.18-0.18l-0.51-0.54l-0.29-0.33c-0.14-0.14-0.23-0.25-0.25-0.33
			c-0.53-0.77-0.92-1.36-1.16-1.77h-0.04l-0.29-0.61c-0.17-0.77-0.25-1.63-0.25-2.56c0-0.84,0.08-1.64,0.24-2.38
			c0.16-0.75,0.37-1.35,0.63-1.81c0.17-0.26,0.6-0.67,1.3-1.23l0.11-0.11c0.19-0.12,0.35-0.19,0.47-0.22
			c0.99-0.41,1.89-0.59,2.71-0.54c0.51,0,0.93,0.1,1.28,0.29c0.35,0.19,0.73,0.52,1.14,0.98c0.36,0.41,0.57,0.71,0.61,0.9l0.07,0.18
			c0.02,0.07,0.06,0.13,0.11,0.18h-0.04h-0.04l0.11,0.18l0.07,0.22v0.14c-0.02,0.02-0.04,0.07-0.04,0.14l0.11,0.51l-0.04,0.18
			c-0.02,0-0.02,0.04,0,0.11v0.11c-0.02,0.07-0.11,0.15-0.27,0.23c-0.16,0.08-0.26,0.1-0.31,0.05c-0.02-0.12-0.05-0.18-0.07-0.18
			c-0.05,0-0.08-0.01-0.11-0.04c-0.14-0.14-0.23-0.26-0.25-0.36c0-0.02-0.01-0.02-0.04,0c-0.02,0.02-0.04,0.02-0.04,0
			c-0.05,0-0.08-0.05-0.11-0.14c-0.02-0.07-0.06-0.13-0.11-0.18l-0.51-0.54c-0.24-0.17-0.41-0.33-0.51-0.47
			c-0.07-0.1-0.17-0.26-0.31-0.49c-0.13-0.23-0.3-0.43-0.49-0.6c-0.14-0.17-0.33-0.28-0.54-0.33c-0.1-0.02-0.23-0.04-0.4-0.04
			c-0.63,0-1.24,0.34-1.84,1.01c-0.55,0.65-0.83,1.82-0.83,3.5c0,0.75,0.06,1.36,0.18,1.84c0.1,0.39,0.22,0.69,0.36,0.9
			c0.53,0.84,1.16,1.74,1.9,2.69c0.73,0.95,1.31,1.61,1.72,1.97c0.79,0.72,1.47,1.53,2.02,2.42c0.02,0.02,0.05,0.06,0.09,0.11
			c0.04,0.05,0.08,0.11,0.13,0.18l0.22,0.33c0.07,0.12,0.12,0.18,0.14,0.18c0.26,0.46,0.47,1,0.61,1.63
			c0.07,0.22,0.11,0.37,0.11,0.47v0.11c0,0.14,0.01,0.26,0.04,0.36l0.07,0.18c0.05,0.63,0.07,1.07,0.07,1.34l-0.04,0.76
			c0,0.1-0.04,0.25-0.11,0.47l-0.04,0.11l-0.07-0.14c-0.02,0-0.02,0.05,0,0.14c0.02,0.19-0.02,0.46-0.13,0.79
			c-0.11,0.34-0.22,0.59-0.34,0.76c-0.65,0.99-1.49,1.82-2.53,2.49c-0.05,0.05-0.22,0.13-0.51,0.24s-0.52,0.19-0.69,0.23
			c-0.31,0.12-0.63,0.18-0.94,0.18c-0.77,0.05-1.4-0.04-1.88-0.25c-0.12-0.02-0.35-0.13-0.69-0.33c-0.02-0.02-0.05-0.05-0.09-0.07
			c-0.04-0.02-0.09-0.05-0.16-0.07l-0.43-0.18c-0.79-0.72-1.38-1.6-1.77-2.64c-0.24-0.7-0.36-1.25-0.36-1.66v-0.58
			c0-0.12,0.07-0.18,0.22-0.18h0.11l0.04-0.36c0-0.14,0.01-0.25,0.04-0.33v-0.04l0.58,0.14c0.29,0.1,0.51,0.21,0.65,0.33
			C236.68,23.91,236.73,23.95,236.73,23.95z"/>
		<path class="st0" d="M257.64,17.01c0,0-0.02,0.02-0.07,0.07l-0.07,0.07h-0.04v0.04h-0.04c0,0.02-0.01,0.04-0.04,0.04l-0.04-0.04
			c-0.17,0.1-0.53,0.16-1.08,0.18v0.04h-0.07h-0.07h-0.07h-0.04h-0.07h-0.07c-0.07,0-0.12-0.01-0.14-0.04h-0.14h-0.11l-0.04-0.04
			l-0.22,0.04l-0.14,0.04h-0.18c-0.07,0.02-0.16,0.04-0.25,0.04h-0.22h-0.18h-0.04l-0.04,0.04l-0.07-0.04h-0.04h-0.11h-0.04h-0.04
			h-0.22l-0.07-0.04h-0.69h-0.11h-0.11l-0.04,0.04l-0.07-0.04c-0.07,0-0.13-0.01-0.18-0.04v0.14c0.05,0.07,0.01,0.65-0.11,1.73
			l0.07,0.36l0.04,0.07c0.05,0.26,0.06,0.53,0.04,0.79c0,0.1-0.01,0.16-0.04,0.18c-0.05,0.05-0.07,0.12-0.07,0.22l0.07,0.11v0.4
			c-0.02,0.12-0.04,0.29-0.04,0.51l-0.04,0.25h-0.11c0.07,0.07,0.11,0.21,0.11,0.4l-0.04,0.83c-0.05,0.53-0.06,0.92-0.04,1.16v0.18
			v0.14c0,0.05,0.01,0.08,0.04,0.11v0.14v0.18l-0.04,0.22v0.22c0,0.26,0.01,0.46,0.04,0.58c0,0.07,0.01,0.12,0.04,0.14v0.18
			l0.07,0.18l0.07,0.14c0.02,0.24-0.01,0.69-0.11,1.34c-0.02,0-0.04,0.01-0.04,0.04h0.14h0.11h0.4h0.4h0.07h0.04h0.04h0.04
			c0.05-0.02,0.24-0.04,0.58-0.04l0.54,0.04l0.51,0.07l0.07-0.04l0.07-0.04c0.02-0.02,0.11-0.04,0.25-0.04l0.07,0.04
			c0,0.02,0.01,0.04,0.04,0.04l0.04-0.04h0.14h0.14l0.07,0.04v0.07c0.05-0.07,0.12-0.1,0.22-0.07c0.24,0.05,0.42,0.06,0.54,0.04
			h0.04h0.07l0.04-0.04h0.04h0.07l0.07,0.04c0.05,0.02,0.13,0.01,0.25-0.04h0.07l0.07-0.04l0.04-0.04h0.04h0.07
			c0.12,0,0.25,0.02,0.4,0.05s0.24,0.07,0.29,0.09l0.07,0.04c0.02,0.02,0.04,0.1,0.04,0.22l0.07,0.04l0.04,0.07
			c-0.02,0.02-0.04,0.1-0.04,0.22c0,0.12-0.02,0.28-0.07,0.47c0,0.02-0.02,0.06-0.07,0.11l-0.14,0.11h-0.04h-0.04h-0.04v0.04h-0.07
			c-0.14,0.05-0.59,0.1-1.34,0.14l-0.04,0.04l-0.04-0.04h-0.11h-0.07l-0.07,0.04l-0.07-0.04h-0.07c-0.07,0-0.13-0.01-0.18-0.04
			h-0.18l-0.07-0.04h-0.11h-0.29l-0.18,0.04h-0.22c-0.07,0.02-0.17,0.04-0.29,0.04h-0.29h-0.25h-0.04h-0.07h-0.07h-0.04
			c-0.05-0.05-0.1-0.05-0.14,0h-0.04l-0.04-0.04h-0.29v0.04l-0.07-0.04c-0.07-0.02-0.4-0.04-0.98-0.04h-0.14h-0.18l-0.04,0.04
			l-0.04-0.04h-0.04l-0.65-0.11l-0.14-0.04h-0.18l-0.36-0.07c-0.07,0-0.11-0.01-0.11-0.04h-0.04h-0.04v-0.04h-0.04h-0.04
			c-0.02,0-0.04-0.01-0.04-0.04v-0.04c-0.07-0.05-0.11-0.08-0.11-0.11h-0.04c-0.02-0.02-0.04-0.11-0.04-0.25
			c0-0.02-0.02-0.08-0.07-0.18c-0.02-0.07-0.06-0.13-0.11-0.18v-0.07v-0.07h-0.04V28.5v-0.07h-0.04c-0.05,0-0.05-0.02,0-0.07v-0.11
			c-0.1-0.55-0.17-1.85-0.22-3.9l-0.07-0.07c0-0.1,0.01-0.18,0.04-0.25v-0.25v-0.22c-0.02-0.05-0.04-0.12-0.04-0.22
			c0-0.1,0.01-0.18,0.04-0.25v-0.22l0.07-1.16c0-0.12,0.01-0.23,0.04-0.33c0.02-0.07,0.04-0.17,0.04-0.29c0-0.31-0.01-0.6-0.04-0.87
			l-0.04-0.69v-0.65c-0.02-0.26-0.04-0.57-0.04-0.9c0-0.36,0.01-0.67,0.04-0.94v-0.79v-0.22c-0.02-0.02-0.04-0.07-0.04-0.14
			c0-0.1,0.01-0.17,0.04-0.22v-0.14v-0.25V15.1c-0.02-0.02-0.04-0.06-0.04-0.11c0-0.05,0.01-0.08,0.04-0.11v-0.07
			c0.02-0.22,0.04-0.52,0.04-0.9h-0.04l0.04-0.25c0.02-0.19,0.04-0.76,0.04-1.7v-1.23v-0.51V9.79l-0.04-0.11
			c0-0.07,0.01-0.13,0.04-0.18V9.39l0.14-1.77c0-0.38,0.02-0.7,0.07-0.94c0-0.17,0.01-0.31,0.04-0.43l0.07-0.51
			c0-0.17,0.01-0.26,0.04-0.29c-0.05-0.05-0.07-0.08-0.07-0.11h-0.04c-0.05-0.22-0.05-0.35,0-0.4l0.04-0.07l0.07-0.11V4.73h0.04
			l0.04-0.07c0.1-0.1,0.16-0.19,0.18-0.29l0.07-0.07h0.54c0.14,0,0.26,0.01,0.36,0.04c0.1,0.02,0.2,0.04,0.32,0.04
			c0.07,0,0.13-0.01,0.18-0.04h0.14l0.47,0.04h0.36h0.07h0.04h0.04l0.04-0.04h0.69h0.61l0.61,0.07c0.05,0,0.08-0.01,0.11-0.04
			l0.07-0.04c0.05-0.02,0.14-0.04,0.29-0.04c0.05,0,0.08,0.01,0.11,0.04c0,0.02,0.02,0.04,0.07,0.04l0.04-0.04h0.14h0.22l0.07,0.04
			v0.04c0.05-0.05,0.14-0.06,0.29-0.04l0.33,0.04l0.36-0.04h0.07h0.07h0.04h0.04h0.11h0.07c0.1,0.02,0.21,0.02,0.33,0h0.07L258,4.34
			l0.07-0.04l0.04-0.04h0.07c0.14,0,0.29,0.02,0.45,0.05c0.16,0.04,0.27,0.07,0.34,0.09l0.07,0.04c0.02,0,0.04,0.06,0.04,0.18
			l0.07,0.04l0.07,0.07c-0.02,0.02-0.04,0.12-0.04,0.29l-0.07,0.4c-0.12,0.12-0.21,0.18-0.25,0.18h-0.04v0.04h-0.04h-0.04v0.04
			h-0.04h-0.04c-0.17,0.05-0.71,0.1-1.63,0.14l-0.04,0.04l-0.07-0.04c-0.05,0-0.08,0.01-0.11,0.04h-0.07h-0.11h-0.11
			c-0.05,0-0.07-0.01-0.07-0.04h-0.25h-0.22c-0.02-0.02-0.06-0.04-0.11-0.04h-0.14h-0.33l-0.25,0.04h-0.25
			c-0.1,0.02-0.22,0.04-0.36,0.04h-0.32h-0.33h-0.04h-0.07h-0.07h-0.07c-0.05-0.05-0.1-0.05-0.14,0h-0.04
			c-0.02,0-0.04-0.01-0.04-0.04h-0.04h-0.33v0.04l-0.07-0.04c-0.12-0.02-0.35-0.04-0.69-0.04c0.02,0.02,0.04,0.07,0.04,0.14
			c0.05,0.34,0.07,0.95,0.07,1.84c0,0.43-0.01,0.81-0.04,1.12c-0.02,0.31-0.04,0.65-0.04,1.01l-0.04,0.25l0.04,0.29v0.51v1.34
			l-0.04,0.79c0,0.1,0.01,0.17,0.02,0.22c0.01,0.05,0.02,0.08,0.02,0.11v0.14v0.14c0,0.07,0.01,0.12,0.04,0.14v0.14
			c0.02,0.29,0.04,0.96,0.04,2.02h0.14c0.05,0.02,0.11,0.04,0.18,0.04h0.14h0.11h0.29c0.17,0.02,0.25,0.02,0.25,0h0.07h0.04h0.04
			c0.07-0.02,0.22-0.04,0.43-0.04h0.4l0.4,0.07l0.07-0.04l0.04-0.04c0.02-0.02,0.08-0.04,0.18-0.04l0.07,0.04
			c0,0.02,0.01,0.04,0.04,0.04l0.04-0.04h0.11h0.11l0.07,0.04v0.04c0.05-0.05,0.11-0.06,0.18-0.04c0.14,0.02,0.29,0.02,0.43,0h0.07
			h0.04l0.04-0.04h0.04h0.04l0.04,0.04c0.1,0,0.18-0.01,0.25-0.04l0.14-0.07v-0.04h0.07c0.12,0,0.23,0.01,0.33,0.04l0.22,0.07
			l0.07,0.07v0.18l0.07,0.04v0.04h0.04l-0.07,0.65C257.64,17,257.64,17.01,257.64,17.01z"/>
		<path class="st0" d="M271.94,29.55l-0.14-0.04v-0.04v-0.04h-0.04c-0.02,0-0.02-0.01,0-0.04h-0.04h-0.04v-0.04v-0.04
			c-0.14-0.19-0.24-0.75-0.29-1.66l-0.07-0.04l0.04-0.14v-0.11c-0.05-0.05-0.07-0.12-0.07-0.22c0-0.05,0.01-0.08,0.04-0.11
			c0.02-0.02,0.04-0.07,0.04-0.14c0-0.14,0.01-0.25,0.04-0.33v-0.25c0-0.07,0.01-0.13,0.04-0.18v-0.14l-0.11-0.83l-0.07-0.43
			l-0.11-0.43c-0.02-0.17-0.05-0.34-0.07-0.52c-0.02-0.18-0.05-0.32-0.07-0.42l-0.04-0.07c-0.02-0.02-0.04-0.06-0.04-0.11v-0.11
			v-0.07c0-0.05-0.02-0.12-0.07-0.22c0-0.02-0.01-0.04-0.04-0.04l0.04-0.07v-0.04l-0.11-0.43h-0.04v-0.14
			c-0.07-0.36-0.27-0.79-0.58-1.3l-0.07-0.14c-0.02-0.12-0.07-0.2-0.14-0.25h-0.04l-0.04-0.07v-0.07c-0.12-0.12-0.29-0.37-0.51-0.76
			l-0.18-0.22c-0.1-0.07-0.14-0.12-0.14-0.14l-0.29-0.25l-0.25-0.25h-0.04l-0.04-0.04v-0.04h-0.04l-0.07-0.07v-0.04l-0.04-0.04
			l-0.11-0.14l-0.04-0.04c-0.02-0.02-0.02-0.08,0-0.18c-0.87,0.27-1.43,0.4-1.7,0.4c-0.1,0.02-0.22,0.04-0.36,0.04
			c-0.07-0.05-0.11-0.08-0.11-0.11h-0.04c0,0.31-0.04,0.72-0.11,1.23l0.11,0.43l0.04,0.11c0.05,0.34,0.06,0.65,0.04,0.94
			c0,0.12-0.01,0.19-0.04,0.22c-0.05,0.1-0.07,0.19-0.07,0.29l0.04,0.07v0.47v0.61l-0.07,0.29h-0.11c0.1,0.14,0.13,0.43,0.11,0.87
			c-0.07,0.65-0.1,1.23-0.07,1.73v0.14v0.18l0.04,0.07v0.14c0,0.12-0.02,0.25-0.07,0.4c0,0.31,0.01,0.55,0.04,0.72
			c0,0.05,0.01,0.08,0.04,0.11c0,0.07,0.04,0.17,0.11,0.29l0.04,0.14v0.18c0,0.24-0.05,0.49-0.14,0.76
			c-0.07,0.26-0.12,0.41-0.14,0.43l-0.11,0.11c-0.02,0.02-0.13,0.04-0.33,0.04l-0.11,0.07c-0.05,0.05-0.08,0.07-0.11,0.07
			l-1.16-0.18c-0.05,0-0.11-0.05-0.18-0.14l-0.14-0.14v-0.07V28.9h-0.04v-0.04v-0.07l-0.04,0.04c-0.02-0.02-0.02-0.05,0-0.07v-0.04
			c-0.12-0.43-0.18-1.54-0.18-3.32l-0.04-0.11c-0.05-0.05-0.05-0.13,0-0.25v-0.25v-0.22l-0.04-0.22l0.07-0.54
			c0-0.53,0.02-0.96,0.07-1.3l0.04-0.36v-0.33c0.02-0.1,0.04-0.25,0.04-0.47c0-0.26-0.01-0.47-0.04-0.61l-0.04-0.76l-0.04-0.87
			c-0.02-0.31-0.04-0.66-0.04-1.05c0-0.43,0.01-0.81,0.04-1.12v-1.01c0-0.1-0.01-0.17-0.04-0.22c-0.02-0.05-0.04-0.12-0.04-0.22
			c0-0.1,0.01-0.18,0.04-0.25l0.04-0.18v-0.29c-0.02-0.07-0.04-0.16-0.04-0.25v-0.11c0-0.05,0.01-0.08,0.04-0.11v-0.07v-1.08h-0.04
			l0.04-0.29c0.02-0.48,0-1.55-0.07-3.21c0-0.19,0.01-0.37,0.04-0.54c0-0.24-0.01-0.37-0.04-0.4L263.2,8.6
			c0-0.07,0.01-0.12,0.04-0.14V8.35c0-0.22,0.02-0.76,0.07-1.63V6.36v-0.4c0.02-0.05,0.04-0.16,0.04-0.32c0-0.19,0.01-0.33,0.04-0.4
			c0-0.1,0.01-0.16,0.04-0.18V5.02V4.91l0.04,0.04V4.88V4.81l0.04-0.04l0.07-0.04c0-0.1,0.04-0.16,0.11-0.18
			c0.02,0,0.04-0.01,0.04-0.04V4.48c0.1-0.02,0.21-0.05,0.34-0.07c0.13-0.02,0.24-0.02,0.31,0l0.14,0.04h0.04l0.22-0.11
			c0.77-0.24,1.48-0.36,2.13-0.36c0.26,0,0.73,0.05,1.41,0.14l0.87,0.22c0.6,0.24,1.24,0.61,1.91,1.12c0.02,0,0.06,0.02,0.11,0.07
			l0.07,0.07l0.11,0.11l0.11,0.07c0.34,0.36,0.67,0.84,0.99,1.43c0.33,0.59,0.56,1.11,0.71,1.57c0.1,0.31,0.14,0.92,0.14,1.81
			l0.07,0.36l0.04,0.07l0.04,0.33c0,0.1-0.02,0.27-0.07,0.51l-0.07,0.22l-0.11,0.22l0.04,0.11c-0.1,0.41-0.19,0.73-0.29,0.98
			l-0.14,0.22h-0.07v0.07c0,0.14-0.1,0.37-0.29,0.69c-0.39,0.55-0.76,1.05-1.12,1.48l-0.14,0.14c-0.07,0.02-0.11,0.06-0.11,0.11
			c0,0.02-0.02,0.06-0.07,0.11c-0.05,0.05-0.1,0.08-0.14,0.11c-0.12,0.12-0.41,0.33-0.87,0.61c-0.19,0.14-0.29,0.23-0.29,0.25
			c-0.1,0.02-0.21,0.1-0.33,0.22c-0.07,0.02-0.13,0.06-0.18,0.11c-0.05,0.05-0.07,0.08-0.07,0.11c0.1-0.02,0.18-0.02,0.25,0
			c0.41,0.14,0.77,0.31,1.08,0.51c0.31,0.19,0.71,0.53,1.19,1.01c0.29,0.29,0.45,0.46,0.47,0.51l0.87,1.44v0.07l0.07,0.07
			c0,0.05,0.04,0.11,0.11,0.18c0.22,0.48,0.42,1.24,0.61,2.28c0.02,0.02,0.04,0.14,0.04,0.36c0,0.29-0.01,0.54-0.04,0.76l0.07,0.14
			l0.11,0.11c0.05,0.14,0.07,0.3,0.07,0.47c0,0.05-0.01,0.08-0.04,0.11l-0.07,0.14l0.04,0.07l0.04,0.22v0.32l-0.07,0.14h-0.07
			c0.1,0.02,0.12,0.16,0.07,0.4c-0.05,0.39-0.06,0.66-0.04,0.83l0.04,0.07l-0.04,0.07c0,0.02,0.01,0.04,0.04,0.04l0.04,0.07
			l-0.04,0.07c-0.02,0.02-0.04,0.06-0.04,0.11c0,0.1,0.02,0.19,0.07,0.29v0.07c0,0.02,0.01,0.04,0.04,0.04l0.07,0.07l0.07,0.04
			c0.05,0.1,0.02,0.19-0.07,0.29l-0.25,0.07l-0.32,0.11c-0.05,0-0.08,0.01-0.11,0.04l-0.04,0.04h-0.04
			c-0.65,0.24-1.02,0.37-1.12,0.4L271.94,29.55z M265.59,5.28c0.12,0.53,0.18,1.34,0.18,2.42c-0.02,0.34-0.04,0.69-0.04,1.05
			c0,0.36,0.02,0.71,0.07,1.05v1.37c0,0.75,0.01,1.2,0.04,1.37v0.14v0.18c0,0.07,0.01,0.12,0.04,0.14v0.14l0.07,4.3v0.25
			c0.17-0.1,0.28-0.14,0.33-0.14l0.22-0.07l0.07-0.04h0.11c0.02,0,0.02-0.01,0-0.04c0.02,0,0.06,0,0.11-0.02
			c0.05-0.01,0.07-0.03,0.07-0.05c0.05,0,0.08-0.01,0.11-0.04c0.02-0.02,0.06-0.04,0.11-0.04c1.32-0.79,2.3-1.67,2.93-2.64
			l0.04-0.07l0.07-0.22l0.11-0.18c0-0.1,0.04-0.22,0.11-0.36c0-0.05,0.02-0.1,0.05-0.16c0.04-0.06,0.07-0.11,0.09-0.16
			c0.05-0.1,0.14-0.4,0.29-0.9l0.11-0.43c0.05-0.63-0.04-1.41-0.25-2.35c-0.12-0.65-0.22-1.06-0.29-1.23c0-0.05-0.01-0.08-0.04-0.11
			c-0.07-0.07-0.11-0.16-0.11-0.25V8.13c-0.02-0.02-0.04-0.05-0.04-0.09s-0.01-0.07-0.04-0.09l-0.07-0.11l-0.04-0.04
			c-0.02-0.02-0.02-0.05,0-0.07l-0.04-0.07l-0.25-0.51h-0.04l-0.07-0.14c-0.31-0.53-0.74-0.99-1.26-1.37
			c-0.24-0.17-0.41-0.27-0.5-0.29h-0.07l-0.07-0.07l-0.07-0.04c-0.53-0.17-0.94-0.25-1.23-0.25c-0.19,0-0.43,0.04-0.72,0.11
			c-0.07,0-0.12,0.01-0.14,0.04L265.59,5.28z"/>
		<path class="st0" d="M283.29,29.51c0,0-0.05-0.07-0.14-0.22c-0.12-0.14-0.19-0.22-0.22-0.22l-0.04-0.07V28.9l-0.04,0.04
			c-0.02,0-0.04-0.02-0.04-0.07c0-0.05-0.01-0.08-0.04-0.11l-0.04,0.04v-0.11l-0.04-0.07c-0.26-0.55-0.7-1.9-1.3-4.05l-0.07-0.07
			c-0.02-0.02-0.04-0.06-0.04-0.11c0-0.05-0.01-0.1-0.04-0.14l-0.07-0.25l-0.04-0.22c-0.07-0.19-0.12-0.35-0.14-0.47
			c-0.02-0.07-0.04-0.17-0.04-0.29c-0.1-0.31-0.18-0.72-0.25-1.23c-0.02-0.05-0.04-0.16-0.04-0.33l-0.07-0.29
			c-0.05-0.19-0.22-0.72-0.51-1.59l-0.47-1.63l-0.25-0.94l-0.22-0.87c0-0.07-0.01-0.13-0.04-0.18c-0.07-0.14-0.11-0.28-0.11-0.4
			l-0.11-0.4c-0.02-0.02-0.04-0.05-0.04-0.09s-0.01-0.07-0.04-0.09l-0.04-0.11v-0.14v-0.07l-0.22-0.9h-0.04l-0.04-0.29
			c-0.07-0.41-0.33-1.38-0.76-2.93l-0.25-0.94l-0.07-0.07V9.36V9.25c-0.12-0.48-0.23-1.07-0.33-1.77c-0.12-0.48-0.18-0.79-0.18-0.94
			c-0.1-0.48-0.14-0.79-0.14-0.94l-0.04-0.29V5.2l-0.04-0.07c0-0.02,0.01-0.04,0.04-0.04V5.02c-0.02-0.02-0.04-0.06-0.04-0.11
			l0.04-0.04l0.04-0.07l0.07-0.29l0.04-0.07V4.41c0.02-0.05,0.11-0.1,0.25-0.14c0.14-0.05,0.25-0.07,0.33-0.07
			c0.05,0,0.11,0.02,0.18,0.05c0.07,0.04,0.14,0.08,0.22,0.13c0,0.02,0.01,0.02,0.04,0h0.07l0.07,0.07l0.04,0.07
			c0.07,0.07,0.18,0.14,0.33,0.22c0.34,0.17,0.52,0.34,0.54,0.51c0.12,0.34,0.26,0.78,0.43,1.34c0.17,0.55,0.29,1.05,0.36,1.48
			l0.22,1.05l0.14,0.51l0.14,0.51l0.36,1.19l0.33,1.26c0,0.07,0.01,0.12,0.04,0.14c0,0.05,0.02,0.14,0.07,0.29l0.07,0.11l0.58,2.09
			l0.4,1.55c0.02,0.02,0.14,0.64,0.36,1.84c0,0.07,0.06,0.17,0.18,0.29l0.07,0.11c0.07,0.14,0.16,0.41,0.25,0.79v0.22
			c-0.02,0.07-0.02,0.16,0,0.25l0.07,0.07l0.11,0.43c0-0.07,0.05,0.11,0.14,0.54v0.29h-0.11c0.17,0.12,0.26,0.39,0.29,0.79
			c0.1,0.58,0.24,1.16,0.43,1.73c0.02,0,0.05,0.07,0.07,0.22c0.02-0.07,0.04-0.16,0.04-0.25c0.12-0.46,0.23-0.92,0.34-1.39
			s0.19-0.79,0.24-0.96c0-0.12,0.02-0.2,0.07-0.25v-0.18c0-0.05,0.01-0.08,0.04-0.11c0.1-0.6,0.25-1.31,0.47-2.13
			c0.24-0.94,0.36-1.45,0.36-1.52l0.54-1.81c0.02-0.02,0.04-0.08,0.04-0.18v-0.22v-0.11c0-0.17,0.06-0.46,0.18-0.87l0.11-0.22
			l0.07-0.22v-0.11l0.11-0.47l0.14-0.58l0.11-0.25h0.07v-0.14c0-0.19,0.05-0.43,0.14-0.72c0.22-0.75,0.38-1.38,0.51-1.91l0.11-0.36
			V9.25c0-0.14,0.04-0.28,0.11-0.4l0.07-0.22c0.12-0.34,0.19-0.66,0.22-0.98l0.04-0.18c0.02-0.05,0.04-0.11,0.04-0.18V7.05
			c-0.02-0.1-0.02-0.16,0-0.18c0.05-0.31,0.2-0.83,0.47-1.55c0.17-0.48,0.29-0.76,0.36-0.83c0.02-0.02,0.05-0.07,0.07-0.14
			s0.06-0.11,0.11-0.13s0.12-0.01,0.22,0.02l0.11-0.14l0.14-0.18l0.29,0.14c0.22,0.12,0.4,0.25,0.54,0.4
			c0.05,0.05,0.07,0.18,0.07,0.4v0.33c0,0.05-0.01,0.08-0.04,0.11c-0.02,0.02-0.04,0.06-0.04,0.11h0.04c0.05,0.02,0.05,0.06,0,0.11
			l-0.04,0.07c0,0.02,0.01,0.04,0.04,0.04v0.07c-0.02,0.02-0.04,0.06-0.04,0.11c-0.1,0.75-0.43,2.31-1.01,4.7v0.11
			c-0.02,0.1-0.05,0.2-0.07,0.31c-0.02,0.11-0.05,0.19-0.07,0.23c0,0.1-0.01,0.18-0.04,0.25l-0.04,0.22l-0.11,0.29l-0.07,0.29
			l-0.22,0.69l-0.18,0.61l-0.22,0.65l-0.18,0.97l-0.18,0.76c-0.02,0.19-0.07,0.45-0.13,0.78c-0.06,0.33-0.13,0.63-0.2,0.92
			c-0.1,0.29-0.19,0.6-0.27,0.94c-0.08,0.34-0.15,0.63-0.2,0.87c-0.02,0.05-0.04,0.12-0.04,0.22c0,0.14-0.02,0.26-0.07,0.36
			c-0.07,0.17-0.11,0.3-0.11,0.4l-0.04,0.22c-0.02,0.02-0.04,0.06-0.04,0.11c0,0.05-0.01,0.08-0.04,0.11l-0.04,0.04l-0.25,0.9h0.04
			l-0.11,0.25l-0.65,2.78l-0.11,0.43l-0.11,0.4v0.11c0,0.07-0.01,0.12-0.04,0.14c-0.02,0.02-0.04,0.06-0.04,0.11l-0.47,1.52
			c-0.02,0.02-0.07,0.17-0.14,0.43v0.11c0.05,0.48,0.06,0.73,0.04,0.76v0.29c0,0.05-0.11,0.1-0.33,0.14l-0.04,0.18l-0.07,0.18
			c-0.14,0-0.25,0.01-0.33,0.04c-0.02,0.07-0.06,0.11-0.11,0.11l-0.07,0.04v0.04l-0.14,0.04c-0.22,0-0.33-0.04-0.33-0.11l-0.11-0.11
			h-0.14C283.32,29.54,283.29,29.51,283.29,29.51z"/>
		<path class="st0" d="M301.85,4.66c0.17,0,0.37,0.11,0.61,0.33c0.12,0.1,0.21,0.14,0.25,0.14s0.08,0.04,0.11,0.11l0.11,0.14
			l0.04-0.04l0.18,0.33c0.02,0,0.04-0.01,0.04-0.04h0.04c0.02,0.02,0.05,0.05,0.07,0.09c0.02,0.04,0.06,0.09,0.11,0.16
			c0.6,1.18,1.12,2.81,1.55,4.89c0.43,2.08,0.72,4.29,0.87,6.63l0.04,0.33c0.02,0.34,0.02,0.83,0,1.46
			c-0.02,0.64-0.05,1.15-0.07,1.54c-0.02,0.39-0.1,0.89-0.22,1.52c-0.24,1.28-0.52,2.37-0.83,3.29c-0.19,0.51-0.41,0.97-0.65,1.41
			c-0.55,0.96-1.19,1.69-1.92,2.17c-0.72,0.48-1.5,0.72-2.35,0.72c-0.34,0-0.69-0.04-1.05-0.11c-1.11-0.24-2.13-1.05-3.07-2.42
			c-0.05-0.07-0.12-0.19-0.22-0.34c-0.1-0.16-0.18-0.34-0.25-0.54c-0.07-0.2-0.16-0.46-0.25-0.78c-0.12-0.31-0.19-0.51-0.22-0.58
			l-0.14-0.47c-0.02-0.1-0.05-0.19-0.09-0.29c-0.04-0.1-0.07-0.19-0.09-0.29V23.8c-0.17-0.87-0.3-1.7-0.4-2.49h-0.04h-0.04v-0.79
			l-0.04-2.06c0-2.75,0.14-4.95,0.43-6.61l0.29-1.26l0.29-1.16l0.04-0.25c0-0.05,0.03-0.14,0.09-0.27c0.06-0.13,0.11-0.26,0.16-0.38
			c0.38-0.87,0.7-1.51,0.96-1.93c0.25-0.42,0.6-0.85,1.03-1.28c0.34-0.39,0.7-0.64,1.08-0.78c0.38-0.13,0.84-0.21,1.37-0.23
			c0.41,0,0.73,0.02,0.98,0.07l0.22,0.04l0.22,0.04v0.04h0.25c0.1,0.02,0.17,0.05,0.22,0.07c0.05,0.02,0.11,0.06,0.18,0.11H301.85z
			 M303.01,23.91c0,0.14,0.01,0.22,0.04,0.22c0.02,0,0.04-0.06,0.04-0.18c-0.05-0.31-0.01-0.79,0.11-1.44
			c0.02-0.14,0.04-0.27,0.05-0.38c0.01-0.11,0.03-0.19,0.05-0.23c0.14-1.2,0.22-2.43,0.22-3.68c0-0.58-0.01-1.01-0.04-1.3
			l-0.04-1.01l-0.11-0.76l-0.04-0.29l0.04-0.36c-0.05-0.43-0.07-0.64-0.07-0.61c-0.12-1.01-0.24-1.82-0.36-2.42
			c-0.07-0.36-0.14-0.64-0.22-0.83c-0.07-0.19-0.14-0.37-0.22-0.54c-0.02-0.07-0.05-0.14-0.07-0.2c-0.02-0.06-0.05-0.1-0.07-0.13
			c-0.07-0.19-0.24-0.77-0.5-1.73c-0.19-0.67-0.3-1.02-0.33-1.05L301.17,6c0-0.12-0.01-0.2-0.04-0.25
			c-0.02-0.02-0.05-0.08-0.07-0.18c-0.02-0.1-0.05-0.16-0.07-0.18c-0.48-0.14-0.87-0.22-1.16-0.22c-0.63,0-1.14,0.4-1.55,1.19
			c-1.01,2.05-1.61,4.18-1.81,6.39c-0.17,1.66-0.25,3.31-0.25,4.95c0,0.84,0.01,1.47,0.04,1.88c0.05,0.24,0.07,0.48,0.07,0.72
			l0.11,0.76c0.31,1.45,0.7,2.82,1.16,4.12c0.46,1.3,0.87,2.19,1.23,2.67c0.48,0.58,1.01,0.87,1.59,0.87c0.07,0,0.23-0.02,0.47-0.07
			c0.17-0.05,0.31-0.19,0.43-0.43c0.26-0.36,0.47-0.69,0.61-0.98c0.02-0.1,0.05-0.16,0.09-0.2s0.05-0.07,0.05-0.09l0.18-0.36
			l0.04-0.18c0.07-0.22,0.25-0.85,0.54-1.91l0.07-0.22l0.07-0.25L303.01,23.91z"/>
		<path class="st0" d="M311.35,26.55c0,0,0.01,0,0.04,0h0.04v-0.04h0.04h0.04h0.07v-0.04l0.04,0.04v-0.04h0.04h0.04
			c0.26-0.02,0.5,0.08,0.7,0.31c0.2,0.23,0.34,0.48,0.42,0.74l0.04,0.07v0.04v0.07v0.11c0.02,0.02,0.04,0.07,0.04,0.14l0.04,0.04
			v0.07v0.11l0.04,0.04v0.07v0.11l-0.04,0.07l-0.07,0.4l-0.07,0.07l-0.07,0.07c-0.1,0.24-0.17,0.39-0.22,0.45
			c-0.05,0.06-0.13,0.13-0.25,0.2l-0.36,0.07h-0.04h-0.04h-0.07l-0.07,0.04h-0.04h-0.04h-0.14v0.04h-0.25
			c-0.07,0.14-0.13,0.22-0.18,0.24c-0.05,0.01-0.08,0.02-0.11,0.02l-0.07,0.04h-0.04h-0.04v0.04v-0.04v0.04
			c-0.02,0-0.04-0.01-0.04-0.04c-0.12,0-0.29-0.12-0.51-0.36l-0.04-0.04h-0.04c-0.12-0.02-0.24-0.1-0.36-0.22l-0.04,0.04l-0.11-0.14
			c-0.24-0.65-0.35-1.17-0.33-1.55l0.14-0.47l-0.04-0.07l0.14-0.11l0.25-0.14l0.04-0.04l0.07-0.14l0.04-0.07
			c0.05-0.05,0.08-0.07,0.11-0.07h0.04v-0.04h0.04h0.07h0.11h0.04l0.36,0.07v-0.04h0.04v0.04v-0.04h0.04h0.04
			c0.02-0.02,0.04-0.03,0.05-0.02c0.01,0.01,0.02,0.03,0.02,0.05h0.04l0.04,0.04c0.14-0.05,0.23-0.06,0.25-0.04h0.04v-0.07
			C311.31,26.59,311.35,26.55,311.35,26.55z"/>
		<path class="st0" d="M323.74,4.66c0.17,0,0.37,0.11,0.61,0.33c0.12,0.1,0.21,0.14,0.25,0.14s0.08,0.04,0.11,0.11l0.11,0.14
			l0.04-0.04l0.18,0.33c0.02,0,0.04-0.01,0.04-0.04h0.04c0.02,0.02,0.05,0.05,0.07,0.09c0.02,0.04,0.06,0.09,0.11,0.16
			c0.6,1.18,1.12,2.81,1.55,4.89c0.43,2.08,0.72,4.29,0.87,6.63l0.04,0.33c0.02,0.34,0.02,0.83,0,1.46
			c-0.02,0.64-0.05,1.15-0.07,1.54c-0.02,0.39-0.1,0.89-0.22,1.52c-0.24,1.28-0.52,2.37-0.83,3.29c-0.19,0.51-0.41,0.97-0.65,1.41
			c-0.55,0.96-1.19,1.69-1.92,2.17c-0.72,0.48-1.5,0.72-2.35,0.72c-0.34,0-0.69-0.04-1.05-0.11c-1.11-0.24-2.13-1.05-3.07-2.42
			c-0.05-0.07-0.12-0.19-0.22-0.34c-0.1-0.16-0.18-0.34-0.25-0.54c-0.07-0.2-0.16-0.46-0.25-0.78c-0.12-0.31-0.19-0.51-0.22-0.58
			l-0.14-0.47c-0.02-0.1-0.05-0.19-0.09-0.29c-0.04-0.1-0.07-0.19-0.09-0.29V23.8c-0.17-0.87-0.3-1.7-0.4-2.49h-0.04h-0.04v-0.79
			l-0.04-2.06c0-2.75,0.14-4.95,0.43-6.61l0.29-1.26l0.29-1.16l0.04-0.25c0-0.05,0.03-0.14,0.09-0.27c0.06-0.13,0.11-0.26,0.16-0.38
			c0.38-0.87,0.7-1.51,0.96-1.93c0.25-0.42,0.6-0.85,1.03-1.28c0.34-0.39,0.7-0.64,1.08-0.78c0.38-0.13,0.84-0.21,1.37-0.23
			c0.41,0,0.73,0.02,0.98,0.07l0.22,0.04l0.22,0.04v0.04h0.25c0.1,0.02,0.17,0.05,0.22,0.07c0.05,0.02,0.11,0.06,0.18,0.11H323.74z
			 M324.9,23.91c0,0.14,0.01,0.22,0.04,0.22c0.02,0,0.04-0.06,0.04-0.18c-0.05-0.31-0.01-0.79,0.11-1.44
			c0.02-0.14,0.04-0.27,0.05-0.38c0.01-0.11,0.03-0.19,0.05-0.23c0.14-1.2,0.22-2.43,0.22-3.68c0-0.58-0.01-1.01-0.04-1.3
			l-0.04-1.01l-0.11-0.76l-0.04-0.29l0.04-0.36c-0.05-0.43-0.07-0.64-0.07-0.61c-0.12-1.01-0.24-1.82-0.36-2.42
			c-0.07-0.36-0.14-0.64-0.22-0.83c-0.07-0.19-0.14-0.37-0.22-0.54c-0.02-0.07-0.05-0.14-0.07-0.2c-0.02-0.06-0.05-0.1-0.07-0.13
			c-0.07-0.19-0.24-0.77-0.5-1.73c-0.19-0.67-0.3-1.02-0.33-1.05L323.05,6c0-0.12-0.01-0.2-0.04-0.25
			c-0.02-0.02-0.05-0.08-0.07-0.18c-0.02-0.1-0.05-0.16-0.07-0.18c-0.48-0.14-0.87-0.22-1.16-0.22c-0.63,0-1.14,0.4-1.55,1.19
			c-1.01,2.05-1.61,4.18-1.81,6.39c-0.17,1.66-0.25,3.31-0.25,4.95c0,0.84,0.01,1.47,0.04,1.88c0.05,0.24,0.07,0.48,0.07,0.72
			l0.11,0.76c0.31,1.45,0.7,2.82,1.16,4.12c0.46,1.3,0.87,2.19,1.23,2.67c0.48,0.58,1.01,0.87,1.59,0.87c0.07,0,0.23-0.02,0.47-0.07
			c0.17-0.05,0.31-0.19,0.43-0.43c0.26-0.36,0.47-0.69,0.61-0.98c0.02-0.1,0.05-0.16,0.09-0.2s0.05-0.07,0.05-0.09l0.18-0.36
			l0.04-0.18c0.07-0.22,0.25-0.85,0.54-1.91l0.07-0.22l0.07-0.25L324.9,23.91z"/>
		<path class="st0" d="M341.55,29.55l-0.14-0.04v-0.04v-0.04h-0.04c-0.02,0-0.02-0.01,0-0.04h-0.04h-0.04v-0.04v-0.04
			c-0.14-0.19-0.24-0.75-0.29-1.66l-0.07-0.04l0.04-0.14v-0.11c-0.05-0.05-0.07-0.12-0.07-0.22c0-0.05,0.01-0.08,0.04-0.11
			c0.02-0.02,0.04-0.07,0.04-0.14c0-0.14,0.01-0.25,0.04-0.33v-0.25c0-0.07,0.01-0.13,0.04-0.18v-0.14l-0.11-0.83l-0.07-0.43
			l-0.11-0.43c-0.02-0.17-0.05-0.34-0.07-0.52c-0.02-0.18-0.05-0.32-0.07-0.42l-0.04-0.07c-0.02-0.02-0.04-0.06-0.04-0.11v-0.11
			v-0.07c0-0.05-0.02-0.12-0.07-0.22c0-0.02-0.01-0.04-0.04-0.04l0.04-0.07v-0.04l-0.11-0.43h-0.04v-0.14
			c-0.07-0.36-0.27-0.79-0.58-1.3l-0.07-0.14c-0.02-0.12-0.07-0.2-0.14-0.25h-0.04l-0.04-0.07v-0.07c-0.12-0.12-0.29-0.37-0.51-0.76
			l-0.18-0.22c-0.1-0.07-0.14-0.12-0.14-0.14l-0.29-0.25l-0.25-0.25h-0.04l-0.04-0.04v-0.04h-0.04l-0.07-0.07v-0.04l-0.04-0.04
			l-0.11-0.14l-0.04-0.04c-0.02-0.02-0.02-0.08,0-0.18c-0.87,0.27-1.43,0.4-1.7,0.4c-0.1,0.02-0.22,0.04-0.36,0.04
			c-0.07-0.05-0.11-0.08-0.11-0.11h-0.04c0,0.31-0.04,0.72-0.11,1.23l0.11,0.43l0.04,0.11c0.05,0.34,0.06,0.65,0.04,0.94
			c0,0.12-0.01,0.19-0.04,0.22c-0.05,0.1-0.07,0.19-0.07,0.29l0.04,0.07v0.47v0.61l-0.07,0.29h-0.11c0.1,0.14,0.13,0.43,0.11,0.87
			c-0.07,0.65-0.1,1.23-0.07,1.73v0.14v0.18l0.04,0.07v0.14c0,0.12-0.02,0.25-0.07,0.4c0,0.31,0.01,0.55,0.04,0.72
			c0,0.05,0.01,0.08,0.04,0.11c0,0.07,0.04,0.17,0.11,0.29l0.04,0.14v0.18c0,0.24-0.05,0.49-0.14,0.76
			c-0.07,0.26-0.12,0.41-0.14,0.43l-0.11,0.11c-0.02,0.02-0.13,0.04-0.33,0.04l-0.11,0.07c-0.05,0.05-0.08,0.07-0.11,0.07
			l-1.16-0.18c-0.05,0-0.11-0.05-0.18-0.14l-0.14-0.14v-0.07V28.9h-0.04v-0.04v-0.07l-0.04,0.04c-0.02-0.02-0.02-0.05,0-0.07v-0.04
			c-0.12-0.43-0.18-1.54-0.18-3.32l-0.04-0.11c-0.05-0.05-0.05-0.13,0-0.25v-0.25v-0.22l-0.04-0.22l0.07-0.54
			c0-0.53,0.02-0.96,0.07-1.3l0.04-0.36v-0.33c0.02-0.1,0.04-0.25,0.04-0.47c0-0.26-0.01-0.47-0.04-0.61l-0.04-0.76l-0.04-0.87
			c-0.02-0.31-0.04-0.66-0.04-1.05c0-0.43,0.01-0.81,0.04-1.12v-1.01c0-0.1-0.01-0.17-0.04-0.22c-0.02-0.05-0.04-0.12-0.04-0.22
			c0-0.1,0.01-0.18,0.04-0.25l0.04-0.18v-0.29c-0.02-0.07-0.04-0.16-0.04-0.25v-0.11c0-0.05,0.01-0.08,0.04-0.11v-0.07v-1.08h-0.04
			l0.04-0.29c0.02-0.48,0-1.55-0.07-3.21c0-0.19,0.01-0.37,0.04-0.54c0-0.24-0.01-0.37-0.04-0.4l-0.04-0.11
			c0-0.07,0.01-0.12,0.04-0.14V8.35c0-0.22,0.02-0.76,0.07-1.63V6.36v-0.4c0.02-0.05,0.04-0.16,0.04-0.32c0-0.19,0.01-0.33,0.04-0.4
			c0-0.1,0.01-0.16,0.04-0.18V5.02V4.91l0.04,0.04V4.88V4.81l0.04-0.04l0.07-0.04c0-0.1,0.04-0.16,0.11-0.18
			c0.02,0,0.04-0.01,0.04-0.04V4.48c0.1-0.02,0.21-0.05,0.34-0.07c0.13-0.02,0.24-0.02,0.31,0l0.14,0.04h0.04l0.22-0.11
			c0.77-0.24,1.48-0.36,2.13-0.36c0.26,0,0.73,0.05,1.41,0.14l0.87,0.22c0.6,0.24,1.24,0.61,1.91,1.12c0.02,0,0.06,0.02,0.11,0.07
			l0.07,0.07l0.11,0.11l0.11,0.07c0.34,0.36,0.67,0.84,0.99,1.43c0.33,0.59,0.56,1.11,0.71,1.57c0.1,0.31,0.14,0.92,0.14,1.81
			l0.07,0.36l0.04,0.07l0.04,0.33c0,0.1-0.02,0.27-0.07,0.51l-0.07,0.22l-0.11,0.22l0.04,0.11c-0.1,0.41-0.19,0.73-0.29,0.98
			l-0.14,0.22h-0.07v0.07c0,0.14-0.1,0.37-0.29,0.69c-0.39,0.55-0.76,1.05-1.12,1.48l-0.14,0.14c-0.07,0.02-0.11,0.06-0.11,0.11
			c0,0.02-0.02,0.06-0.07,0.11c-0.05,0.05-0.1,0.08-0.14,0.11c-0.12,0.12-0.41,0.33-0.87,0.61c-0.19,0.14-0.29,0.23-0.29,0.25
			c-0.1,0.02-0.21,0.1-0.33,0.22c-0.07,0.02-0.13,0.06-0.18,0.11c-0.05,0.05-0.07,0.08-0.07,0.11c0.1-0.02,0.18-0.02,0.25,0
			c0.41,0.14,0.77,0.31,1.08,0.51c0.31,0.19,0.71,0.53,1.19,1.01c0.29,0.29,0.45,0.46,0.47,0.51l0.87,1.44v0.07l0.07,0.07
			c0,0.05,0.04,0.11,0.11,0.18c0.22,0.48,0.42,1.24,0.61,2.28c0.02,0.02,0.04,0.14,0.04,0.36c0,0.29-0.01,0.54-0.04,0.76l0.07,0.14
			l0.11,0.11c0.05,0.14,0.07,0.3,0.07,0.47c0,0.05-0.01,0.08-0.04,0.11l-0.07,0.14l0.04,0.07l0.04,0.22v0.32l-0.07,0.14h-0.07
			c0.1,0.02,0.12,0.16,0.07,0.4c-0.05,0.39-0.06,0.66-0.04,0.83l0.04,0.07l-0.04,0.07c0,0.02,0.01,0.04,0.04,0.04l0.04,0.07
			l-0.04,0.07c-0.02,0.02-0.04,0.06-0.04,0.11c0,0.1,0.02,0.19,0.07,0.29v0.07c0,0.02,0.01,0.04,0.04,0.04l0.07,0.07l0.07,0.04
			c0.05,0.1,0.02,0.19-0.07,0.29l-0.25,0.07l-0.32,0.11c-0.05,0-0.08,0.01-0.11,0.04l-0.04,0.04h-0.04
			c-0.65,0.24-1.02,0.37-1.12,0.4L341.55,29.55z M335.19,5.28c0.12,0.53,0.18,1.34,0.18,2.42c-0.02,0.34-0.04,0.69-0.04,1.05
			c0,0.36,0.02,0.71,0.07,1.05v1.37c0,0.75,0.01,1.2,0.04,1.37v0.14v0.18c0,0.07,0.01,0.12,0.04,0.14v0.14l0.07,4.3v0.25
			c0.17-0.1,0.28-0.14,0.33-0.14l0.22-0.07l0.07-0.04h0.11c0.02,0,0.02-0.01,0-0.04c0.02,0,0.06,0,0.11-0.02
			c0.05-0.01,0.07-0.03,0.07-0.05c0.05,0,0.08-0.01,0.11-0.04c0.02-0.02,0.06-0.04,0.11-0.04c1.32-0.79,2.3-1.67,2.93-2.64
			l0.04-0.07l0.07-0.22l0.11-0.18c0-0.1,0.04-0.22,0.11-0.36c0-0.05,0.02-0.1,0.05-0.16c0.04-0.06,0.07-0.11,0.09-0.16
			c0.05-0.1,0.14-0.4,0.29-0.9l0.11-0.43c0.05-0.63-0.04-1.41-0.25-2.35c-0.12-0.65-0.22-1.06-0.29-1.23c0-0.05-0.01-0.08-0.04-0.11
			c-0.07-0.07-0.11-0.16-0.11-0.25V8.13c-0.02-0.02-0.04-0.05-0.04-0.09s-0.01-0.07-0.04-0.09l-0.07-0.11L339.6,7.8
			c-0.02-0.02-0.02-0.05,0-0.07l-0.04-0.07l-0.25-0.51h-0.04l-0.07-0.14c-0.31-0.53-0.74-0.99-1.26-1.37
			c-0.24-0.17-0.41-0.27-0.5-0.29h-0.07l-0.07-0.07l-0.07-0.04c-0.53-0.17-0.94-0.25-1.23-0.25c-0.19,0-0.43,0.04-0.72,0.11
			c-0.07,0-0.12,0.01-0.14,0.04L335.19,5.28z"/>
		<path class="st0" d="M357.33,14.27c0,0,0.02,0.16,0.07,0.47c0.05,0.31,0.07,0.53,0.07,0.65v0.18v0.22h0.04
			c0.02,0,0.04,0.06,0.04,0.18l-0.04,0.22h0.04h0.04v0.18v0.22c0.1,1.06,0.14,1.88,0.14,2.46c0,2.24-0.33,4.58-0.98,7.01l-0.04,0.22
			c-0.07,0.22-0.37,0.86-0.9,1.92c-0.19,0.29-0.4,0.53-0.61,0.72c-0.6,0.53-1.12,0.87-1.55,1.01c-0.46,0.1-0.71,0.14-0.76,0.14
			c-0.17,0.02-0.4,0.04-0.69,0.04c-0.67,0-1.26-0.14-1.75-0.43c-0.49-0.29-0.96-0.77-1.39-1.44c-0.46-0.67-0.93-1.72-1.41-3.14
			l-0.11-0.33c-0.14-0.26-0.23-0.57-0.25-0.9l-0.04-0.29c-0.02-0.12-0.08-0.38-0.18-0.79l-0.11-0.43c-0.02-0.07-0.02-0.16,0-0.25
			v-0.18c-0.07-0.48-0.16-1.23-0.25-2.24h-0.04v-0.72c0.07-3.47,0.29-6.21,0.65-8.24c0.1-0.51,0.28-1.19,0.54-2.06l0.18-0.69
			l0.04-0.29c0.14-0.41,0.25-0.67,0.33-0.79c0.43-0.67,0.82-1.17,1.17-1.48c0.35-0.31,0.87-0.65,1.57-1.01
			c0.87-0.43,1.76-0.65,2.67-0.65c0.34,0,0.59,0.01,0.76,0.04c0.6,0.07,0.99,0.14,1.16,0.22l0.18,0.11l0.22,0.07v0.04
			c0.07,0.02,0.14,0.07,0.22,0.13c0.07,0.06,0.13,0.1,0.18,0.13c0.07,0.07,0.11,0.13,0.11,0.18c0.19,0.19,0.3,0.31,0.33,0.36
			c0.05,0.1,0.07,0.18,0.07,0.25l0.07,0.14l0.04,0.07v0.04c0,0.12-0.08,0.24-0.25,0.36c-0.07,0.05-0.12,0.06-0.14,0.04
			c-0.07-0.07-0.16-0.12-0.25-0.14c-0.12-0.05-0.24-0.13-0.36-0.25l-0.04,0.04c-0.02,0-0.07-0.04-0.14-0.11s-0.12-0.11-0.14-0.11
			c-0.51-0.29-0.94-0.47-1.3-0.54c-0.34-0.05-0.59-0.07-0.76-0.07c-0.84,0-1.58,0.27-2.2,0.79c-0.29,0.27-0.49,0.51-0.61,0.72
			c-0.12,0.17-0.25,0.52-0.4,1.05l-0.18,0.72l-0.22,0.87c-0.24,0.82-0.43,1.77-0.58,2.85c-0.34,2.55-0.47,4.71-0.4,6.47v0.29
			l0.04,0.36l0.11,0.65c0.43,3.03,0.96,5.31,1.59,6.83c0.31,0.77,0.6,1.41,0.87,1.92l0.25,0.22c0.07,0.07,0.14,0.15,0.2,0.23
			c0.06,0.08,0.1,0.15,0.13,0.2c0.12,0.12,0.21,0.18,0.25,0.18h0.04c0.19-0.05,0.37-0.16,0.54-0.32l0.14-0.18l0.04,0.07
			c0-0.07,0.12-0.34,0.36-0.79c0.38-0.79,0.72-1.76,1.01-2.89l0.22-0.83l0.07-0.33c0-0.24,0.05-0.52,0.14-0.83l0.07-0.36
			c0.05-0.58,0.06-1.05,0.04-1.41v-0.29c0-0.31-0.02-0.57-0.07-0.76l-0.07-0.29c-0.05-0.84-0.02-1.93,0.07-3.25
			c0.07-1.08,0.12-1.67,0.14-1.77c0.05-0.05,0.07-0.13,0.07-0.25h-0.04h-0.11h-0.14l-0.07-0.04h-0.07h-0.14l-0.18,0.04h-0.14
			c-0.05,0.02-0.11,0.04-0.18,0.04h-0.18h-0.18h-0.04l-0.04,0.04h-0.04l-0.04-0.04l-0.07,0.04h-0.04l-0.04-0.04h-0.18v0.04
			l-0.04-0.04l-0.51,0.04h-0.11h-0.04v0.04c-0.02,0-0.04-0.01-0.04-0.04h-0.04c-0.1,0-0.18-0.01-0.25-0.04h-0.07h-0.04h-0.07
			c-0.05,0-0.07-0.01-0.07-0.04h-0.04h-0.04v-0.04l-0.04-0.07h-0.04c-0.05-0.14-0.06-0.23-0.04-0.25v-0.07v-0.07v-0.04v-0.04
			c0.05-0.19,0.08-0.29,0.11-0.31c0.02-0.01,0.11-0.03,0.25-0.05h0.18h0.14h0.11l0.07-0.04h0.25c0.12,0,0.19-0.01,0.22-0.04h0.04
			h0.04h0.04c0.02-0.02,0.1-0.04,0.22-0.04h0.29h0.18l0.36,0.04l0.07-0.04l0.04-0.04c0.05-0.05,0.11-0.05,0.18,0h0.04
			c0,0.02,0.01,0.04,0.04,0.04l0.04-0.04h0.07h0.11l0.07,0.04v0.04c0.05-0.05,0.1-0.06,0.14-0.04c0.17,0,0.29-0.01,0.36-0.04h0.04
			h0.04h0.07h0.04h0.04h0.11l0.04-0.14l0.11,0.07l0.04-0.04c0.02-0.02,0.11-0.01,0.25,0.04l0.14,0.04l0.07,0.04v0.14l0.04,0.04
			l0.04,0.04c0.12,0.07,0.26,0.19,0.43,0.36C357.28,14.2,357.33,14.27,357.33,14.27z"/>
	</g>
	<g>
		<g>
			<path class="st0" d="M26.85,25.85c-0.06-0.39-0.32-0.6-0.6-0.84c-1.26-1.07-2.56-2.07-3.82-3.13c-0.29-0.24-0.58-0.49-0.87-0.74
				c0.81-0.84,1.54-1.74,2.19-2.7c1.44-2.11,2.41-4.58,2.98-7.06c0.27-1.17-0.17-2.5-1.13-3.2c0-0.06-0.02-0.11-0.05-0.15
				C25.53,8,25.5,7.97,25.47,7.95c0.13-0.18,0.3-0.39,0.45-0.52C26.2,7.18,26,6.94,25.91,6.84c-0.11-0.13-0.22-0.26-0.14-0.55
				c0.03-0.11,0.08-0.3-0.11-0.37c-0.17-0.06-0.22-0.07-0.65,0.96c0-0.27,0.01-0.52,0.01-0.61c0-0.12-0.07-0.22-0.2-0.27
				c-0.21-0.07-0.58,0.02-0.77,0.25c-0.15,0.18-0.15,0.41-0.02,0.62c0.12,0.19,0.16,0.51,0.16,0.8c-1.37-0.1-2.82,0.68-3.14,2.12
				c-0.25,1.08-0.66,2.07-0.97,3.12c-0.02,0.03-0.03,0.07-0.05,0.1c-0.1,0.21-0.2,0.42-0.31,0.63c-0.22,0.43-0.45,0.85-0.71,1.25
				c-0.22,0.36-0.46,0.7-0.7,1.04c-0.01,0.02-0.03,0.03-0.04,0.05c-0.16,0.2-0.32,0.39-0.49,0.57c-0.19,0.22-0.4,0.43-0.6,0.63
				c-0.72-0.65-1.43-1.31-2.07-2.03c-0.25-0.28-0.53-0.57-0.69-0.91c-0.16-0.34-0.2-0.75-0.28-1.12c-0.09-0.38-0.24-0.68-0.49-0.97
				c-0.23-0.27-0.49-0.54-0.75-0.79c-0.19-0.18-0.41-0.34-0.62-0.51c0.05,0.04,0.1,0.08,0.14,0.11c0,0,0,0,0.01,0.01
				c0.01,0.01,0.02,0.01,0.02,0.02c-0.01-0.01-0.02-0.02-0.03-0.02c-0.64-0.5-1.27-1.01-1.93-1.48c-0.33-0.24-0.65-0.47-0.99-0.7
				C9.35,8.72,9.19,8.61,9.02,8.5C8.93,8.45,8.67,8.21,8.57,8.28C8.69,8.6,9.01,8.83,9.26,9.05c0.29,0.26,0.58,0.51,0.87,0.77
				c0.58,0.51,1.16,1.01,1.74,1.52c0.13,0.11,0.27,0.23,0.4,0.34c0.09,0.07,0.23,0.16,0.24,0.29c0.01,0.12-0.1,0.2-0.21,0.19
				c-0.15-0.02-0.31-0.21-0.42-0.31c-0.59-0.51-1.18-1.02-1.77-1.54c-0.32-0.28-0.65-0.56-0.98-0.83C8.97,9.35,8.8,9.22,8.64,9.09
				C8.56,9.03,8.23,8.7,8.13,8.77C8.2,8.92,8.29,9.01,8.41,9.13c0.13,0.14,0.27,0.28,0.4,0.41c0.27,0.27,0.55,0.53,0.83,0.79
				c0.57,0.53,1.13,1.06,1.7,1.59c0.13,0.12,0.26,0.25,0.39,0.37c0.11,0.1,0.26,0.21,0.19,0.37c-0.11,0.26-0.6-0.27-0.7-0.37
				c-0.55-0.49-1.1-1-1.65-1.5c-0.32-0.29-0.64-0.57-0.97-0.85c-0.17-0.14-0.33-0.28-0.5-0.42C8.05,9.48,7.79,9.21,7.7,9.27
				c0.19,0.32,0.51,0.58,0.77,0.85c0.26,0.27,0.53,0.54,0.79,0.81c0.53,0.54,1.09,1.05,1.61,1.61c0.11,0.12,0.22,0.25,0.34,0.36
				c0.08,0.08,0.21,0.19,0.18,0.31c-0.03,0.15-0.2,0.15-0.31,0.09c-0.15-0.08-0.27-0.23-0.39-0.35c-0.57-0.54-1.13-1.08-1.69-1.62
				c-0.31-0.3-0.62-0.6-0.93-0.9c-0.15-0.14-0.3-0.28-0.47-0.41C7.56,10,7.28,9.72,7.2,9.8c0.22,0.33,0.5,0.62,0.76,0.92
				c0.27,0.32,0.55,0.64,0.82,0.95c0.51,0.6,1.05,1.18,1.62,1.73c0.29,0.27,0.58,0.55,0.88,0.8c0.29,0.24,0.6,0.47,0.96,0.6
				c0.37,0.13,0.77,0.17,1.15,0.28c0.37,0.11,0.63,0.39,0.91,0.64c0.77,0.69,1.51,1.4,2.26,2.12c-0.13,0.12-0.26,0.23-0.39,0.34
				c-0.14,0.12-0.29,0.22-0.42,0.34c0.02-0.02,0.04-0.04,0.07-0.06c-0.31,0.22-0.62,0.43-0.94,0.63c-0.54,0.34-1.09,0.64-1.66,0.92
				c-0.17,0.08-0.35,0.16-0.53,0.24c-0.12,0.05-0.24,0.09-0.36,0.14c-0.4,0.15-0.81,0.28-1.23,0.4c-0.43,0.12-0.86,0.24-1.3,0.3
				c-1.23,0.18-2.1,1.52-2.16,2.75c-0.4-0.18-0.88-0.46-1.09-0.76c-0.17-0.25-0.41-0.35-0.66-0.29c-0.31,0.08-0.54,0.38-0.57,0.61
				c-0.02,0.14,0.05,0.27,0.17,0.33c0.11,0.06,0.45,0.22,0.8,0.39c-1.38-0.14-1.38-0.09-1.41,0.1c-0.03,0.2,0.17,0.24,0.3,0.27
				c0.38,0.09,0.48,0.29,0.58,0.48c0.08,0.16,0.22,0.43,0.58,0.3c0.22-0.09,0.56-0.14,0.82-0.18c0,0.05,0.01,0.1,0.03,0.15
				c0.04,0.07,0.12,0.15,0.29,0.15c0.02,0,0.05,0,0.07,0c0.15-0.02,0.27-0.11,0.38-0.24c0.64,1.34,1.95,1.83,3.44,1.62
				c1.57-0.22,3.11-0.88,4.53-1.54c1.78-0.82,3.4-1.94,4.84-3.26c0.22,0.22,0.44,0.44,0.65,0.67c0.57,0.59,1.13,1.19,1.69,1.8
				c0.55,0.59,1.07,1.21,1.61,1.81c0.22,0.24,0.48,0.6,0.81,0.68c0.31,0.08,0.78,0.08,1-0.17c0.1-0.12,0.25-0.23,0.3-0.37
				C26.86,26.21,26.88,26.03,26.85,25.85z"/>
			<g>
				<path class="st0" d="M16.8,33.59c-4.49,0-8.7-1.75-11.88-4.92S0,21.28,0,16.8c0-4.49,1.75-8.7,4.92-11.88S12.31,0,16.8,0
					s8.7,1.75,11.88,4.92c3.17,3.17,4.92,7.39,4.92,11.88s-1.75,8.7-4.92,11.88C25.5,31.85,21.28,33.59,16.8,33.59z M16.8,0.86
					c-4.26,0-8.26,1.66-11.27,4.67S0.86,12.54,0.86,16.8s1.66,8.26,4.67,11.27s7.01,4.67,11.27,4.67c4.26,0,8.26-1.66,11.27-4.67
					c3.01-3.01,4.67-7.01,4.67-11.27s-1.66-8.26-4.67-11.27C25.06,2.52,21.05,0.86,16.8,0.86z"/>
			</g>
		</g>
	</g>
</g>
</svg>
