<?xml version="1.0" encoding="utf-8"?>
<!-- Generator: Adobe Illustrator 24.1.1, SVG Export Plug-In . SVG Version: 6.00 Build 0)  -->
<svg version="1.1" id="Layer_1" xmlns="http://www.w3.org/2000/svg" xmlns:xlink="http://www.w3.org/1999/xlink" x="0px" y="0px"
	 viewBox="0 0 232.6 33.6" style="enable-background:new 0 0 232.6 33.6;" xml:space="preserve">
<style type="text/css">
	.st0{fill:#FFFFFF;}
</style>
<g>
	<g>
		<path class="st0" d="M25.5,24.6c-0.1-0.3-0.3-0.5-0.5-0.7c-1.1-0.9-2.2-1.8-3.3-2.7c-0.3-0.2-0.5-0.4-0.7-0.6
			c0.7-0.7,1.3-1.5,1.9-2.3c1.2-1.8,2.1-3.9,2.6-6.1c0.2-1-0.1-2.2-1-2.8c0-0.1,0-0.1,0-0.1c0,0,0,0-0.1-0.1
			c0.1-0.2,0.3-0.3,0.4-0.5c0.2-0.2,0.1-0.4,0-0.5c-0.1-0.1-0.2-0.2-0.1-0.5c0-0.1,0.1-0.3-0.1-0.3c-0.1,0-0.2-0.1-0.6,0.8
			c0-0.2,0-0.4,0-0.5c0-0.1-0.1-0.2-0.2-0.2c-0.2-0.1-0.5,0-0.7,0.2c-0.1,0.2-0.1,0.4,0,0.5c0.1,0.2,0.1,0.4,0.1,0.7
			c-1.2-0.1-2.4,0.6-2.7,1.8c-0.2,0.9-0.6,1.8-0.8,2.7c0,0,0,0.1,0,0.1c-0.1,0.2-0.2,0.4-0.3,0.5c-0.2,0.4-0.4,0.7-0.6,1.1
			c-0.2,0.3-0.4,0.6-0.6,0.9c0,0,0,0,0,0c-0.1,0.2-0.3,0.3-0.4,0.5c-0.2,0.2-0.3,0.4-0.5,0.5c-0.6-0.6-1.2-1.1-1.8-1.7
			c-0.2-0.2-0.5-0.5-0.6-0.8c-0.1-0.3-0.2-0.7-0.2-1c-0.1-0.3-0.2-0.6-0.4-0.8c-0.2-0.2-0.4-0.5-0.6-0.7c-0.2-0.2-0.4-0.3-0.5-0.4
			c0,0,0.1,0.1,0.1,0.1c0,0,0,0,0,0c0,0,0,0,0,0c0,0,0,0,0,0c-0.5-0.4-1.1-0.9-1.7-1.3c-0.3-0.2-0.6-0.4-0.9-0.6
			c-0.1-0.1-0.3-0.2-0.4-0.3c-0.1,0-0.3-0.2-0.4-0.2c0.1,0.3,0.4,0.5,0.6,0.7c0.3,0.2,0.5,0.4,0.8,0.7c0.5,0.4,1,0.9,1.5,1.3
			c0.1,0.1,0.2,0.2,0.3,0.3c0.1,0.1,0.2,0.1,0.2,0.3c0,0.1-0.1,0.2-0.2,0.2c-0.1,0-0.3-0.2-0.4-0.3c-0.5-0.4-1-0.9-1.5-1.3
			c-0.3-0.2-0.6-0.5-0.8-0.7c-0.1-0.1-0.3-0.2-0.4-0.3c-0.1-0.1-0.3-0.3-0.4-0.3c0.1,0.1,0.1,0.2,0.2,0.3c0.1,0.1,0.2,0.2,0.3,0.4
			c0.2,0.2,0.5,0.5,0.7,0.7c0.5,0.5,1,0.9,1.5,1.4c0.1,0.1,0.2,0.2,0.3,0.3c0.1,0.1,0.2,0.2,0.2,0.3c-0.1,0.2-0.5-0.2-0.6-0.3
			c-0.5-0.4-0.9-0.9-1.4-1.3c-0.3-0.2-0.6-0.5-0.8-0.7c-0.1-0.1-0.3-0.2-0.4-0.4c0,0-0.3-0.3-0.3-0.2c0.2,0.3,0.4,0.5,0.7,0.7
			c0.2,0.2,0.5,0.5,0.7,0.7c0.5,0.5,0.9,0.9,1.4,1.4c0.1,0.1,0.2,0.2,0.3,0.3c0.1,0.1,0.2,0.2,0.2,0.3c0,0.1-0.2,0.1-0.3,0.1
			c-0.1-0.1-0.2-0.2-0.3-0.3c-0.5-0.5-1-0.9-1.5-1.4c-0.3-0.3-0.5-0.5-0.8-0.8C9.2,11.2,9,11.1,8.9,11c-0.1,0-0.3-0.3-0.4-0.2
			c0.2,0.3,0.4,0.5,0.7,0.8c0.2,0.3,0.5,0.5,0.7,0.8c0.4,0.5,0.9,1,1.4,1.5c0.2,0.2,0.5,0.5,0.8,0.7c0.3,0.2,0.5,0.4,0.8,0.5
			c0.3,0.1,0.7,0.1,1,0.2c0.3,0.1,0.5,0.3,0.8,0.6c0.7,0.6,1.3,1.2,1.9,1.8c-0.1,0.1-0.2,0.2-0.3,0.3c-0.1,0.1-0.2,0.2-0.4,0.3
			c0,0,0,0,0.1-0.1c-0.3,0.2-0.5,0.4-0.8,0.5c-0.5,0.3-0.9,0.6-1.4,0.8c-0.2,0.1-0.3,0.1-0.5,0.2c-0.1,0-0.2,0.1-0.3,0.1
			c-0.3,0.1-0.7,0.2-1.1,0.3c-0.4,0.1-0.7,0.2-1.1,0.3c-1.1,0.2-1.8,1.3-1.9,2.4c-0.3-0.2-0.8-0.4-0.9-0.7C7.8,22,7.6,21.9,7.4,22
			c-0.3,0.1-0.5,0.3-0.5,0.5c0,0.1,0,0.2,0.1,0.3c0.1,0,0.4,0.2,0.7,0.3C6.5,23,6.5,23,6.5,23.2c0,0.2,0.1,0.2,0.3,0.2
			c0.3,0.1,0.4,0.3,0.5,0.4c0.1,0.1,0.2,0.4,0.5,0.3C8,24,8.2,24,8.5,23.9c0,0,0,0.1,0,0.1c0,0.1,0.1,0.1,0.3,0.1c0,0,0,0,0.1,0
			c0.1,0,0.2-0.1,0.3-0.2c0.5,1.2,1.7,1.6,3,1.4c1.4-0.2,2.7-0.8,3.9-1.3c1.5-0.7,2.9-1.7,4.2-2.8c0.2,0.2,0.4,0.4,0.6,0.6
			c0.5,0.5,1,1,1.5,1.6c0.5,0.5,0.9,1,1.4,1.6c0.2,0.2,0.4,0.5,0.7,0.6c0.3,0.1,0.7,0.1,0.9-0.1c0.1-0.1,0.2-0.2,0.3-0.3
			C25.5,24.9,25.5,24.8,25.5,24.6z"/>
		<g>
			<path class="st0" d="M16.8,31.3c-3.9,0-7.5-1.5-10.2-4.2s-4.2-6.4-4.2-10.2c0-3.9,1.5-7.5,4.2-10.2s6.4-4.2,10.2-4.2
				S24.3,3.8,27,6.6c2.7,2.7,4.2,6.4,4.2,10.2S29.8,24.3,27,27C24.3,29.8,20.7,31.3,16.8,31.3z M16.8,3.1c-3.7,0-7.1,1.4-9.7,4
				s-4,6-4,9.7s1.4,7.1,4,9.7s6,4,9.7,4c3.7,0,7.1-1.4,9.7-4c2.6-2.6,4-6,4-9.7s-1.4-7.1-4-9.7C23.9,4.5,20.5,3.1,16.8,3.1z"/>
		</g>
	</g>
</g>
<g>
	<path class="st0" d="M47.8,8.2c0,0.1,0.1,0.1,0.1,0.1v0l0,0c0,0,0,0,0,0h0l0,0c0,0,0,0,0,0h0v0v0c0,0.2,0.1,1.1,0.1,2.5l0,0.1v0.2
		v0.2l0,0.1v0.2V12l0,0.2l0,0.9v0.2c0,0.1,0,0.2,0,0.3c0,0.2,0,0.3,0,0.4l0,0.9c0,0.1,0,0.3,0,0.6c0,0.3,0,0.5,0,0.7V17
		c0,0.4,0,0.6,0,0.7c0,0,0,0.1,0,0.1v0.1v0.2l0,0.1v0.2c0,0.1,0,0.1,0,0.1v0.1v0.1c0,0,0,0,0,0.1v0.7h0l0,0.2c0,0.2,0,0.9,0,2.1v0.3
		v0.2l0,0.1c0,0.1,0,0.1,0,0.2c0,0.2,0,0.5,0,1c0,0.2,0,0.3,0,0.5l0,0.4L48,24.7v0v0h0v0v0l0,0h0l0,0c0,0-0.1,0-0.1,0l0,0
		c-0.1,0-0.1,0-0.2,0c-0.1,0-0.1,0-0.2,0l-0.1,0l-0.1-0.1h0h0c0,0,0,0,0,0l0,0c-0.1,0-0.3-0.1-0.4-0.2c0,0-0.1-0.1-0.1-0.1
		c0-0.2,0-0.4,0-0.7c0-0.1-0.3-0.6-0.8-1.6l0,0c0,0,0-0.1-0.1-0.1c0-0.1-0.1-0.1-0.1-0.2c-0.1-0.1-0.1-0.1-0.1-0.2c0,0,0,0,0-0.1
		c0,0,0-0.1,0-0.1c0-0.1-0.1-0.2-0.1-0.2c-0.1-0.3-0.3-0.6-0.4-0.8c0,0,0-0.1-0.1-0.2c0,0,0-0.1-0.1-0.2l-0.3-0.6l-0.2-0.5
		c0-0.1-0.1-0.3-0.2-0.5c-0.1-0.2-0.2-0.4-0.3-0.6c-0.1-0.2-0.3-0.6-0.6-1.3c-0.1-0.1-0.1-0.2-0.1-0.3l-0.1-0.2l0-0.1l-0.1-0.2
		l-0.1-0.1l0-0.1l0-0.1l-0.3-0.7l0,0l-0.1-0.2l-1-2.1c0,0,0-0.1,0-0.1c0,0,0-0.1,0-0.1c0,0.1,0,0.2,0,0.2l0,0.3c0,0.1,0,0.1,0,0.2
		l0,0.2c0,0.3,0,0.6,0,0.9v0.2c0,0.1,0,0.1,0,0.2c0,0.2,0,0.5,0,0.6l0,0.5l0,0.5c0,0.2,0,0.4,0,0.7v0.6v0.6c0,0,0,0.1,0,0.1v0.1v0.1
		l0,0.1c0,0.1,0,0.1,0,0.2v0.1l0,0c0,0,0,0.1,0,0.1l0,0v0.6h0l0,0.2l0,0.7l0,1.2c0,0,0,0.2,0,0.3l0,0.3l0,0c0,0,0,0.1,0,0.1
		c0,0,0,0,0,0.1c0,0.3,0,0.7-0.1,1.1c0,0.2,0,0.4,0,0.6l0,0.6l0,0.1v0v0.1h0c0,0,0,0,0,0c0,0,0,0.1,0,0.1l0,0c0,0,0,0,0,0.1
		l-0.1,0.1c0,0,0,0,0,0v0c-0.1,0-0.1,0-0.2,0c-0.1,0-0.2,0-0.2,0c0,0,0-0.1-0.1-0.1c0,0-0.1,0-0.1-0.1c0,0,0,0,0,0c0,0,0,0,0,0
		c0,0,0,0,0,0l0,0l-0.2-0.1c-0.2-0.1-0.3-0.3-0.3-0.4c0-0.3,0-0.6,0-1.1c0-0.3,0-0.5,0-0.6c0-0.2,0-0.4,0-0.6v-0.3
		c0-0.1,0-0.2,0-0.3l0-0.3l0-0.6c0-0.5,0-0.7,0-0.8v-0.1v-0.1v-0.1c0,0,0,0,0-0.1c0-0.8,0-1.6,0-2.5l0.1-1.2c0,0,0,0,0-0.1l0-0.1
		l0-0.1c0-0.2,0-0.4,0-0.6c0-0.1,0-0.1,0-0.1c0,0,0-0.1,0-0.2l0,0v-0.3v-0.4l0-0.2h0c0-0.1-0.1-0.2-0.1-0.3l0-0.7c0-0.4,0-0.6,0-0.8
		c0,0,0-0.1,0-0.1v-0.1c0,0,0-0.1,0-0.1c0,0,0,0,0-0.1l0-0.1l0-0.1V11c0-0.2,0-0.3,0-0.4v-0.1c0-0.2-0.1-0.3-0.1-0.3l0-0.1
		c0-0.2,0-0.5,0.1-1c0-0.3,0.1-0.5,0.1-0.5l0.1-0.2c0,0,0.1,0,0.2,0l0-0.1l0.1-0.1l0.3,0c0.2,0,0.4,0.1,0.5,0.2c0,0,0.1,0.1,0.1,0.2
		c0,0.1,0.1,0.2,0.1,0.2c0,0,0,0,0,0c0,0,0,0,0,0.1h0h0v0.1v0h0c0.4,0.7,0.6,1.3,0.8,1.7l0.3,0.7c0,0,0.1,0.2,0.2,0.4l0.2,0.3
		c0,0,0.2,0.3,0.4,0.8c0.2,0.5,0.4,0.8,0.5,0.9l0,0.1c0,0,0,0,0,0.1s0,0,0,0.1l0.1,0.1l0,0.1l0.8,1.5l0.6,1.1l0.6,1.3l0.2,0.2l0,0
		l0.3,0.5c0,0.1,0,0.2,0.1,0.3l0,0c0,0,0,0,0,0.1c0,0,0,0.1,0.1,0.2l0.2,0.4l0.1,0.2l0,0c0.1,0.1,0.2,0.2,0.3,0.5l0.1,0.2
		c0-0.6,0-1,0-0.9v-0.1v-0.1v-0.1c0,0,0,0,0-0.1c0-0.7,0-1.4,0-2.1c0-0.6,0-0.9,0-0.8l0.1-1.5l-0.1-0.3l0-0.1c0-0.2,0-0.4,0-0.7
		c0,0,0-0.1,0-0.1c0,0,0-0.1,0-0.1c0,0,0-0.1,0-0.2l0-0.1v-0.3V13l0-0.2c0,0,0.1,0,0.1,0c-0.1-0.1-0.1-0.3-0.1-0.6
		c0-0.4,0-0.6,0-0.7l0-0.5l0-0.1c0,0,0-0.1,0-0.1v-0.1c0,0,0,0,0-0.1l0-0.1l0-0.1v-0.1c0-0.2,0-0.3,0-0.4V9.6c0-0.1,0-0.2,0-0.2
		l0-0.1V9.1c0-0.2,0-0.4,0.1-0.7c0-0.2,0.1-0.3,0.1-0.4L46.6,8c0,0,0.1,0,0.2,0l0,0c0,0,0.1-0.1,0.1-0.1c0.1,0,0.2,0,0.4,0
		C47.4,8,47.6,8,47.7,8L47.8,8.2z"/>
	<path class="st0" d="M58.6,25.5L58.6,25.5L58.6,25.5l-0.1-0.1h0L58.6,25.5c-0.1-0.1-0.1-0.1-0.1-0.1v0l0,0v0l0,0
		c-0.1-0.3-0.3-1-0.6-2.1l0,0c0,0,0-0.1,0-0.2l0-0.2c0-0.1,0-0.2,0-0.3c0-0.1-0.1-0.3-0.1-0.4l-0.1-0.5c0,0,0-0.2-0.1-0.4l0-0.5
		c0-0.1-0.1-0.3-0.2-0.7c0,0,0-0.1-0.1-0.4c-0.1,0-0.2,0-0.4,0h0c0,0,0,0-0.1,0h-0.1h0c0,0,0,0-0.1,0l0,0h-0.1c-0.1,0-0.1,0-0.2,0
		h-0.1c0,0-0.1,0-0.1,0h-0.1h-0.2l-0.2,0h-0.2l-0.2,0h-0.2h-0.2h0l0,0l0,0h0c0,0-0.1,0-0.1,0h0h0l0,0h-0.2v0l-0.1,0h-0.3v0.1
		c0,0,0,0.1,0,0.1v0l0,0.1l0,0l-0.1,0.6h0v0l-0.1,0.1c-0.1,0.3-0.2,0.9-0.4,1.7l0,0.3l-0.1,0.2v0.1c0,0.1,0,0.1,0,0.1l-0.3,0.9
		l0,0.2c0,0.1,0,0.2-0.1,0.2c0,0.1-0.1,0.2-0.1,0.2L52,25.3v0c0,0,0,0,0,0h0l0,0v0c0,0,0,0-0.1,0l0,0c0,0-0.1,0-0.1,0v0l0,0
		c-0.2,0-0.3,0-0.3-0.1l-0.1-0.1l-0.1-0.1c0,0,0,0,0,0c0,0,0,0,0,0v0l0,0c-0.1-0.1-0.2-0.2-0.2-0.4c0-0.1,0-0.1,0-0.1
		c0-0.4,0.1-0.9,0.3-1.5c0-0.1,0.1-0.2,0.1-0.3c0-0.1,0.1-0.2,0.1-0.3l0-0.3l0-0.3c0.1-0.2,0.1-0.4,0.2-0.7c0.1-0.3,0.1-0.5,0.1-0.8
		l0-0.1c0,0,0,0,0-0.1c0,0,0-0.1,0-0.1v-0.1l0.1-0.6c-0.1,0-0.2,0-0.2,0l0,0h0c0,0,0,0,0,0h0l0,0l0,0l0,0c-0.1-0.1-0.1-0.2,0-0.2
		c0,0,0,0,0-0.1c0,0,0,0,0,0c0,0,0,0,0,0c0,0,0,0,0,0h0l0,0l0-0.1c0.1-0.1,0.1-0.1,0.1-0.1c0,0,0.1,0,0.3,0c0.1-0.4,0.2-0.8,0.2-1
		c0.1-0.3,0.2-0.6,0.3-1.2v-0.1v-0.1v-0.1c0-0.1,0-0.3,0.1-0.6c0-0.1,0.1-0.2,0.1-0.2l0-0.1v-0.1l0.1-0.3c0-0.1,0-0.1,0-0.2
		c0-0.1,0-0.1,0-0.2l0.1-0.2c0,0,0,0,0.1,0v-0.1c0-0.1,0-0.3,0.1-0.5c0.2-0.6,0.3-1,0.3-1.4l0.1-0.3v-0.1c0-0.1,0-0.2,0-0.3l0-0.2
		c0.1-0.2,0.1-0.4,0.1-0.7l0-0.1v-0.1c0,0,0-0.1,0-0.2c0-0.1,0-0.1,0-0.1c0-0.3,0.1-0.7,0.3-1.2c0.1-0.3,0.2-0.5,0.2-0.6
		c0.1-0.1,0.1-0.2,0.1-0.2c0,0,0.1-0.1,0.2,0l0,0l0,0l0,0l0-0.2v0l0,0c0,0,0.1,0,0.1-0.1c0.1,0,0.1,0,0.1,0c0.1,0,0.2,0,0.2,0.1l0,0
		c0,0,0,0,0.1,0l0,0l0.2,0.1c0.1,0.1,0.2,0.2,0.3,0.3c0.2,0.9,0.4,1.5,0.4,1.9c0,0.3,0.1,0.6,0.1,0.8l0.1,0.4l0.1,0.4
		c0,0.3,0.1,0.6,0.2,1c0.1,0.4,0.2,0.7,0.2,1l0,0.1c0,0.1,0,0.1,0,0.2l0,0.1l0.4,1.7c0.1,0.6,0.2,1.1,0.3,1.3c0,0.1,0,0.2,0.1,0.4
		c0,0.2,0.1,0.6,0.2,1.1l0.1,0.1l0.1,0.2v0.1c0.1,0.1,0.1,0.3,0.2,0.6c0,0,0,0.1,0,0.2c0,0,0,0.1,0,0.2l0,0l0.1,0.3l0.1,0.4l0,0.2h0
		c0.1,0.1,0.1,0.3,0.2,0.6c0.1,0.5,0.2,0.9,0.2,1.2c0,0,0,0.1,0,0.1c0,0,0,0.1,0,0.1c0,0,0,0.1,0,0.1c0,0.1,0,0.1,0,0.2
		c0,0.1,0,0.1,0,0.1c0,0.2,0.1,0.3,0.1,0.5c0,0,0,0,0,0.1c0,0,0,0.1,0,0.1c0,0,0,0,0,0.1c0,0,0,0.1,0,0.1c0.1,0.1,0.1,0.3,0.1,0.6
		c0,0.2,0,0.3,0,0.3c0,0,0,0,0,0.1c0,0-0.1,0.1-0.2,0.1l0,0l0,0l-0.2,0c-0.2,0-0.3,0-0.4,0L58.6,25.5z M56.7,18.4l-0.2-0.6
		c0-0.1-0.1-0.5-0.3-1.4l0-0.1c0,0,0,0,0-0.1c0,0,0,0,0,0c0,0,0-0.1,0-0.2c0,0,0-0.1,0-0.1l-0.1-0.3l0-0.2v0l-0.1-0.7v0h0l0-0.2
		c-0.1-0.4-0.2-1.1-0.5-2.1L55.3,12l-0.3,1.2v0.1c0,0,0,0.2-0.1,0.4c0,0,0,0,0,0.1c0,0,0,0.1,0,0.1c0,0,0,0.1,0,0.2
		c0,0.1,0,0.2-0.1,0.2c0,0.1-0.1,0.1-0.1,0.1c-0.1,0.4-0.1,0.7-0.2,0.8l-0.1,0.4c0,0-0.1,0.3-0.1,0.6c0,0.3,0,0.4-0.1,0.5
		c0,0,0,0.2-0.1,0.4c-0.1,0.4-0.2,0.8-0.2,1.1l0,0.2h0l0,0h0l0.8,0l0.4,0l0.1,0c0,0,0.1,0,0.2,0h0c0,0,0,0,0.1,0h0h0.1h0.1l0,0v0
		c0,0,0.1,0,0.2,0l0.2,0l0.2,0H56.7L56.7,18.4L56.7,18.4L56.7,18.4z"/>
	<path class="st0" d="M69.3,25.2c0,0-0.1-0.1-0.1-0.1v0h0c0,0,0,0,0,0v0h0h0v0v0c-0.1-0.1-0.1-0.5-0.2-1.2l0,0v-0.1c0,0,0-0.1,0-0.1
		v-0.1c0,0,0,0,0-0.1v-0.1v-0.1v-0.2v-0.2v-0.1v-0.1c0-0.1-0.1-0.2-0.2-0.5l-0.1-0.3c0-0.1-0.1-0.3-0.2-0.6l-0.1-0.3
		c0,0,0-0.1,0-0.1c0-0.1,0-0.1,0-0.1v0l0-0.1c0,0,0,0,0-0.1l0,0c0,0,0,0,0,0v0L68,20.1l0,0V20c-0.1-0.2-0.3-0.5-0.6-1L67.3,19
		l-0.1-0.2l0,0l0,0v0c0,0-0.1-0.2-0.2-0.3l-0.2-0.3c0,0,0,0,0-0.1c0,0,0-0.1-0.1-0.1l-0.1-0.1l-0.2-0.2L66,17.5c0,0,0,0,0,0h0
		l-0.1,0.1c-0.1,0.1-0.3,0.2-0.5,0.4l-0.4,0.3c-0.1,0-0.1,0.1-0.2,0.2l0,0c0,0,0,0,0,0h0c-0.1,0.1-0.3,0.1-0.4,0.2v0.2
		c0,0.1,0,0.2,0,0.2c0,0,0,0.1,0,0.1l0,0.1v0.3c0,0.2,0,0.3,0,0.4l0,0.2c0,0,0,0-0.1,0c0.1,0.1,0.1,0.3,0.1,0.5c0,0.3,0,0.6,0,0.7
		l0,0.5v0.1v0.1c0,0,0,0.1,0,0.1v0.1v0.2l0,0.1v0.2c0,0.2,0,0.3,0,0.4c0,0,0,0.1,0,0.1v0.1c0,0,0,0.1,0,0.1l0,0.1c0,0.2,0,0.5-0.1,1
		l-0.1,0.5c0,0.1,0,0.2,0,0.2c0,0-0.1,0-0.2,0l0,0.1l-0.1,0.1c-0.1,0-0.2,0-0.4-0.1c-0.2,0-0.3-0.1-0.4-0.1c0,0-0.1-0.1-0.1-0.2
		c0-0.1-0.1-0.2-0.1-0.2V25v0c0,0,0,0,0,0v0v-0.1h0c0,0,0,0,0,0v-0.1c-0.1-0.5-0.2-1.5-0.2-3l0,0v-0.2v-0.2v-0.2c0,0,0-0.1,0-0.2
		c0-0.1,0-0.2,0-0.3c0-0.2,0-0.3,0-0.5v-0.4c0-0.1,0-0.2,0-0.2c0-0.1,0-0.1,0-0.2c0-0.2,0-0.5,0-0.6l0-0.5l0-0.5c0-0.2,0-0.4,0-0.6
		v-0.6v-0.6v-0.1c0,0,0-0.1,0-0.1c0-0.1,0-0.2,0-0.2l0-0.3c0,0,0,0,0-0.1c0,0,0-0.1,0-0.1l0,0v-0.6h0l0-0.2c0-0.1,0-0.3,0-0.7
		c0-0.5,0-0.9,0-1.3v-0.3v-0.3l0,0c0,0,0-0.1,0-0.1v-0.1l0.1-1.2c0,0,0-0.1,0-0.3c0-0.2,0-0.3,0-0.3l0-0.3c0-0.2,0-0.3,0-0.3
		c0-0.1,0-0.2,0-0.2c0,0,0,0,0,0c0,0,0,0,0-0.1h0h0v0V8.5l0,0l0,0c0,0,0,0,0-0.1c0,0,0,0,0-0.1c0,0,0,0,0-0.1c0,0,0,0,0,0l0,0
		c0.1,0,0.1,0,0.2,0c0.1,0,0.1,0,0.2,0c0,0,0,0.1,0.1,0.1c0,0,0.1,0.1,0.1,0.1h0h0l0,0.1l0,0L64,8.7c0.2,0.1,0.3,0.3,0.3,0.4
		c0,0.6,0.1,1.2,0,1.9c0,0.2,0,0.4,0,0.7c0,0.1,0,0.2,0,0.3v0.3v0.9l0,0.5c0,0.1,0,0.1,0,0.1c0,0,0,0.1,0,0.1V14v0.1
		c0,0,0,0.1,0,0.1v0.1c0,0.8,0,1.6,0,2.4c0,0.2,0,0.5-0.1,1l0.1-0.1l0.2-0.2l0.6-0.6c0,0,0,0,0,0c0,0,0,0,0,0l0-0.1
		c0.4-0.6,0.7-1,0.8-1.2l0.3-0.4c0.1-0.1,0.1-0.1,0.1-0.2c0,0,0-0.1,0.1-0.1c0,0,0-0.1,0-0.2v-0.1l0.2-0.4l0.1-0.1l0.1-0.1v0
		c0-0.1,0.1-0.3,0.2-0.5l0.1-0.1l0,0v0c0-0.1,0-0.2,0.1-0.4c0.1-0.2,0.3-0.6,0.4-1l0-0.1l0-0.1c0,0,0-0.1,0-0.2l0-0.1l0-0.1
		c0.1-0.3,0.2-0.5,0.2-0.6l0-0.1v-0.1c0,0,0-0.1,0-0.2l0-0.1c0-0.2,0.1-0.5,0.3-1.1c0.1-0.4,0.2-0.6,0.2-0.6c0,0,0.1-0.1,0.1-0.2
		c0,0,0.1,0,0.2,0c0,0,0,0,0.1-0.1c0-0.1,0.1-0.1,0.1-0.1C69.4,8,69.5,8,69.5,8c0.2,0.1,0.4,0.2,0.4,0.3c0,0.1,0.1,0.2,0.1,0.4v0.2
		v0l0,0.1h0l0,0.1l0,0c0,0,0,0,0,0c0,0,0,0,0,0l0,0.1c0,0,0,0,0,0.1c-0.1,0.8-0.3,1.8-0.8,3.2v0.1c0,0,0,0.1-0.1,0.1
		c0,0.1-0.1,0.1-0.1,0.2l0,0.1c0,0.1-0.1,0.2-0.1,0.3l-0.1,0.1l-0.4,0.7c0,0-0.1,0.1-0.1,0.1l-0.1,0.2l-0.4,0.8
		c-0.1,0.2-0.3,0.4-0.4,0.6c-0.1,0.2-0.2,0.3-0.3,0.4c-0.1,0.1-0.2,0.2-0.3,0.3c0.2,0.1,0.5,0.2,0.6,0.4c0.2,0.1,0.5,0.4,0.8,0.8
		l0.4,0.4c0.1,0.2,0.3,0.3,0.4,0.5c0.1,0.2,0.2,0.3,0.3,0.4l0,0l0,0l0,0l0,0c0.3,0.5,0.5,1,0.7,1.5l0.1,0.8c0,0,0,0,0,0.1l0.1,0.1
		c0,0,0.1,0.2,0.1,0.3c0,0,0,0,0,0.1c0,0,0,0.1,0,0.1l0,0c0,0,0,0,0,0.1c0,0,0,0.1,0,0.1c0,0.1,0,0.2,0,0.2l0,0.1h-0.1
		c0.1,0.1,0.1,0.2,0.1,0.3v0.2c0,0.1,0,0.3,0,0.5v0.1v0l0,0c0,0,0,0.1,0,0.1c0,0,0,0,0,0.1c0,0.1,0,0.2,0,0.3c0,0,0,0.1,0,0.1l0,0
		l0,0l0,0.1c0,0.1,0,0.2-0.1,0.3l-0.1,0.2l-0.1,0.1l-0.2,0c0,0-0.1,0-0.1,0l0,0l0,0l-0.8,0C69.4,25.3,69.3,25.2,69.3,25.2z"/>
	<path class="st0" d="M80.2,25.2c0,0-0.1-0.1-0.1-0.1v0h0c0,0,0,0,0,0v0h0h0v0v0c-0.1-0.1-0.1-0.5-0.2-1.2l0,0v-0.1c0,0,0-0.1,0-0.1
		v-0.1c0,0,0,0,0-0.1v-0.1v-0.1v-0.2v-0.2v-0.1v-0.1c0-0.1-0.1-0.2-0.2-0.5l-0.1-0.3c0-0.1-0.1-0.3-0.2-0.6l-0.1-0.3
		c0,0,0-0.1,0-0.1c0-0.1,0-0.1,0-0.1v0l0-0.1c0,0,0,0,0-0.1l0,0c0,0,0,0,0,0v0l-0.1-0.3l0,0V20c-0.1-0.2-0.3-0.5-0.6-1L78.2,19
		l-0.1-0.2l0,0l0,0v0c0,0-0.1-0.2-0.2-0.3l-0.2-0.3c0,0,0,0,0-0.1c0,0,0-0.1-0.1-0.1l-0.1-0.1l-0.2-0.2L77,17.5c0,0,0,0,0,0h0
		l-0.1,0.1c-0.1,0.1-0.3,0.2-0.5,0.4l-0.4,0.3c-0.1,0-0.1,0.1-0.2,0.2l0,0c0,0,0,0,0,0h0c-0.1,0.1-0.3,0.1-0.4,0.2v0.2
		c0,0.1,0,0.2,0,0.2c0,0,0,0.1,0,0.1l0,0.1v0.3c0,0.2,0,0.3,0,0.4l0,0.2c0,0,0,0-0.1,0c0.1,0.1,0.1,0.3,0.1,0.5c0,0.3,0,0.6,0,0.7
		l0,0.5v0.1v0.1c0,0,0,0.1,0,0.1v0.1v0.2l0,0.1v0.2c0,0.2,0,0.3,0,0.4c0,0,0,0.1,0,0.1v0.1c0,0,0,0.1,0,0.1l0,0.1c0,0.2,0,0.5-0.1,1
		l-0.1,0.5c0,0.1,0,0.2,0,0.2c0,0-0.1,0-0.2,0l0,0.1l-0.1,0.1c-0.1,0-0.2,0-0.4-0.1c-0.2,0-0.3-0.1-0.4-0.1c0,0-0.1-0.1-0.1-0.2
		c0-0.1-0.1-0.2-0.1-0.2V25v0c0,0,0,0,0,0v0v-0.1h0c0,0,0,0,0,0v-0.1c-0.1-0.5-0.2-1.5-0.2-3l0,0v-0.2v-0.2v-0.2c0,0,0-0.1,0-0.2
		c0-0.1,0-0.2,0-0.3c0-0.2,0-0.3,0-0.5v-0.4c0-0.1,0-0.2,0-0.2c0-0.1,0-0.1,0-0.2c0-0.2,0-0.5,0-0.6l0-0.5l0-0.5c0-0.2,0-0.4,0-0.6
		v-0.6v-0.6v-0.1c0,0,0-0.1,0-0.1c0-0.1,0-0.2,0-0.2l0-0.3c0,0,0,0,0-0.1c0,0,0-0.1,0-0.1l0,0v-0.6h0l0-0.2c0-0.1,0-0.3,0-0.7
		c0-0.5,0-0.9,0-1.3v-0.3v-0.3l0,0c0,0,0-0.1,0-0.1v-0.1l0.1-1.2c0,0,0-0.1,0-0.3c0-0.2,0-0.3,0-0.3l0-0.3c0-0.2,0-0.3,0-0.3
		c0-0.1,0-0.2,0-0.2c0,0,0,0,0,0c0,0,0,0,0-0.1h0h0v0V8.5l0,0l0,0c0,0,0,0,0-0.1c0,0,0,0,0-0.1c0,0,0,0,0-0.1c0,0,0,0,0,0l0,0
		c0.1,0,0.1,0,0.2,0c0.1,0,0.1,0,0.2,0c0,0,0,0.1,0.1,0.1c0,0,0.1,0.1,0.1,0.1h0h0l0,0.1l0,0l0.2,0.2c0.2,0.1,0.3,0.3,0.3,0.4
		c0,0.6,0.1,1.2,0,1.9c0,0.2,0,0.4,0,0.7c0,0.1,0,0.2,0,0.3v0.3v0.9l0,0.5c0,0.1,0,0.1,0,0.1c0,0,0,0.1,0,0.1V14v0.1
		c0,0,0,0.1,0,0.1v0.1c0,0.8,0,1.6,0,2.4c0,0.2,0,0.5-0.1,1l0.1-0.1l0.2-0.2l0.6-0.6c0,0,0,0,0,0c0,0,0,0,0,0l0-0.1
		c0.4-0.6,0.7-1,0.8-1.2l0.3-0.4c0.1-0.1,0.1-0.1,0.1-0.2c0,0,0-0.1,0.1-0.1c0,0,0-0.1,0-0.2v-0.1l0.2-0.4l0.1-0.1l0.1-0.1v0
		c0-0.1,0.1-0.3,0.2-0.5l0.1-0.1l0,0v0c0-0.1,0-0.2,0.1-0.4c0.1-0.2,0.3-0.6,0.4-1l0-0.1l0-0.1c0,0,0-0.1,0-0.2l0-0.1l0-0.1
		c0.1-0.3,0.2-0.5,0.2-0.6l0-0.1v-0.1c0,0,0-0.1,0-0.2l0-0.1c0-0.2,0.1-0.5,0.3-1.1c0.1-0.4,0.2-0.6,0.2-0.6c0,0,0.1-0.1,0.1-0.2
		c0,0,0.1,0,0.2,0c0,0,0,0,0.1-0.1c0-0.1,0.1-0.1,0.1-0.1C80.4,8,80.4,8,80.5,8c0.2,0.1,0.4,0.2,0.4,0.3C81,8.4,81,8.5,81,8.7v0.2v0
		l0,0.1h0l0,0.1l0,0c0,0,0,0,0,0c0,0,0,0,0,0l0,0.1c0,0,0,0,0,0.1c-0.1,0.8-0.3,1.8-0.8,3.2v0.1c0,0,0,0.1-0.1,0.1
		C80,12.9,80,13,80,13l0,0.1c0,0.1-0.1,0.2-0.1,0.3l-0.1,0.1l-0.4,0.7c0,0-0.1,0.1-0.1,0.1l-0.1,0.2l-0.4,0.8
		c-0.1,0.2-0.3,0.4-0.4,0.6c-0.1,0.2-0.2,0.3-0.3,0.4c-0.1,0.1-0.2,0.2-0.3,0.3c0.2,0.1,0.5,0.2,0.6,0.4c0.2,0.1,0.5,0.4,0.8,0.8
		l0.4,0.4c0.1,0.2,0.3,0.3,0.4,0.5c0.1,0.2,0.2,0.3,0.3,0.4l0,0l0,0l0,0l0,0c0.3,0.5,0.5,1,0.7,1.5l0.1,0.8c0,0,0,0,0,0.1l0.1,0.1
		c0,0,0.1,0.2,0.1,0.3c0,0,0,0,0,0.1c0,0,0,0.1,0,0.1l0,0c0,0,0,0,0,0.1c0,0,0,0.1,0,0.1c0,0.1,0,0.2,0,0.2l0,0.1h-0.1
		c0.1,0.1,0.1,0.2,0.1,0.3v0.2c0,0.1,0,0.3,0,0.5v0.1v0l0,0c0,0,0,0.1,0,0.1c0,0,0,0,0,0.1c0,0.1,0,0.2,0,0.3c0,0,0,0.1,0,0.1l0,0
		l0,0l0,0.1c0,0.1,0,0.2-0.1,0.3l-0.1,0.2l-0.1,0.1l-0.2,0c0,0-0.1,0-0.1,0l0,0l0,0l-0.8,0C80.3,25.3,80.3,25.2,80.2,25.2z"/>
	<path class="st0" d="M84.8,25.1c0-0.1-0.1-0.2-0.1-0.2v0v-0.1h0v0v0h0c0,0,0,0,0,0v-0.1c-0.1-0.5-0.2-1.5-0.2-2.9l0-0.1
		c0,0,0-0.1,0-0.2v-0.2v-0.1c0,0,0-0.1,0-0.2l0-0.2v-0.1c0-0.1,0-0.2,0-0.5c0-0.2,0-0.3,0-0.4c0-0.1,0-0.2,0-0.2v-0.2
		c0-0.2,0-0.4,0-0.6l0-0.4l0-0.5c0-0.2,0-0.4,0-0.6v-0.6v-0.6v-0.1c0,0,0-0.1,0-0.1l0-0.1v-0.1v-0.2c0-0.1,0-0.1,0-0.1v0
		c0,0,0-0.1,0-0.1v0v-0.6h0l0-0.2c0-0.2,0-0.9,0-2c0-0.1,0-0.3,0-0.4c0-0.1,0-0.2,0-0.2l0-0.1c0,0,0-0.1,0-0.1v-0.1
		c0-0.1,0-0.5,0-1.2V9.9c0-0.2,0-0.3,0-0.3c0-0.1,0-0.2,0-0.3c0-0.2,0-0.3,0-0.3c0-0.1,0-0.2,0-0.2l0-0.1c0,0,0,0,0,0h0V8.6v0l0,0
		l0,0c0,0,0,0,0-0.1s0,0,0-0.1c0,0,0,0,0-0.1l0,0v0c0.1,0,0.3-0.1,0.4-0.1c0,0,0,0,0,0c0,0,0,0,0.1,0c0,0,0.1,0.1,0.1,0.1
		c0,0,0,0,0,0h0l0,0.1c0.1,0,0.2,0.2,0.4,0.4L86,9.1c0.1,1,0.1,1.6,0.1,1.9c0,0.2,0,0.5,0,0.7c0,0.3,0,0.5,0,0.7c0,0.3,0,0.6,0,0.8
		V14v0.1v0.1c0,0,0,0.1,0,0.1c0,0,0,0,0,0.1c0,0.3,0,0.6,0,0.8l0,1.6L86.2,18c0,0.1,0,0.1,0,0.2l0,0c0,0.1,0,0.3,0,0.6
		c0,0.1,0,0.1,0,0.1c0,0,0,0.1,0,0.1l0,0v0.3v0.4l0,0.2c0,0,0,0,0,0c0,0,0.1,0.1,0.1,0.3c0,0.3,0,0.5,0,0.6c0,0.1,0,0.2,0,0.4
		c0,0.1,0,0.3,0,0.5v0.1c0,0.1,0,0.1,0,0.1c0,0,0,0.1,0,0.1v0.1l0,0.1c0,0,0,0.1,0,0.1c0,0.3,0,0.5,0,0.6c0,0,0,0,0,0.1
		c0,0.1,0,0.2,0.1,0.3c0,0.1,0,0.1,0,0.1c0,0.2,0,0.5-0.1,1c0,0.1-0.1,0.2-0.1,0.3c0,0.1,0,0.2,0,0.2c0,0,0,0.1,0,0.1
		c0,0.1,0,0.1-0.1,0.1c0,0-0.1,0-0.2,0c0,0,0,0-0.1,0.1l0,0.1l-0.3-0.1c-0.2,0-0.4-0.1-0.5-0.1C84.9,25.3,84.9,25.2,84.8,25.1z"/>
	<path class="st0" d="M90.6,21.8c0.1,0.2,0.1,0.3,0.1,0.3c0,0,0,0.1,0,0.1l0,0.1h0h0l0,0.1c0,0.1,0,0.1,0,0.1h0l0,0.1l0,0.1
		c0.5,0.9,0.9,1.5,1.2,1.8c0.3,0.2,0.5,0.3,0.8,0.3c0.3,0,0.7-0.1,1.1-0.4l0.1-0.1c0.1-0.2,0.2-0.4,0.3-0.4c0-0.1,0.1-0.2,0.2-0.4
		c0.1-0.2,0.2-0.4,0.2-0.4c0.1-0.5,0.1-0.8,0.1-1.2c0-0.1,0-0.2,0-0.4c0-0.1,0-0.2,0-0.2C94.7,20,94.2,19,93.5,18
		c-0.1-0.2-0.5-0.5-1-0.9l-0.1-0.2c-0.2-0.1-0.3-0.3-0.4-0.4c0-0.1-0.1-0.1-0.1-0.1L91.5,16l-0.2-0.2c-0.1-0.1-0.2-0.2-0.2-0.2
		c-0.4-0.5-0.6-0.9-0.8-1.2h0L90.1,14c-0.1-0.5-0.2-1.1-0.2-1.7c0-0.6,0.1-1.1,0.2-1.6c0.1-0.5,0.2-0.9,0.4-1.2
		c0.1-0.2,0.4-0.5,0.9-0.8l0.1-0.1c0.1-0.1,0.2-0.1,0.3-0.1c0.7-0.3,1.3-0.4,1.8-0.4c0.3,0,0.6,0.1,0.9,0.2c0.2,0.1,0.5,0.3,0.8,0.7
		c0.2,0.3,0.4,0.5,0.4,0.6l0,0.1c0,0,0,0.1,0.1,0.1h0h0l0.1,0.1l0,0.1v0.1c0,0,0,0,0,0.1l0.1,0.3l0,0.1c0,0,0,0,0,0.1v0.1
		c0,0-0.1,0.1-0.2,0.2c-0.1,0.1-0.2,0.1-0.2,0c0-0.1,0-0.1,0-0.1c0,0-0.1,0-0.1,0c-0.1-0.1-0.2-0.2-0.2-0.2c0,0,0,0,0,0c0,0,0,0,0,0
		c0,0-0.1,0-0.1-0.1c0,0,0-0.1-0.1-0.1l-0.3-0.4c-0.2-0.1-0.3-0.2-0.3-0.3c0-0.1-0.1-0.2-0.2-0.3C94,9.3,93.9,9.1,93.8,9
		c-0.1-0.1-0.2-0.2-0.4-0.2c-0.1,0-0.2,0-0.3,0c-0.4,0-0.8,0.2-1.2,0.7c-0.4,0.4-0.6,1.2-0.6,2.3c0,0.5,0,0.9,0.1,1.2
		c0.1,0.3,0.1,0.5,0.2,0.6c0.4,0.6,0.8,1.2,1.3,1.8c0.5,0.6,0.9,1.1,1.1,1.3c0.5,0.5,1,1,1.4,1.6c0,0,0,0,0.1,0.1
		c0,0,0.1,0.1,0.1,0.1l0.1,0.2c0,0.1,0.1,0.1,0.1,0.1c0.2,0.3,0.3,0.7,0.4,1.1c0,0.1,0.1,0.3,0.1,0.3v0.1c0,0.1,0,0.2,0,0.2l0,0.1
		c0,0.4,0,0.7,0,0.9l0,0.5c0,0.1,0,0.2-0.1,0.3l0,0.1l0-0.1c0,0,0,0,0,0.1c0,0.1,0,0.3-0.1,0.5c-0.1,0.2-0.1,0.4-0.2,0.5
		c-0.4,0.7-1,1.2-1.7,1.7c0,0-0.1,0.1-0.3,0.2c-0.2,0.1-0.3,0.1-0.5,0.2c-0.2,0.1-0.4,0.1-0.6,0.1c-0.5,0-0.9,0-1.3-0.2
		c-0.1,0-0.2-0.1-0.5-0.2c0,0,0,0-0.1,0c0,0-0.1,0-0.1,0l-0.3-0.1c-0.5-0.5-0.9-1.1-1.2-1.8c-0.2-0.5-0.2-0.8-0.2-1.1v-0.4
		c0-0.1,0-0.1,0.1-0.1h0.1l0-0.2c0-0.1,0-0.2,0-0.2v0l0.4,0.1c0.2,0.1,0.3,0.1,0.4,0.2C90.4,21.6,90.5,21.7,90.6,21.8z"/>
	<path class="st0" d="M104.4,17L104.4,17L104.4,17L104.4,17L104.4,17c-0.1,0.1-0.1,0.1-0.1,0.1l0,0c-0.1,0.1-0.4,0.1-0.7,0.1v0h0h0
		h0h0h0h0c0,0-0.1,0-0.1,0h-0.1H103l0,0l-0.1,0l-0.1,0h-0.1c0,0-0.1,0-0.2,0h-0.1h-0.1h0l0,0l0,0h0H102h0h0h-0.1l0,0h-0.5h-0.1h-0.1
		l0,0l0,0c0,0-0.1,0-0.1,0v0.1c0,0,0,0.4-0.1,1.2l0,0.2l0,0c0,0.2,0,0.4,0,0.5c0,0.1,0,0.1,0,0.1c0,0,0,0.1,0,0.1l0,0.1v0.3
		c0,0.1,0,0.2,0,0.3l0,0.2h-0.1c0,0,0.1,0.1,0.1,0.3l0,0.6c0,0.4,0,0.6,0,0.8v0.1v0.1c0,0,0,0.1,0,0.1v0.1v0.1l0,0.1v0.1
		c0,0.2,0,0.3,0,0.4c0,0,0,0.1,0,0.1v0.1l0,0.1l0,0.1c0,0.2,0,0.5-0.1,0.9c0,0,0,0,0,0h0.1h0.1h0.3h0.3h0h0h0h0c0,0,0.2,0,0.4,0
		l0.4,0l0.3,0l0,0l0,0c0,0,0.1,0,0.2,0l0,0c0,0,0,0,0,0l0,0h0.1h0.1l0,0v0c0,0,0.1-0.1,0.1,0c0.2,0,0.3,0,0.4,0h0h0l0,0h0h0l0,0
		c0,0,0.1,0,0.2,0h0l0,0l0,0h0h0c0.1,0,0.2,0,0.3,0c0.1,0,0.2,0,0.2,0.1l0,0c0,0,0,0.1,0,0.1l0,0l0,0c0,0,0,0.1,0,0.1
		c0,0.1,0,0.2,0,0.3c0,0,0,0,0,0.1l-0.1,0.1h0h0h0v0h0c-0.1,0-0.4,0.1-0.9,0.1l0,0l0,0h-0.1h0l0,0l0,0h0c0,0-0.1,0-0.1,0h-0.1l0,0
		h-0.1H103l-0.1,0h-0.1c0,0-0.1,0-0.2,0h-0.2h-0.2h0h0h0h0c0,0-0.1,0-0.1,0h0l0,0h-0.2v0l0,0c0,0-0.3,0-0.7,0h-0.1h-0.1l0,0l0,0h0
		l-0.4-0.1l-0.1,0h-0.1l-0.2,0c0,0-0.1,0-0.1,0h0h0v0h0h0c0,0,0,0,0,0v0c0,0-0.1-0.1-0.1-0.1h0c0,0,0-0.1,0-0.2c0,0,0-0.1,0-0.1
		c0,0,0-0.1-0.1-0.1v0v0h0v0v0h0c0,0,0,0,0,0v-0.1c-0.1-0.4-0.1-1.2-0.1-2.6l0,0c0-0.1,0-0.1,0-0.2v-0.2v-0.1c0,0,0-0.1,0-0.1
		c0-0.1,0-0.1,0-0.2v-0.1l0-0.8c0-0.1,0-0.2,0-0.2c0,0,0-0.1,0-0.2c0-0.2,0-0.4,0-0.6l0-0.5v-0.4c0-0.2,0-0.4,0-0.6
		c0-0.2,0-0.5,0-0.6v-0.5v-0.1c0,0,0,0,0-0.1c0-0.1,0-0.1,0-0.1V16v-0.2v-0.1c0,0,0,0,0-0.1c0,0,0-0.1,0-0.1v0c0-0.1,0-0.3,0-0.6h0
		l0-0.2c0-0.1,0-0.5,0-1.1v-0.8v-0.3v-0.3l0-0.1c0,0,0-0.1,0-0.1v-0.1l0.1-1.2c0-0.3,0-0.5,0-0.6c0-0.1,0-0.2,0-0.3l0-0.3
		c0-0.1,0-0.2,0-0.2c0,0,0-0.1,0-0.1h0c0-0.1,0-0.2,0-0.3l0,0l0-0.1v0h0l0,0c0.1-0.1,0.1-0.1,0.1-0.2l0,0h0.4c0.1,0,0.2,0,0.2,0
		c0.1,0,0.1,0,0.2,0c0,0,0.1,0,0.1,0h0.1l0.3,0h0.2h0h0h0l0,0h0.5h0.4l0.4,0c0,0,0.1,0,0.1,0l0,0c0,0,0.1,0,0.2,0c0,0,0.1,0,0.1,0
		c0,0,0,0,0,0l0,0h0.1h0.1l0,0v0c0,0,0.1,0,0.2,0l0.2,0l0.2,0h0h0h0h0h0.1h0c0.1,0,0.1,0,0.2,0h0l0,0l0,0l0,0h0c0.1,0,0.2,0,0.3,0
		c0.1,0,0.2,0,0.2,0.1l0,0c0,0,0,0,0,0.1l0,0l0,0c0,0,0,0.1,0,0.2l0,0.3c-0.1,0.1-0.1,0.1-0.2,0.1h0v0h0h0v0h0h0
		c-0.1,0-0.5,0.1-1.1,0.1l0,0l0,0c0,0-0.1,0-0.1,0h0h-0.1h-0.1c0,0,0,0,0,0h-0.2h-0.1c0,0,0,0-0.1,0h-0.1H103l-0.2,0h-0.2
		c-0.1,0-0.1,0-0.2,0h-0.2H102h0h0h0h0c0,0-0.1,0-0.1,0h0c0,0,0,0,0,0h0h-0.2v0l0,0c-0.1,0-0.2,0-0.5,0c0,0,0,0,0,0.1
		c0,0.2,0,0.6,0,1.2c0,0.3,0,0.5,0,0.8c0,0.2,0,0.4,0,0.7l0,0.2l0,0.2v0.3v0.9l0,0.5c0,0.1,0,0.1,0,0.1c0,0,0,0.1,0,0.1v0.1v0.1
		c0,0,0,0.1,0,0.1v0.1c0,0.2,0,0.6,0,1.4h0.1c0,0,0.1,0,0.1,0h0.1h0.1h0.2c0.1,0,0.2,0,0.2,0h0h0h0c0,0,0.1,0,0.3,0h0.3l0.3,0l0,0
		l0,0c0,0,0.1,0,0.1,0l0,0c0,0,0,0,0,0l0,0h0.1h0.1l0,0v0c0,0,0.1,0,0.1,0c0.1,0,0.2,0,0.3,0h0h0l0,0h0h0l0,0c0.1,0,0.1,0,0.2,0
		l0.1,0v0h0c0.1,0,0.2,0,0.2,0l0.1,0l0,0v0.1l0,0v0h0L104.4,17C104.5,16.9,104.5,17,104.4,17z"/>
	<path class="st0" d="M114,25.3L114,25.3L114,25.3L114,25.3l-0.1-0.1c0,0,0,0,0,0h0h0v0v0c-0.1-0.1-0.2-0.5-0.2-1.1l0,0l0-0.1v-0.1
		c0,0,0-0.1,0-0.1c0,0,0-0.1,0-0.1c0,0,0,0,0-0.1c0-0.1,0-0.2,0-0.2v-0.2c0,0,0-0.1,0-0.1V23l-0.1-0.6l0-0.3l-0.1-0.3
		c0-0.1,0-0.2,0-0.4c0-0.1,0-0.2,0-0.3l0,0c0,0,0,0,0-0.1V21v0c0,0,0-0.1,0-0.1c0,0,0,0,0,0l0,0v0l-0.1-0.3h0v-0.1
		c0-0.2-0.2-0.5-0.4-0.9l0-0.1c0-0.1,0-0.1-0.1-0.2h0l0,0v0c-0.1-0.1-0.2-0.3-0.3-0.5l-0.1-0.1c-0.1,0-0.1-0.1-0.1-0.1l-0.2-0.2
		l-0.2-0.2h0l0,0v0h0l0,0v0l0,0l-0.1-0.1l0,0c0,0,0-0.1,0-0.1c-0.6,0.2-1,0.3-1.1,0.3c-0.1,0-0.1,0-0.2,0c0,0-0.1-0.1-0.1-0.1h0
		c0,0.2,0,0.5-0.1,0.8L110,19l0,0.1c0,0.2,0,0.4,0,0.6c0,0.1,0,0.1,0,0.1c0,0.1,0,0.1,0,0.2l0,0v0.3v0.4l0,0.2h-0.1
		c0.1,0.1,0.1,0.3,0.1,0.6c0,0.4-0.1,0.8,0,1.2v0.1v0.1l0,0v0.1c0,0.1,0,0.2,0,0.3c0,0.2,0,0.4,0,0.5c0,0,0,0.1,0,0.1
		c0,0,0,0.1,0.1,0.2l0,0.1v0.1c0,0.2,0,0.3-0.1,0.5c0,0.2-0.1,0.3-0.1,0.3l-0.1,0.1c0,0-0.1,0-0.2,0l-0.1,0c0,0-0.1,0-0.1,0
		l-0.8-0.1c0,0-0.1,0-0.1-0.1l-0.1-0.1v0v0h0v0v0l0,0c0,0,0,0,0,0v0c-0.1-0.3-0.1-1-0.1-2.2l0-0.1c0,0,0-0.1,0-0.2v-0.2V22l0-0.1
		l0-0.4c0-0.4,0-0.6,0-0.9l0-0.2v-0.2c0-0.1,0-0.2,0-0.3c0-0.2,0-0.3,0-0.4l0-0.5l0-0.6c0-0.2,0-0.4,0-0.7c0-0.3,0-0.5,0-0.8v-0.7
		c0-0.1,0-0.1,0-0.1c0,0,0-0.1,0-0.1c0-0.1,0-0.1,0-0.2l0-0.1v-0.2c0,0,0-0.1,0-0.2v-0.1c0,0,0-0.1,0-0.1v0v-0.7h0l0-0.2
		c0-0.3,0-1,0-2.2c0-0.1,0-0.3,0-0.4c0-0.2,0-0.3,0-0.3l0-0.1c0,0,0-0.1,0-0.1v-0.1c0-0.1,0-0.5,0-1.1V9.8V9.5c0,0,0-0.1,0-0.2
		c0-0.1,0-0.2,0-0.3c0-0.1,0-0.1,0-0.1v0V8.8l0,0v0v0l0,0l0,0c0-0.1,0-0.1,0.1-0.1c0,0,0,0,0,0v0c0.1,0,0.1,0,0.2,0
		c0.1,0,0.2,0,0.2,0l0.1,0h0l0.1-0.1c0.5-0.2,1-0.2,1.4-0.2c0.2,0,0.5,0,0.9,0.1l0.6,0.1c0.4,0.2,0.8,0.4,1.3,0.8c0,0,0,0,0.1,0l0,0
		l0.1,0.1l0.1,0c0.2,0.2,0.4,0.6,0.7,1c0.2,0.4,0.4,0.7,0.5,1.1c0.1,0.2,0.1,0.6,0.1,1.2l0,0.2l0,0l0,0.2c0,0.1,0,0.2,0,0.3l0,0.1
		l-0.1,0.1l0,0.1c-0.1,0.3-0.1,0.5-0.2,0.7l-0.1,0.1h0v0c0,0.1-0.1,0.3-0.2,0.5c-0.3,0.4-0.5,0.7-0.8,1l-0.1,0.1c0,0-0.1,0-0.1,0.1
		c0,0,0,0,0,0.1c0,0-0.1,0.1-0.1,0.1c-0.1,0.1-0.3,0.2-0.6,0.4c-0.1,0.1-0.2,0.2-0.2,0.2c-0.1,0-0.1,0.1-0.2,0.1c0,0-0.1,0-0.1,0.1
		c0,0,0,0.1,0,0.1c0.1,0,0.1,0,0.2,0c0.3,0.1,0.5,0.2,0.7,0.3c0.2,0.1,0.5,0.4,0.8,0.7c0.2,0.2,0.3,0.3,0.3,0.3l0.6,1v0l0,0
		c0,0,0,0.1,0.1,0.1c0.1,0.3,0.3,0.8,0.4,1.5c0,0,0,0.1,0,0.2c0,0.2,0,0.4,0,0.5l0,0.1l0.1,0.1c0,0.1,0,0.2,0,0.3c0,0,0,0.1,0,0.1
		l0,0.1l0,0l0,0.1v0.2l0,0.1h0c0.1,0,0.1,0.1,0,0.3c0,0.3,0,0.4,0,0.6l0,0l0,0c0,0,0,0,0,0l0,0l0,0c0,0,0,0,0,0.1c0,0.1,0,0.1,0,0.2
		v0c0,0,0,0,0,0l0,0l0,0c0,0.1,0,0.1,0,0.2l-0.2,0l-0.2,0.1c0,0-0.1,0-0.1,0l0,0h0c-0.4,0.2-0.7,0.3-0.8,0.3L114,25.3z M109.8,9.1
		c0.1,0.4,0.1,0.9,0.1,1.6c0,0.2,0,0.5,0,0.7c0,0.2,0,0.5,0,0.7V13c0,0.5,0,0.8,0,0.9V14v0.1c0,0,0,0.1,0,0.1v0.1l0,2.9v0.2
		c0.1-0.1,0.2-0.1,0.2-0.1l0.1,0l0,0h0.1c0,0,0,0,0,0c0,0,0,0,0.1,0c0,0,0,0,0,0c0,0,0.1,0,0.1,0c0,0,0,0,0.1,0
		c0.9-0.5,1.5-1.1,2-1.8l0,0l0-0.1l0.1-0.1c0-0.1,0-0.1,0.1-0.2c0,0,0-0.1,0-0.1c0,0,0-0.1,0.1-0.1c0-0.1,0.1-0.3,0.2-0.6l0.1-0.3
		c0-0.4,0-0.9-0.2-1.6c-0.1-0.4-0.1-0.7-0.2-0.8c0,0,0-0.1,0-0.1c0,0-0.1-0.1-0.1-0.2v0c0,0,0,0,0-0.1s0,0,0-0.1l0-0.1l0,0
		c0,0,0,0,0,0l0,0l-0.2-0.3h0l0-0.1c-0.2-0.4-0.5-0.7-0.8-0.9c-0.2-0.1-0.3-0.2-0.3-0.2h0l0,0l0,0c-0.4-0.1-0.6-0.2-0.8-0.2
		c-0.1,0-0.3,0-0.5,0.1C109.8,9,109.8,9,109.8,9.1L109.8,9.1z"/>
	<path class="st0" d="M121.6,25.2c-0.1-0.1-0.1-0.1-0.1-0.1l0,0v-0.1l0,0c0,0,0,0,0,0c0,0,0-0.1,0-0.1l0,0v-0.1l0,0
		c-0.2-0.4-0.5-1.3-0.9-2.7l0,0c0,0,0,0,0-0.1c0,0,0-0.1,0-0.1l0-0.2l0-0.1c0-0.1-0.1-0.2-0.1-0.3c0,0,0-0.1,0-0.2
		c-0.1-0.2-0.1-0.5-0.2-0.8c0,0,0-0.1,0-0.2l0-0.2c0-0.1-0.1-0.5-0.3-1.1l-0.3-1.1L119,17l-0.1-0.6c0,0,0-0.1,0-0.1
		c0-0.1-0.1-0.2-0.1-0.3l-0.1-0.3c0,0,0,0,0-0.1c0,0,0,0,0-0.1l0-0.1v-0.1v0l-0.1-0.6h0l0-0.2c0-0.3-0.2-0.9-0.5-2l-0.2-0.6l0,0
		v-0.1v-0.1c-0.1-0.3-0.2-0.7-0.2-1.2c-0.1-0.3-0.1-0.5-0.1-0.6c-0.1-0.3-0.1-0.5-0.1-0.6l0-0.2V9l0,0c0,0,0,0,0,0v0c0,0,0,0,0-0.1
		l0,0l0,0l0-0.2l0,0v0c0,0,0.1-0.1,0.2-0.1c0.1,0,0.2,0,0.2,0c0,0,0.1,0,0.1,0c0,0,0.1,0.1,0.1,0.1c0,0,0,0,0,0h0l0,0l0,0
		c0,0,0.1,0.1,0.2,0.1c0.2,0.1,0.3,0.2,0.4,0.3c0.1,0.2,0.2,0.5,0.3,0.9c0.1,0.4,0.2,0.7,0.2,1l0.1,0.7l0.1,0.3l0.1,0.3l0.2,0.8
		l0.2,0.8c0,0,0,0.1,0,0.1c0,0,0,0.1,0,0.2l0,0.1l0.4,1.4l0.3,1c0,0,0.1,0.4,0.2,1.2c0,0,0,0.1,0.1,0.2l0,0.1c0,0.1,0.1,0.3,0.2,0.5
		V19c0,0,0,0.1,0,0.2l0,0l0.1,0.3c0,0,0,0.1,0.1,0.4V20h-0.1c0.1,0.1,0.2,0.3,0.2,0.5c0.1,0.4,0.2,0.8,0.3,1.2c0,0,0,0,0,0.1
		c0,0,0-0.1,0-0.2c0.1-0.3,0.2-0.6,0.2-0.9c0.1-0.3,0.1-0.5,0.2-0.6c0-0.1,0-0.1,0-0.2v-0.1c0,0,0-0.1,0-0.1
		c0.1-0.4,0.2-0.9,0.3-1.4c0.2-0.6,0.2-1,0.2-1l0.4-1.2c0,0,0-0.1,0-0.1v-0.1v-0.1c0-0.1,0-0.3,0.1-0.6l0.1-0.1l0-0.1v-0.1l0.1-0.3
		l0.1-0.4L124,14h0v-0.1c0-0.1,0-0.3,0.1-0.5c0.1-0.5,0.3-0.9,0.3-1.3l0.1-0.2v-0.1c0-0.1,0-0.2,0.1-0.3l0-0.1
		c0.1-0.2,0.1-0.4,0.1-0.7l0-0.1c0,0,0-0.1,0-0.1v-0.2c0-0.1,0-0.1,0-0.1c0-0.2,0.1-0.6,0.3-1c0.1-0.3,0.2-0.5,0.2-0.6
		c0,0,0,0,0-0.1c0,0,0-0.1,0.1-0.1c0,0,0.1,0,0.1,0l0.1-0.1l0.1-0.1l0.2,0.1c0.1,0.1,0.3,0.2,0.4,0.3c0,0,0,0.1,0,0.3V9
		c0,0,0,0.1,0,0.1c0,0,0,0,0,0.1h0c0,0,0,0,0,0.1l0,0c0,0,0,0,0,0v0c0,0,0,0,0,0.1c-0.1,0.5-0.3,1.5-0.7,3.1v0.1c0,0.1,0,0.1,0,0.2
		c0,0.1,0,0.1,0,0.2c0,0.1,0,0.1,0,0.2l0,0.1l-0.1,0.2l0,0.2l-0.1,0.5l-0.1,0.4l-0.1,0.4l-0.1,0.7l-0.1,0.5c0,0.1,0,0.3-0.1,0.5
		c0,0.2-0.1,0.4-0.1,0.6c-0.1,0.2-0.1,0.4-0.2,0.6c-0.1,0.2-0.1,0.4-0.1,0.6c0,0,0,0.1,0,0.1c0,0.1,0,0.2,0,0.2
		c0,0.1-0.1,0.2-0.1,0.3l0,0.1c0,0,0,0,0,0.1c0,0,0,0.1,0,0.1l0,0l-0.2,0.6h0l-0.1,0.2l-0.4,1.9l-0.1,0.3l-0.1,0.3v0.1
		c0,0,0,0.1,0,0.1c0,0,0,0,0,0.1l-0.3,1c0,0,0,0.1-0.1,0.3v0.1c0,0.3,0,0.5,0,0.5V25c0,0-0.1,0.1-0.2,0.1l0,0.1l0,0.1
		c-0.1,0-0.2,0-0.2,0c0,0,0,0.1-0.1,0.1l0,0v0l-0.1,0c-0.1,0-0.2,0-0.2-0.1l-0.1-0.1h-0.1C121.7,25.3,121.6,25.3,121.6,25.2z"/>
	<path class="st0" d="M134.1,8.7c0.1,0,0.3,0.1,0.4,0.2c0.1,0.1,0.1,0.1,0.2,0.1c0,0,0.1,0,0.1,0.1l0.1,0.1l0,0l0.1,0.2c0,0,0,0,0,0
		h0c0,0,0,0,0,0.1c0,0,0,0.1,0.1,0.1c0.4,0.8,0.8,1.9,1,3.3c0.3,1.4,0.5,2.9,0.6,4.4l0,0.2c0,0.2,0,0.6,0,1c0,0.4,0,0.8,0,1
		c0,0.3-0.1,0.6-0.1,1c-0.2,0.9-0.3,1.6-0.6,2.2c-0.1,0.3-0.3,0.7-0.4,0.9c-0.4,0.6-0.8,1.1-1.3,1.5c-0.5,0.3-1,0.5-1.6,0.5
		c-0.2,0-0.5,0-0.7-0.1c-0.7-0.2-1.4-0.7-2.1-1.6c0,0-0.1-0.1-0.1-0.2c-0.1-0.1-0.1-0.2-0.2-0.4c0-0.1-0.1-0.3-0.2-0.5
		c-0.1-0.2-0.1-0.3-0.1-0.4l-0.1-0.3c0-0.1,0-0.1-0.1-0.2c0-0.1,0-0.1-0.1-0.2v-0.1c-0.1-0.6-0.2-1.1-0.3-1.7h0h0v-0.5l0-1.4
		c0-1.8,0.1-3.3,0.3-4.4l0.2-0.8l0.2-0.8l0-0.2c0,0,0-0.1,0.1-0.2c0-0.1,0.1-0.2,0.1-0.3c0.3-0.6,0.5-1,0.6-1.3
		c0.2-0.3,0.4-0.6,0.7-0.9c0.2-0.3,0.5-0.4,0.7-0.5c0.3-0.1,0.6-0.1,0.9-0.2c0.3,0,0.5,0,0.7,0l0.1,0l0.1,0v0h0.2c0.1,0,0.1,0,0.1,0
		C133.9,8.6,134,8.6,134.1,8.7L134.1,8.7z M134.9,21.6c0,0.1,0,0.1,0,0.1C134.9,21.7,134.9,21.7,134.9,21.6c0-0.2,0-0.5,0.1-0.9
		c0-0.1,0-0.2,0-0.3c0-0.1,0-0.1,0-0.2c0.1-0.8,0.1-1.6,0.1-2.5c0-0.4,0-0.7,0-0.9l0-0.7l-0.1-0.5l0-0.2l0-0.2c0-0.3,0-0.4,0-0.4
		c-0.1-0.7-0.2-1.2-0.2-1.6c0-0.2-0.1-0.4-0.1-0.6c0-0.1-0.1-0.3-0.1-0.4c0,0,0-0.1,0-0.1c0,0,0-0.1,0-0.1c0-0.1-0.2-0.5-0.3-1.2
		c-0.1-0.5-0.2-0.7-0.2-0.7l-0.2-0.7c0-0.1,0-0.1,0-0.2c0,0,0-0.1,0-0.1c0-0.1,0-0.1,0-0.1c-0.3-0.1-0.6-0.1-0.8-0.1
		c-0.4,0-0.8,0.3-1,0.8c-0.7,1.4-1.1,2.8-1.2,4.3c-0.1,1.1-0.2,2.2-0.2,3.3c0,0.6,0,1,0,1.3c0,0.2,0,0.3,0,0.5l0.1,0.5
		c0.2,1,0.5,1.9,0.8,2.8c0.3,0.9,0.6,1.5,0.8,1.8c0.3,0.4,0.7,0.6,1.1,0.6c0,0,0.2,0,0.3,0c0.1,0,0.2-0.1,0.3-0.3
		c0.2-0.2,0.3-0.5,0.4-0.7c0-0.1,0-0.1,0.1-0.1c0,0,0,0,0-0.1l0.1-0.2l0-0.1c0-0.1,0.2-0.6,0.4-1.3l0-0.1L134.9,21.6L134.9,21.6z"/>
	<path class="st0" d="M148.8,8.2c0,0.1,0.1,0.1,0.1,0.1v0l0,0c0,0,0,0,0,0h0l0,0c0,0,0,0,0,0h0v0v0c0,0.2,0.1,1.1,0.1,2.5l0,0.1v0.2
		v0.2l0,0.1v0.2V12l0,0.2l0,0.9v0.2c0,0.1,0,0.2,0,0.3c0,0.2,0,0.3,0,0.4l0,0.9c0,0.1,0,0.3,0,0.6c0,0.3,0,0.5,0,0.7V17
		c0,0.4,0,0.6,0,0.7c0,0,0,0.1,0,0.1v0.1v0.2l0,0.1v0.2c0,0.1,0,0.1,0,0.1v0.1v0.1c0,0,0,0,0,0.1v0.7h0l0,0.2c0,0.2,0,0.9,0,2.1v0.3
		v0.2l0,0.1c0,0.1,0,0.1,0,0.2c0,0.2,0,0.5,0,1c0,0.2,0,0.3,0,0.5l0,0.4l-0.1,0.1v0v0h0v0v0l0,0h0l0,0c0,0-0.1,0-0.1,0l0,0
		c-0.1,0-0.1,0-0.2,0c-0.1,0-0.1,0-0.2,0l-0.1,0l-0.1-0.1h0h0c0,0,0,0,0,0l0,0c-0.1,0-0.3-0.1-0.4-0.2c0,0-0.1-0.1-0.1-0.1
		c0-0.2,0-0.4,0-0.7c0-0.1-0.3-0.6-0.8-1.6l0,0c0,0,0-0.1-0.1-0.1c0-0.1-0.1-0.1-0.1-0.2c-0.1-0.1-0.1-0.1-0.1-0.2c0,0,0,0,0-0.1
		c0,0,0-0.1,0-0.1c0-0.1-0.1-0.2-0.1-0.2c-0.1-0.3-0.3-0.6-0.4-0.8c0,0,0-0.1-0.1-0.2c0,0,0-0.1-0.1-0.2l-0.3-0.6l-0.2-0.5
		c0-0.1-0.1-0.3-0.2-0.5c-0.1-0.2-0.2-0.4-0.3-0.6c-0.1-0.2-0.3-0.6-0.6-1.3c-0.1-0.1-0.1-0.2-0.1-0.3l-0.1-0.2l0-0.1l-0.1-0.2
		l-0.1-0.1l0-0.1l0-0.1l-0.3-0.7l0,0l-0.1-0.2l-1-2.1c0,0,0-0.1,0-0.1c0,0,0-0.1,0-0.1c0,0.1,0,0.2,0,0.2l0,0.3c0,0.1,0,0.1,0,0.2
		l0,0.2c0,0.3,0,0.6,0,0.9v0.2c0,0.1,0,0.1,0,0.2c0,0.2,0,0.5,0,0.6l0,0.5l0,0.5c0,0.2,0,0.4,0,0.7v0.6v0.6c0,0,0,0.1,0,0.1v0.1v0.1
		l0,0.1c0,0.1,0,0.1,0,0.2v0.1l0,0c0,0,0,0.1,0,0.1l0,0v0.6h0l0,0.2l0,0.7l0,1.2c0,0,0,0.2,0,0.3l0,0.3l0,0c0,0,0,0.1,0,0.1
		c0,0,0,0,0,0.1c0,0.3,0,0.7-0.1,1.1c0,0.2,0,0.4,0,0.6l0,0.6l0,0.1v0v0.1h0c0,0,0,0,0,0c0,0,0,0.1,0,0.1l0,0c0,0,0,0,0,0.1
		l-0.1,0.1c0,0,0,0,0,0v0c-0.1,0-0.1,0-0.2,0c-0.1,0-0.2,0-0.2,0c0,0,0-0.1-0.1-0.1c0,0-0.1,0-0.1-0.1c0,0,0,0,0,0c0,0,0,0,0,0
		c0,0,0,0,0,0l0,0l-0.2-0.1c-0.2-0.1-0.3-0.3-0.3-0.4c0-0.3,0-0.6,0-1.1c0-0.3,0-0.5,0-0.6c0-0.2,0-0.4,0-0.6v-0.3
		c0-0.1,0-0.2,0-0.3l0-0.3l0-0.6c0-0.5,0-0.7,0-0.8v-0.1v-0.1v-0.1c0,0,0,0,0-0.1c0-0.8,0-1.6,0-2.5l0.1-1.2c0,0,0,0,0-0.1l0-0.1
		l0-0.1c0-0.2,0-0.4,0-0.6c0-0.1,0-0.1,0-0.1c0,0,0-0.1,0-0.2l0,0v-0.3v-0.4l0-0.2h0c0-0.1-0.1-0.2-0.1-0.3l0-0.7c0-0.4,0-0.6,0-0.8
		c0,0,0-0.1,0-0.1v-0.1c0,0,0-0.1,0-0.1c0,0,0,0,0-0.1l0-0.1l0-0.1V11c0-0.2,0-0.3,0-0.4v-0.1c0-0.2-0.1-0.3-0.1-0.3l0-0.1
		c0-0.2,0-0.5,0.1-1c0-0.3,0.1-0.5,0.1-0.5l0.1-0.2c0,0,0.1,0,0.2,0l0-0.1l0.1-0.1l0.3,0c0.2,0,0.4,0.1,0.5,0.2c0,0,0.1,0.1,0.1,0.2
		c0,0.1,0.1,0.2,0.1,0.2c0,0,0,0,0,0c0,0,0,0,0,0.1h0h0v0.1v0h0c0.4,0.7,0.6,1.3,0.8,1.7l0.3,0.7c0,0,0.1,0.2,0.2,0.4l0.2,0.3
		c0,0,0.2,0.3,0.4,0.8c0.2,0.5,0.4,0.8,0.5,0.9l0,0.1c0,0,0,0,0,0.1s0,0,0,0.1l0.1,0.1l0,0.1l0.8,1.5l0.6,1.1l0.6,1.3l0.2,0.2l0,0
		l0.3,0.5c0,0.1,0,0.2,0.1,0.3l0,0c0,0,0,0,0,0.1c0,0,0,0.1,0.1,0.2l0.2,0.4l0.1,0.2l0,0c0.1,0.1,0.2,0.2,0.3,0.5l0.1,0.2
		c0-0.6,0-1,0-0.9v-0.1v-0.1v-0.1c0,0,0,0,0-0.1c0-0.7,0-1.4,0-2.1c0-0.6,0-0.9,0-0.8l0.1-1.5l-0.1-0.3l0-0.1c0-0.2,0-0.4,0-0.7
		c0,0,0-0.1,0-0.1c0,0,0-0.1,0-0.1c0,0,0-0.1,0-0.2l0-0.1v-0.3V13l0-0.2c0,0,0.1,0,0.1,0c-0.1-0.1-0.1-0.3-0.1-0.6
		c0-0.4,0-0.6,0-0.7l0-0.5l0-0.1c0,0,0-0.1,0-0.1v-0.1c0,0,0,0,0-0.1l0-0.1l0-0.1v-0.1c0-0.2,0-0.3,0-0.4V9.6c0-0.1,0-0.2,0-0.2
		l0-0.1V9.1c0-0.2,0-0.4,0.1-0.7c0-0.2,0.1-0.3,0.1-0.4l0.1-0.1c0,0,0.1,0,0.2,0l0,0c0,0,0.1-0.1,0.1-0.1c0.1,0,0.2,0,0.4,0
		c0.2,0,0.3,0.1,0.4,0.1L148.8,8.2z"/>
	<path class="st0" d="M163.7,15.4c0,0.2,0,0.4,0,0.4V16v0.1h0c0,0,0,0,0,0.1l0,0.1h0h0v0.1v0.1c0.1,0.7,0.1,1.3,0.1,1.6
		c0,1.5-0.2,3.1-0.7,4.7l0,0.1c0,0.1-0.3,0.6-0.6,1.3c-0.1,0.2-0.3,0.4-0.4,0.5c-0.4,0.4-0.8,0.6-1,0.7c-0.3,0.1-0.5,0.1-0.5,0.1
		c-0.1,0-0.3,0-0.5,0c-0.5,0-0.8-0.1-1.2-0.3c-0.3-0.2-0.6-0.5-0.9-1c-0.3-0.5-0.6-1.2-0.9-2.1l-0.1-0.2c-0.1-0.2-0.2-0.4-0.2-0.6
		l0-0.2c0-0.1-0.1-0.3-0.1-0.5l-0.1-0.3c0,0,0-0.1,0-0.2v-0.1c0-0.3-0.1-0.8-0.2-1.5h0v-0.5c0-2.3,0.2-4.2,0.4-5.5
		c0.1-0.3,0.2-0.8,0.4-1.4l0.1-0.5l0-0.2c0.1-0.3,0.2-0.5,0.2-0.5c0.3-0.5,0.6-0.8,0.8-1c0.2-0.2,0.6-0.4,1.1-0.7
		c0.6-0.3,1.2-0.4,1.8-0.4c0.2,0,0.4,0,0.5,0c0.4,0,0.7,0.1,0.8,0.1l0.1,0.1l0.1,0v0c0,0,0.1,0,0.1,0.1c0,0,0.1,0.1,0.1,0.1
		c0,0,0.1,0.1,0.1,0.1c0.1,0.1,0.2,0.2,0.2,0.2c0,0.1,0,0.1,0,0.2l0,0.1l0,0v0c0,0.1-0.1,0.2-0.2,0.2c0,0-0.1,0-0.1,0
		c0,0-0.1-0.1-0.2-0.1c-0.1,0-0.2-0.1-0.2-0.2l0,0c0,0,0,0-0.1-0.1c0,0-0.1-0.1-0.1-0.1c-0.3-0.2-0.6-0.3-0.9-0.4
		c-0.2,0-0.4,0-0.5,0c-0.6,0-1.1,0.2-1.5,0.5c-0.2,0.2-0.3,0.3-0.4,0.5c-0.1,0.1-0.2,0.3-0.3,0.7l-0.1,0.5l-0.1,0.6
		c-0.2,0.5-0.3,1.2-0.4,1.9c-0.2,1.7-0.3,3.2-0.3,4.3v0.2l0,0.2l0.1,0.4c0.3,2,0.6,3.6,1.1,4.6c0.2,0.5,0.4,0.9,0.6,1.3l0.2,0.1
		c0,0,0.1,0.1,0.1,0.2c0,0.1,0.1,0.1,0.1,0.1c0.1,0.1,0.1,0.1,0.2,0.1h0c0.1,0,0.2-0.1,0.4-0.2l0.1-0.1l0,0c0,0,0.1-0.2,0.2-0.5
		c0.3-0.5,0.5-1.2,0.7-1.9l0.1-0.6l0-0.2c0-0.2,0-0.3,0.1-0.6l0-0.2c0-0.4,0-0.7,0-0.9v-0.2c0-0.2,0-0.4,0-0.5l0-0.2
		c0-0.6,0-1.3,0-2.2c0-0.7,0.1-1.1,0.1-1.2c0,0,0-0.1,0-0.2h0h-0.1h-0.1l0,0h0H162l-0.1,0h-0.1c0,0-0.1,0-0.1,0h-0.1h-0.1h0l0,0h0
		l0,0l0,0h0l0,0h-0.1v0l0,0l-0.3,0h-0.1h0v0c0,0,0,0,0,0h0c-0.1,0-0.1,0-0.2,0h0h0h0c0,0,0,0,0,0h0h0v0l0,0h0c0-0.1,0-0.2,0-0.2v0v0
		v0v0c0-0.1,0.1-0.2,0.1-0.2c0,0,0.1,0,0.2,0h0.1h0.1h0.1l0,0h0.2c0.1,0,0.1,0,0.1,0h0h0h0c0,0,0.1,0,0.1,0h0.2h0.1l0.2,0l0,0l0,0
		c0,0,0.1,0,0.1,0h0c0,0,0,0,0,0l0,0h0h0.1l0,0v0c0,0,0.1,0,0.1,0c0.1,0,0.2,0,0.2,0h0h0h0h0h0h0.1l0-0.1l0.1,0l0,0c0,0,0.1,0,0.2,0
		l0.1,0l0,0v0.1l0,0l0,0c0.1,0,0.2,0.1,0.3,0.2C163.7,15.1,163.7,15.2,163.7,15.4z"/>
	<path class="st0" d="M167.5,25.1c0-0.1-0.1-0.2-0.1-0.2v0v-0.1h0v0v0h0c0,0,0,0,0,0v-0.1c-0.1-0.5-0.2-1.5-0.2-2.9l0-0.1
		c0,0,0-0.1,0-0.2v-0.2v-0.1c0,0,0-0.1,0-0.2l0-0.2v-0.1c0-0.1,0-0.2,0-0.5c0-0.2,0-0.3,0-0.4c0-0.1,0-0.2,0-0.2v-0.2
		c0-0.2,0-0.4,0-0.6l0-0.4l0-0.5c0-0.2,0-0.4,0-0.6v-0.6v-0.6v-0.1c0,0,0-0.1,0-0.1l0-0.1v-0.1v-0.2c0-0.1,0-0.1,0-0.1v0
		c0,0,0-0.1,0-0.1v0v-0.6h0l0-0.2c0-0.2,0-0.9,0-2c0-0.1,0-0.3,0-0.4c0-0.1,0-0.2,0-0.2l0-0.1c0,0,0-0.1,0-0.1v-0.1
		c0-0.1,0-0.5,0-1.2V9.9c0-0.2,0-0.3,0-0.3c0-0.1,0-0.2,0-0.3c0-0.2,0-0.3,0-0.3c0-0.1,0-0.2,0-0.2l0-0.1c0,0,0,0,0,0h0V8.6v0l0,0
		l0,0c0,0,0,0,0-0.1s0,0,0-0.1c0,0,0,0,0-0.1l0,0v0c0.1,0,0.3-0.1,0.4-0.1c0,0,0,0,0,0c0,0,0,0,0.1,0c0,0,0.1,0.1,0.1,0.1
		c0,0,0,0,0,0h0l0,0.1c0.1,0,0.2,0.2,0.4,0.4l0.1,0.2c0.1,1,0.1,1.6,0.1,1.9c0,0.2,0,0.5,0,0.7c0,0.3,0,0.5,0,0.7c0,0.3,0,0.6,0,0.8
		V14v0.1v0.1c0,0,0,0.1,0,0.1c0,0,0,0,0,0.1c0,0.3,0,0.6,0,0.8l0,1.6l-0.1,1.2c0,0.1,0,0.1,0,0.2l0,0c0,0.1,0,0.3,0,0.6
		c0,0.1,0,0.1,0,0.1c0,0,0,0.1,0,0.1l0,0v0.3v0.4l0,0.2c0,0,0,0,0,0c0,0,0.1,0.1,0.1,0.3c0,0.3,0,0.5,0,0.6c0,0.1,0,0.2,0,0.4
		c0,0.1,0,0.3,0,0.5v0.1c0,0.1,0,0.1,0,0.1c0,0,0,0.1,0,0.1v0.1l0,0.1c0,0,0,0.1,0,0.1c0,0.3,0,0.5,0,0.6c0,0,0,0,0,0.1
		c0,0.1,0,0.2,0.1,0.3c0,0.1,0,0.1,0,0.1c0,0.2,0,0.5-0.1,1c0,0.1-0.1,0.2-0.1,0.3c0,0.1,0,0.2,0,0.2c0,0,0,0.1,0,0.1
		c0,0.1,0,0.1-0.1,0.1c0,0-0.1,0-0.2,0c0,0,0,0-0.1,0.1l0,0.1l-0.3-0.1c-0.2,0-0.4-0.1-0.5-0.1C167.6,25.3,167.6,25.2,167.5,25.1z"
		/>
	<path class="st0" d="M177.7,16.8L177.7,16.8c-0.1,0.1-0.1,0.1-0.1,0.1h0h0c0,0,0,0,0,0l-0.7,0.1h0h0h0h0l0,0l0,0h0c0,0-0.1,0-0.1,0
		h-0.1l0,0h0h-0.1l-0.1,0l-0.1,0h-0.1l-0.1,0h-0.1h0l0,0h0h-0.1h0v0h0h-0.1v0l0,0c0,0-0.2,0-0.4,0h0c0,0.2,0,0.5,0,0.7v0.6l-0.1,1
		l0,0.2l0,0c0,0.2,0,0.3,0,0.4c0,0,0,0.1,0,0.1c0,0,0,0.1,0,0.1l0,0l0,0.2v0.3l0,0.1l0,0c0,0.1,0.1,0.2,0,0.4c0,0.1,0,0.2,0,0.4
		c0,0.2,0,0.4,0,0.6v0.1c0,0,0,0.1,0,0.1c0,0,0,0.1,0,0.1v0.1c0,0,0,0.1,0,0.1l0,0.1v0.1c0,0.1,0,0.2,0,0.4l0,0.1
		c0,0.1,0,0.1,0.1,0.2l0,0.1c0,0.1,0,0.4,0,0.9l-0.1,0.5c0,0.1,0,0.2,0,0.2c0,0-0.1,0-0.2,0l-0.1,0.1l0,0.1l-0.2-0.1
		c-0.2,0-0.4,0-0.6-0.1c-0.1,0-0.1-0.1-0.1-0.2l-0.1-0.2v0v-0.1h0v0v0h0v-0.1v0c-0.1-0.3-0.1-1.1-0.2-2.5l0,0v-0.1v-0.1l0-0.1
		c0,0,0-0.1,0-0.1l0-0.1l0-0.1c0-0.1,0-0.3,0-0.4c0-0.1,0-0.2,0-0.3c0-0.1,0-0.1,0-0.2l0-0.1l0-0.6l0-0.4V19c0-0.1,0-0.3,0-0.5
		c0-0.2,0-0.4,0-0.5v-0.5c0,0,0-0.1,0-0.1c0,0,0,0,0-0.1s0-0.1,0-0.1v-0.1c0,0,0-0.1,0-0.1c0,0,0-0.1,0-0.1v-0.1c0,0,0,0,0,0l0,0
		v-0.6h0h0l0-0.2l0-0.5l0-1.5c0-0.1,0-0.3,0-0.4l0-0.3l0-0.1c0-0.1,0-0.1,0-0.1v-0.1l0.1-1.5c0-0.3,0-0.6,0-0.8l0-0.2l0-0.2
		c0-0.2,0-0.4,0-0.5l0-0.2V9.4V9.3h0c0,0,0,0,0-0.1V9.1l0,0l0,0h0h0v0h0h0l0,0L172.8,9l0,0c-0.1-0.1-0.1-0.2,0-0.3l0,0l0-0.1v0v0h0
		l0,0c0,0,0.1-0.1,0.1-0.1c0.1-0.1,0.1-0.2,0.1-0.2c0.2,0,0.5-0.1,0.8,0c0.1,0,0.1,0,0.2,0c0,0,0.1,0,0.1,0l0.1,0h0.1h0.3
		c0.1,0,0.3,0,0.3,0l0,0h0l0,0h0c0.2,0,0.3,0,0.3,0h0.3c0.1,0,0.2,0,0.3,0l0.5,0.1c0,0,0.1,0,0.1,0l0,0c0.1,0,0.2,0,0.2,0
		c0,0,0.1,0,0.1,0h0h0.1h0.1l0.1,0v0c0,0,0.1,0,0.2,0c0.2,0,0.3,0,0.5,0h0h0l0,0h0l0,0l0,0c0.1,0,0.2,0,0.2,0l0,0h0c0,0,0.1,0,0.1,0
		l0,0l0.1,0c0,0,0.1,0,0.3,0c0.1,0,0.2,0,0.2,0.1c0,0,0,0,0,0c0,0,0,0,0,0.1c0,0,0,0.1,0,0.1l0,0l0,0l0,0.2c0,0.2,0,0.3,0,0.3
		l-0.1,0.1c0,0-0.1,0-0.1,0.1h0h0v0h0h0c0,0,0,0,0,0c0,0,0,0,0,0c-0.1,0-0.5,0.1-1.2,0.1h0c0,0,0,0-0.1,0h-0.1h0c0,0,0,0-0.1,0
		s-0.1,0-0.1,0h0c0,0-0.1,0-0.2,0c-0.1,0-0.2,0-0.2,0c0,0-0.1,0-0.1,0H177h-0.2c-0.1,0-0.1,0-0.2,0h-0.2h-0.3c-0.1,0-0.2,0-0.2,0
		h-0.2h0l0,0l0,0l0,0c-0.1,0-0.1,0-0.1,0l0,0c0,0,0,0,0,0h0c-0.1,0-0.1,0-0.2,0v0l0,0c-0.1,0-0.3,0-0.7,0l-0.1,0H174
		c0.2,0.4,0.3,0.6,0.4,0.7c0,0.3,0.1,0.8,0.1,1.6v0.6c0,0.3,0,0.6,0,0.8c0,0.2,0,0.3,0,0.4l0,0.4V14l0,0.9l0,0.6c0,0.1,0,0.1,0,0.1
		c0,0,0,0.1,0,0.1v0.1l0,0.1c0,0,0,0.1,0,0.1v0.1l0,0h0h0.1h0.2c0.1,0,0.2,0,0.2,0h0h0h0c0,0,0.1,0,0.3,0h0.3l0.3,0l0,0v0
		c0,0,0.1,0,0.1,0l0,0h0h0h0.1h0.1l0,0v0c0,0,0.1,0,0.1,0c0.1,0,0.2,0,0.3,0h0h0l0,0h0l0,0h0.1l0,0h0v0l0,0h0l0.2,0l0.1,0l0,0v0.1
		l0,0l0,0L177.7,16.8z"/>
	<path class="st0" d="M186.4,18.5L186.4,18.5L186.4,18.5l-0.1,0v0h0v0h0h0c-0.1,0-0.4,0.1-1,0.1v0h0H185h0c0,0,0,0-0.1,0l0,0h-0.1
		c0,0-0.1,0-0.1,0h-0.1h0c0,0,0,0-0.1,0h-0.2l-0.2,0l-0.1,0c-0.1,0-0.1,0-0.2,0c-0.1,0-0.1,0-0.2,0h-0.2h0l0,0l0,0h0l-0.1,0h0l0,0
		h-0.2v0l0,0h-0.1c-0.2,0-0.4,0-0.5,0h-0.1h-0.1v0l0,0h0l-0.4,0h-0.1c0,0-0.1,0-0.1,0l-0.2,0l0,0c0,0,0,0,0,0l0,0v0h0h0v0
		c0,0,0,0,0,0c0,0,0-0.1,0-0.1l0,0c-0.1-0.1-0.1-0.2,0-0.3l0-0.1c0,0,0-0.1,0-0.1v0h0l0,0l0.1-0.1l0-0.1l0,0c0.2,0,0.4,0,0.7,0
		l0.2,0c0,0,0.1,0,0.1,0h0.1l0.3,0h0.3h0h0l0,0h0c0.1,0,0.2,0,0.5,0h0.3l0.4,0l0,0l0,0c0,0,0.1,0,0.2,0l0,0c0,0,0,0,0,0l0,0h0.1h0.1
		l0.1,0v0c0,0,0.1-0.1,0.2,0c0.2,0,0.3,0,0.4,0h0h0l0,0h0l0,0h0c0,0,0.1,0,0.2,0h0c0,0,0.1,0,0.1,0c0,0,0.1,0,0.1,0h0
		c0.1,0,0.2,0,0.3,0c0.1,0,0.2,0.1,0.2,0.1l0,0c0,0,0,0,0,0.1l0,0l0,0v0.2L186.4,18.5C186.4,18.5,186.4,18.5,186.4,18.5z"/>
	<path class="st0" d="M195.9,25.2c0,0-0.1-0.1-0.1-0.1v0h0c0,0,0,0,0,0v0h0h0v0v0c-0.1-0.1-0.1-0.5-0.2-1.2l0,0v-0.1
		c0,0,0-0.1,0-0.1v-0.1c0,0,0,0,0-0.1v-0.1v-0.1v-0.2v-0.2v-0.1v-0.1c0-0.1-0.1-0.2-0.2-0.5l-0.1-0.3c0-0.1-0.1-0.3-0.2-0.6
		l-0.1-0.3c0,0,0-0.1,0-0.1c0-0.1,0-0.1,0-0.1v0l0-0.1c0,0,0,0,0-0.1l0,0c0,0,0,0,0,0v0l-0.1-0.3l0,0V20c-0.1-0.2-0.3-0.5-0.6-1
		l-0.1-0.1l-0.1-0.2l0,0l0,0v0c0,0-0.1-0.2-0.2-0.3l-0.2-0.3c0,0,0,0,0-0.1c0,0,0-0.1-0.1-0.1l-0.1-0.1l-0.2-0.2l-0.1-0.1
		c0,0,0,0,0,0h0l-0.1,0.1c-0.1,0.1-0.3,0.2-0.5,0.4l-0.4,0.3c-0.1,0-0.1,0.1-0.2,0.2l0,0c0,0,0,0,0,0h0c-0.1,0.1-0.3,0.1-0.4,0.2
		v0.2c0,0.1,0,0.2,0,0.2c0,0,0,0.1,0,0.1l0,0.1v0.3c0,0.2,0,0.3,0,0.4l0,0.2c0,0,0,0-0.1,0c0.1,0.1,0.1,0.3,0.1,0.5
		c0,0.3,0,0.6,0,0.7l0,0.5v0.1v0.1c0,0,0,0.1,0,0.1v0.1v0.2l0,0.1v0.2c0,0.2,0,0.3,0,0.4c0,0,0,0.1,0,0.1v0.1c0,0,0,0.1,0,0.1l0,0.1
		c0,0.2,0,0.5-0.1,1l-0.1,0.5c0,0.1,0,0.2,0,0.2c0,0-0.1,0-0.2,0l0,0.1l-0.1,0.1c-0.1,0-0.2,0-0.4-0.1c-0.2,0-0.3-0.1-0.4-0.1
		c0,0-0.1-0.1-0.1-0.2c0-0.1-0.1-0.2-0.1-0.2V25v0c0,0,0,0,0,0v0v-0.1h0c0,0,0,0,0,0v-0.1c-0.1-0.5-0.2-1.5-0.2-3l0,0v-0.2v-0.2
		v-0.2c0,0,0-0.1,0-0.2c0-0.1,0-0.2,0-0.3c0-0.2,0-0.3,0-0.5v-0.4c0-0.1,0-0.2,0-0.2c0-0.1,0-0.1,0-0.2c0-0.2,0-0.5,0-0.6l0-0.5
		l0-0.5c0-0.2,0-0.4,0-0.6v-0.6v-0.6v-0.1c0,0,0-0.1,0-0.1c0-0.1,0-0.2,0-0.2l0-0.3c0,0,0,0,0-0.1c0,0,0-0.1,0-0.1l0,0v-0.6h0l0-0.2
		c0-0.1,0-0.3,0-0.7c0-0.5,0-0.9,0-1.3v-0.3v-0.3l0,0c0,0,0-0.1,0-0.1v-0.1l0.1-1.2c0,0,0-0.1,0-0.3c0-0.2,0-0.3,0-0.3l0-0.3
		c0-0.2,0-0.3,0-0.3c0-0.1,0-0.2,0-0.2c0,0,0,0,0,0c0,0,0,0,0-0.1h0h0v0V8.5l0,0l0,0c0,0,0,0,0-0.1c0,0,0,0,0-0.1c0,0,0,0,0-0.1
		c0,0,0,0,0,0l0,0c0.1,0,0.1,0,0.2,0c0.1,0,0.1,0,0.2,0c0,0,0,0.1,0.1,0.1c0,0,0.1,0.1,0.1,0.1h0h0l0,0.1l0,0l0.2,0.2
		c0.2,0.1,0.3,0.3,0.3,0.4c0,0.6,0.1,1.2,0,1.9c0,0.2,0,0.4,0,0.7c0,0.1,0,0.2,0,0.3v0.3v0.9l0,0.5c0,0.1,0,0.1,0,0.1
		c0,0,0,0.1,0,0.1V14v0.1c0,0,0,0.1,0,0.1v0.1c0,0.8,0,1.6,0,2.4c0,0.2,0,0.5-0.1,1l0.1-0.1l0.2-0.2l0.6-0.6c0,0,0,0,0,0
		c0,0,0,0,0,0l0-0.1c0.4-0.6,0.7-1,0.8-1.2l0.3-0.4c0.1-0.1,0.1-0.1,0.1-0.2c0,0,0-0.1,0.1-0.1c0,0,0-0.1,0-0.2v-0.1l0.2-0.4
		l0.1-0.1l0.1-0.1v0c0-0.1,0.1-0.3,0.2-0.5l0.1-0.1l0,0v0c0-0.1,0-0.2,0.1-0.4c0.1-0.2,0.3-0.6,0.4-1l0-0.1l0-0.1c0,0,0-0.1,0-0.2
		l0-0.1l0-0.1c0.1-0.3,0.2-0.5,0.2-0.6l0-0.1v-0.1c0,0,0-0.1,0-0.2l0-0.1c0-0.2,0.1-0.5,0.3-1.1c0.1-0.4,0.2-0.6,0.2-0.6
		c0,0,0.1-0.1,0.1-0.2c0,0,0.1,0,0.2,0c0,0,0,0,0.1-0.1c0-0.1,0.1-0.1,0.1-0.1c0.1,0,0.2,0.1,0.2,0.1c0.2,0.1,0.4,0.2,0.4,0.3
		c0,0.1,0.1,0.2,0.1,0.4v0.2v0l0,0.1h0l0,0.1l0,0c0,0,0,0,0,0c0,0,0,0,0,0l0,0.1c0,0,0,0,0,0.1c-0.1,0.8-0.3,1.8-0.8,3.2v0.1
		c0,0,0,0.1-0.1,0.1c0,0.1-0.1,0.1-0.1,0.2l0,0.1c0,0.1-0.1,0.2-0.1,0.3l-0.1,0.1l-0.4,0.7c0,0-0.1,0.1-0.1,0.1l-0.1,0.2l-0.4,0.8
		c-0.1,0.2-0.3,0.4-0.4,0.6c-0.1,0.2-0.2,0.3-0.3,0.4c-0.1,0.1-0.2,0.2-0.3,0.3c0.2,0.1,0.5,0.2,0.6,0.4c0.2,0.1,0.5,0.4,0.8,0.8
		l0.4,0.4c0.1,0.2,0.3,0.3,0.4,0.5c0.1,0.2,0.2,0.3,0.3,0.4l0,0l0,0l0,0l0,0c0.3,0.5,0.5,1,0.7,1.5l0.1,0.8c0,0,0,0,0,0.1l0.1,0.1
		c0,0,0.1,0.2,0.1,0.3c0,0,0,0,0,0.1c0,0,0,0.1,0,0.1l0,0c0,0,0,0,0,0.1c0,0,0,0.1,0,0.1c0,0.1,0,0.2,0,0.2l0,0.1h-0.1
		c0.1,0.1,0.1,0.2,0.1,0.3v0.2c0,0.1,0,0.3,0,0.5v0.1v0l0,0c0,0,0,0.1,0,0.1c0,0,0,0,0,0.1c0,0.1,0,0.2,0,0.3c0,0,0,0.1,0,0.1l0,0
		l0,0l0,0.1c0,0.1,0,0.2-0.1,0.3l-0.1,0.2l-0.1,0.1l-0.2,0c0,0-0.1,0-0.1,0l0,0l0,0l-0.8,0C196,25.3,196,25.2,195.9,25.2z"/>
	<path class="st0" d="M200.5,25.1c0-0.1-0.1-0.2-0.1-0.2v0v-0.1h0v0v0h0c0,0,0,0,0,0v-0.1c-0.1-0.5-0.2-1.5-0.2-2.9l0-0.1
		c0,0,0-0.1,0-0.2v-0.2v-0.1c0,0,0-0.1,0-0.2l0-0.2v-0.1c0-0.1,0-0.2,0-0.5c0-0.2,0-0.3,0-0.4c0-0.1,0-0.2,0-0.2v-0.2
		c0-0.2,0-0.4,0-0.6l0-0.4l0-0.5c0-0.2,0-0.4,0-0.6v-0.6v-0.6v-0.1c0,0,0-0.1,0-0.1l0-0.1v-0.1v-0.2c0-0.1,0-0.1,0-0.1v0
		c0,0,0-0.1,0-0.1v0v-0.6h0l0-0.2c0-0.2,0-0.9,0-2c0-0.1,0-0.3,0-0.4c0-0.1,0-0.2,0-0.2l0-0.1c0,0,0-0.1,0-0.1v-0.1
		c0-0.1,0-0.5,0-1.2V9.9c0-0.2,0-0.3,0-0.3c0-0.1,0-0.2,0-0.3c0-0.2,0-0.3,0-0.3c0-0.1,0-0.2,0-0.2l0-0.1c0,0,0,0,0,0h0V8.6v0l0,0
		l0,0c0,0,0,0,0-0.1s0,0,0-0.1c0,0,0,0,0-0.1l0,0v0c0.1,0,0.3-0.1,0.4-0.1c0,0,0,0,0,0c0,0,0,0,0.1,0c0,0,0.1,0.1,0.1,0.1
		c0,0,0,0,0,0h0l0,0.1c0.1,0,0.2,0.2,0.4,0.4l0.1,0.2c0.1,1,0.1,1.6,0.1,1.9c0,0.2,0,0.5,0,0.7c0,0.3,0,0.5,0,0.7c0,0.3,0,0.6,0,0.8
		V14v0.1v0.1c0,0,0,0.1,0,0.1c0,0,0,0,0,0.1c0,0.3,0,0.6,0,0.8l0,1.6l-0.1,1.2c0,0.1,0,0.1,0,0.2l0,0c0,0.1,0,0.3,0,0.6
		c0,0.1,0,0.1,0,0.1c0,0,0,0.1,0,0.1l0,0v0.3v0.4l0,0.2c0,0,0,0,0,0c0,0,0.1,0.1,0.1,0.3c0,0.3,0,0.5,0,0.6c0,0.1,0,0.2,0,0.4
		c0,0.1,0,0.3,0,0.5v0.1c0,0.1,0,0.1,0,0.1c0,0,0,0.1,0,0.1v0.1l0,0.1c0,0,0,0.1,0,0.1c0,0.3,0,0.5,0,0.6c0,0,0,0,0,0.1
		c0,0.1,0,0.2,0.1,0.3c0,0.1,0,0.1,0,0.1c0,0.2,0,0.5-0.1,1c0,0.1-0.1,0.2-0.1,0.3c0,0.1,0,0.2,0,0.2c0,0,0,0.1,0,0.1
		c0,0.1,0,0.1-0.1,0.1c0,0-0.1,0-0.2,0c0,0,0,0-0.1,0.1l0,0.1l-0.3-0.1c-0.2,0-0.4-0.1-0.5-0.1C200.6,25.3,200.6,25.2,200.5,25.1z"
		/>
	<path class="st0" d="M206.2,21.8c0.1,0.2,0.1,0.3,0.1,0.3c0,0,0,0.1,0,0.1l0,0.1h0h0l0,0.1c0,0.1,0,0.1,0,0.1h0l0,0.1l0,0.1
		c0.5,0.9,0.9,1.5,1.2,1.8c0.3,0.2,0.5,0.3,0.8,0.3c0.3,0,0.7-0.1,1.1-0.4l0.1-0.1c0.1-0.2,0.2-0.4,0.3-0.4c0-0.1,0.1-0.2,0.2-0.4
		c0.1-0.2,0.2-0.4,0.2-0.4c0.1-0.5,0.1-0.8,0.1-1.2c0-0.1,0-0.2,0-0.4c0-0.1,0-0.2,0-0.2c-0.1-1.2-0.6-2.2-1.4-3.2
		c-0.1-0.2-0.5-0.5-1-0.9l-0.1-0.2c-0.2-0.1-0.3-0.3-0.4-0.4c0-0.1-0.1-0.1-0.1-0.1l-0.3-0.4l-0.2-0.2c-0.1-0.1-0.2-0.2-0.2-0.2
		c-0.4-0.5-0.6-0.9-0.8-1.2h0l-0.2-0.4c-0.1-0.5-0.2-1.1-0.2-1.7c0-0.6,0.1-1.1,0.2-1.6c0.1-0.5,0.2-0.9,0.4-1.2
		c0.1-0.2,0.4-0.5,0.9-0.8l0.1-0.1c0.1-0.1,0.2-0.1,0.3-0.1c0.7-0.3,1.3-0.4,1.8-0.4c0.3,0,0.6,0.1,0.9,0.2c0.2,0.1,0.5,0.3,0.8,0.7
		c0.2,0.3,0.4,0.5,0.4,0.6l0,0.1c0,0,0,0.1,0.1,0.1h0h0l0.1,0.1l0,0.1v0.1c0,0,0,0,0,0.1l0.1,0.3l0,0.1c0,0,0,0,0,0.1v0.1
		c0,0-0.1,0.1-0.2,0.2c-0.1,0.1-0.2,0.1-0.2,0c0-0.1,0-0.1,0-0.1c0,0-0.1,0-0.1,0c-0.1-0.1-0.2-0.2-0.2-0.2c0,0,0,0,0,0c0,0,0,0,0,0
		c0,0-0.1,0-0.1-0.1c0,0,0-0.1-0.1-0.1l-0.3-0.4c-0.2-0.1-0.3-0.2-0.3-0.3c0-0.1-0.1-0.2-0.2-0.3c-0.1-0.2-0.2-0.3-0.3-0.4
		c-0.1-0.1-0.2-0.2-0.4-0.2c-0.1,0-0.2,0-0.3,0c-0.4,0-0.8,0.2-1.2,0.7c-0.4,0.4-0.6,1.2-0.6,2.3c0,0.5,0,0.9,0.1,1.2
		c0.1,0.3,0.1,0.5,0.2,0.6c0.4,0.6,0.8,1.2,1.3,1.8c0.5,0.6,0.9,1.1,1.1,1.3c0.5,0.5,1,1,1.4,1.6c0,0,0,0,0.1,0.1
		c0,0,0.1,0.1,0.1,0.1l0.1,0.2c0,0.1,0.1,0.1,0.1,0.1c0.2,0.3,0.3,0.7,0.4,1.1c0,0.1,0.1,0.3,0.1,0.3v0.1c0,0.1,0,0.2,0,0.2l0,0.1
		c0,0.4,0,0.7,0,0.9l0,0.5c0,0.1,0,0.2-0.1,0.3l0,0.1l0-0.1c0,0,0,0,0,0.1c0,0.1,0,0.3-0.1,0.5c-0.1,0.2-0.1,0.4-0.2,0.5
		c-0.4,0.7-1,1.2-1.7,1.7c0,0-0.1,0.1-0.3,0.2c-0.2,0.1-0.3,0.1-0.5,0.2c-0.2,0.1-0.4,0.1-0.6,0.1c-0.5,0-0.9,0-1.3-0.2
		c-0.1,0-0.2-0.1-0.5-0.2c0,0,0,0-0.1,0c0,0-0.1,0-0.1,0l-0.3-0.1c-0.5-0.5-0.9-1.1-1.2-1.8c-0.2-0.5-0.2-0.8-0.2-1.1v-0.4
		c0-0.1,0-0.1,0.1-0.1h0.1l0-0.2c0-0.1,0-0.2,0-0.2v0l0.4,0.1c0.2,0.1,0.3,0.1,0.4,0.2C206.1,21.6,206.2,21.7,206.2,21.8z"/>
	<path class="st0" d="M221.8,25.5L221.8,25.5L221.8,25.5l-0.1-0.1h0L221.8,25.5c-0.1-0.1-0.1-0.1-0.1-0.1v0l0,0v0l0,0
		c-0.1-0.3-0.3-1-0.6-2.1l0,0c0,0,0-0.1,0-0.2l0-0.2c0-0.1,0-0.2,0-0.3c0-0.1-0.1-0.3-0.1-0.4l-0.1-0.5c0,0,0-0.2-0.1-0.4l0-0.5
		c0-0.1-0.1-0.3-0.2-0.7c0,0,0-0.1-0.1-0.4c-0.1,0-0.2,0-0.4,0h0c0,0,0,0-0.1,0h-0.1h0c0,0,0,0-0.1,0l0,0h-0.1c-0.1,0-0.1,0-0.2,0
		h-0.1c0,0-0.1,0-0.1,0H219h-0.2l-0.2,0h-0.2l-0.2,0h-0.2h-0.2h0l0,0l0,0h0c0,0-0.1,0-0.1,0h0h0l0,0h-0.2v0l-0.1,0h-0.3v0.1
		c0,0,0,0.1,0,0.1v0l0,0.1l0,0l-0.1,0.6h0v0l-0.1,0.1c-0.1,0.3-0.2,0.9-0.4,1.7l0,0.3l-0.1,0.2v0.1c0,0.1,0,0.1,0,0.1l-0.3,0.9
		l0,0.2c0,0.1,0,0.2-0.1,0.2c0,0.1-0.1,0.2-0.1,0.2l-0.1,0.4v0c0,0,0,0,0,0h0l0,0v0c0,0,0,0-0.1,0l0,0c0,0-0.1,0-0.1,0v0l0,0
		c-0.2,0-0.3,0-0.3-0.1l-0.1-0.1l-0.1-0.1c0,0,0,0,0,0c0,0,0,0,0,0v0l0,0c-0.1-0.1-0.2-0.2-0.2-0.4c0-0.1,0-0.1,0-0.1
		c0-0.4,0.1-0.9,0.3-1.5c0-0.1,0.1-0.2,0.1-0.3c0-0.1,0.1-0.2,0.1-0.3l0-0.3l0-0.3c0.1-0.2,0.1-0.4,0.2-0.7c0.1-0.3,0.1-0.5,0.1-0.8
		l0-0.1c0,0,0,0,0-0.1c0,0,0-0.1,0-0.1v-0.1l0.1-0.6c-0.1,0-0.2,0-0.2,0l0,0h0c0,0,0,0,0,0h0l0,0l0,0l0,0c-0.1-0.1-0.1-0.2,0-0.2
		c0,0,0,0,0-0.1c0,0,0,0,0,0c0,0,0,0,0,0c0,0,0,0,0,0h0l0,0l0-0.1c0.1-0.1,0.1-0.1,0.1-0.1c0,0,0.1,0,0.3,0c0.1-0.4,0.2-0.8,0.2-1
		c0.1-0.3,0.2-0.6,0.3-1.2v-0.1v-0.1v-0.1c0-0.1,0-0.3,0.1-0.6c0-0.1,0.1-0.2,0.1-0.2l0-0.1v-0.1l0.1-0.3c0-0.1,0-0.1,0-0.2
		c0-0.1,0-0.1,0-0.2l0.1-0.2c0,0,0,0,0.1,0v-0.1c0-0.1,0-0.3,0.1-0.5c0.2-0.6,0.3-1,0.3-1.4l0.1-0.3v-0.1c0-0.1,0-0.2,0-0.3l0-0.2
		c0.1-0.2,0.1-0.4,0.1-0.7l0-0.1v-0.1c0,0,0-0.1,0-0.2c0-0.1,0-0.1,0-0.1c0-0.3,0.1-0.7,0.3-1.2c0.1-0.3,0.2-0.5,0.2-0.6
		c0.1-0.1,0.1-0.2,0.1-0.2c0,0,0.1-0.1,0.2,0l0,0l0,0l0,0l0-0.2v0l0,0c0,0,0.1,0,0.1-0.1c0.1,0,0.1,0,0.1,0c0.1,0,0.2,0,0.2,0.1l0,0
		c0,0,0,0,0.1,0l0,0l0.2,0.1c0.1,0.1,0.2,0.2,0.3,0.3c0.2,0.9,0.4,1.5,0.4,1.9c0,0.3,0.1,0.6,0.1,0.8l0.1,0.4l0.1,0.4
		c0,0.3,0.1,0.6,0.2,1c0.1,0.4,0.2,0.7,0.2,1l0,0.1c0,0.1,0,0.1,0,0.2l0,0.1l0.4,1.7c0.1,0.6,0.2,1.1,0.3,1.3c0,0.1,0,0.2,0.1,0.4
		c0,0.2,0.1,0.6,0.2,1.1l0.1,0.1l0.1,0.2v0.1c0.1,0.1,0.1,0.3,0.2,0.6c0,0,0,0.1,0,0.2c0,0,0,0.1,0,0.2l0,0l0.1,0.3L222,21l0,0.2h0
		c0.1,0.1,0.1,0.3,0.2,0.6c0.1,0.5,0.2,0.9,0.2,1.2c0,0,0,0.1,0,0.1c0,0,0,0.1,0,0.1c0,0,0,0.1,0,0.1c0,0.1,0,0.1,0,0.2
		c0,0.1,0,0.1,0,0.1c0,0.2,0.1,0.3,0.1,0.5c0,0,0,0,0,0.1c0,0,0,0.1,0,0.1c0,0,0,0,0,0.1c0,0,0,0.1,0,0.1c0.1,0.1,0.1,0.3,0.1,0.6
		c0,0.2,0,0.3,0,0.3c0,0,0,0,0,0.1c0,0-0.1,0.1-0.2,0.1l0,0l0,0l-0.2,0c-0.2,0-0.3,0-0.4,0L221.8,25.5z M219.9,18.4l-0.2-0.6
		c0-0.1-0.1-0.5-0.3-1.4l0-0.1c0,0,0,0,0-0.1c0,0,0,0,0,0c0,0,0-0.1,0-0.2c0,0,0-0.1,0-0.1l-0.1-0.3l0-0.2v0l-0.1-0.7v0h0l0-0.2
		c-0.1-0.4-0.2-1.1-0.5-2.1l-0.1-0.4l-0.3,1.2v0.1c0,0,0,0.2-0.1,0.4c0,0,0,0,0,0.1c0,0,0,0.1,0,0.1c0,0,0,0.1,0,0.2
		c0,0.1,0,0.2-0.1,0.2c0,0.1-0.1,0.1-0.1,0.1c-0.1,0.4-0.1,0.7-0.2,0.8l-0.1,0.4c0,0-0.1,0.3-0.1,0.6c0,0.3,0,0.4-0.1,0.5
		c0,0,0,0.2-0.1,0.4c-0.1,0.4-0.2,0.8-0.2,1.1l0,0.2h0l0,0h0l0.8,0l0.4,0l0.1,0c0,0,0.1,0,0.2,0h0c0,0,0,0,0.1,0h0h0.1h0.1l0,0v0
		c0,0,0.1,0,0.2,0l0.2,0l0.2,0H219.9L219.9,18.4L219.9,18.4L219.9,18.4z"/>
</g>
</svg>
